<?xml version="1.0" standalone="no"?><!DOCTYPE svg PUBLIC "-//W3C//DTD SVG 1.1//EN" "http://www.w3.org/Graphics/SVG/1.1/DTD/svg11.dtd"><svg class="icon" width="200px" height="200.00px" viewBox="0 0 1024 1024" version="1.1" xmlns="http://www.w3.org/2000/svg"><path d="M512 38.4C249.6 38.4 38.4 249.6 38.4 512s211.2 473.6 473.6 473.6 473.6-211.2 473.6-473.6S774.4 38.4 512 38.4z m-83.2 633.6H345.6v-256h83.2v256zM384 377.6c-25.6 0-44.8-19.2-44.8-44.8s19.2-51.2 44.8-51.2 44.8 19.2 44.8 44.8-19.2 51.2-44.8 51.2z m345.6 294.4h-76.8V537.6c0-38.4-12.8-57.6-44.8-57.6-32 0-51.2 19.2-51.2 57.6v134.4H480v-256h76.8V448s25.6-44.8 76.8-44.8c57.6 0 96 32 96 102.4v166.4z" /></svg>