<?xml version="1.0" encoding="UTF-8"?>
<svg width="646px" height="86px" viewBox="0 0 646 86" version="1.1" xmlns="http://www.w3.org/2000/svg" xmlns:xlink="http://www.w3.org/1999/xlink">
    <!-- Generator: Sketch 51.2 (57519) - http://www.bohemiancoding.com/sketch -->
    <title>Group 9</title>
    <desc>Created with Sketch.</desc>
    <defs></defs>
    <g id="CODE-Network-0.5-中文-" stroke="none" stroke-width="1" fill="none" fill-rule="evenodd">
        <g id="Desktop-HD-Copy-2" transform="translate(-220.000000, -344.000000)" fill="#FFFFFF" fill-rule="nonzero">
            <g id="Group-9" transform="translate(220.000000, 344.000000)">
                <path d="M92.5660848,50.4600002 L97.3665835,50.4600002 C100.49987,50.4600002 103.0399,52.99183 103.0399,56.1150002 C103.0399,59.2381705 100.49987,61.7700002 97.3665835,61.7700002 L92.5660848,61.7700002 L92.5660848,62.6384734 L108.774154,71.9754767 L129.09595,60.7022588 C132.255007,58.9498185 136.241163,60.0818383 137.99928,63.2306958 C139.757397,66.3795533 138.62171,70.3528403 135.462653,72.1052807 L111.896569,85.1782201 C109.884281,86.2945073 107.431544,86.2747106 105.437655,85.1260886 L82.7443882,72.0531492 C80.720413,70.8871952 79.4738155,68.7339019 79.4738155,66.4037698 L79.4738155,61.7700002 L74.6733167,61.7700002 C71.5400304,61.7700002 69,59.2381705 69,56.1150002 C69,52.99183 71.5400304,50.4600002 74.6733167,50.4600002 L79.4738155,50.4600002 L79.4738155,48.7200002 L74.6733167,48.7200002 C71.5400304,48.7200002 69,46.1881705 69,43.0650002 C69,39.94183 71.5400304,37.4100002 74.6733167,37.4100002 L79.4738155,37.4100002 L79.4738155,35.6700002 L74.6733167,35.6700002 C71.5400304,35.6700002 69,33.1381705 69,30.0150002 C69,26.89183 71.5400304,24.3600002 74.6733167,24.3600002 L79.4738155,24.3600002 L79.4738155,19.4237698 C79.4738155,17.0801331 80.7347809,14.9165178 82.7772655,13.755577 L105.470532,0.8568075 C107.447823,-0.267077142 109.868866,-0.286482657 111.864033,0.80556134 L135.430118,13.7043309 C138.599108,15.4388606 139.757414,19.4056547 138.017266,22.5644136 C136.277118,25.7231725 132.297475,26.8777384 129.128485,25.1432086 L108.773537,14.0020373 L92.5660848,23.2142936 L92.5660848,24.3600002 L97.3665835,24.3600002 C100.49987,24.3600002 103.0399,26.89183 103.0399,30.0150002 C103.0399,33.1381705 100.49987,35.6700002 97.3665835,35.6700002 L92.5660848,35.6700002 L92.5660848,37.4100002 L97.3665835,37.4100002 C100.49987,37.4100002 103.0399,39.94183 103.0399,43.0650002 C103.0399,46.1881705 100.49987,48.7200002 97.3665835,48.7200002 L92.5660848,48.7200002 L92.5660848,50.4600002 Z" id="Combined-Shape"></path>
                <path d="M177.996717,0.8568075 C179.974007,-0.267077142 182.395051,-0.286482657 184.390218,0.80556134 L207.956303,13.7043309 C210.050282,14.8504589 211.351621,17.0425749 211.351621,19.4237698 L211.351621,66.4037698 C211.351621,68.7716926 210.064618,70.953772 207.988838,72.1052807 L184.422753,85.1782201 C182.410465,86.2945073 179.957728,86.2747106 177.96384,85.1260886 L155.270573,72.0531492 C153.246598,70.8871952 152,68.7339019 152,66.4037698 L152,19.4237698 C152,17.0801331 153.260965,14.9165178 155.30345,13.755577 L177.996717,0.8568075 Z M165.092269,23.2142936 L165.092269,62.6384734 L181.300339,71.9754767 L198.259352,62.5677133 L198.259352,23.2847995 L181.299721,14.0020373 L165.092269,23.2142936 Z" id="Path-11"></path>
                <path d="M13.0922693,18.05 L13.0922693,69.38 L27.704534,69.38 L42.7680798,59.9648638 L42.7680798,26.9455325 L27.7853045,18.05 L13.0922693,18.05 Z M6.54613466,5 L29.5871649,5 C30.7664752,5 31.9238836,5.31755462 32.9370774,5.91910525 L52.6641269,17.6313953 C54.646088,18.8081198 55.8603491,20.9378278 55.8603491,23.23729 L55.8603491,63.5750439 C55.8603491,65.8213777 54.7011342,67.9097657 52.7918402,69.1031277 L33.0647907,81.4330837 C32.0225831,82.0844926 30.8173208,82.43 29.5871649,82.43 L6.54613466,82.43 C2.93080432,82.43 0,79.508658 0,75.905 L0,11.525 C0,7.92134201 2.93080432,5 6.54613466,5 Z" id="Path-12"></path>
                <path d="M277.234414,75.69 C277.234414,79.293658 274.30361,82.215 270.688279,82.215 C267.072949,82.215 264.142145,79.293658 264.142145,75.69 L264.142145,11.31 C264.142145,4.9554656 272.327858,2.34981894 276.022793,7.52819512 L310.079304,55.2577072 L310.079304,11.31 C310.079304,7.70634201 313.010108,4.785 316.625438,4.785 C320.240769,4.785 323.171573,7.70634201 323.171573,11.31 L323.171573,75.69 C323.171573,82.0445344 314.98586,84.6501811 311.290925,79.4718049 L277.234414,31.7422928 L277.234414,75.69 Z" id="Path-15"></path>
                <path d="M344.004988,61.0809668 L344.004988,64.6204693 L348.585968,69.6 L366.154266,69.6 L370.30336,66.101404 C372.879519,63.929137 376.734583,64.2498136 378.913886,66.8176553 C381.093189,69.3854969 380.771473,73.2281142 378.195314,75.4003812 L372.337873,80.3394886 C371.234801,81.2696205 369.836724,81.78 368.391896,81.78 L345.898934,81.78 C344.186715,81.78 342.553067,81.0638472 341.395855,79.8059569 L333.392182,71.1059569 C332.358817,69.9826874 331.785536,68.5140389 331.785536,66.99 L331.785536,44.0254834 C331.785536,42.7380433 332.194864,41.4837224 332.954735,40.4426557 L340.958408,29.4771723 C342.108176,27.9019242 343.944587,26.97 345.898934,26.97 L368.391896,26.97 C370.274693,26.97 372.052332,27.8352745 373.210062,29.3152656 L381.990236,40.539455 C382.827235,41.6094382 383.281796,42.927386 383.281796,44.2841895 L383.281796,54.9909668 C383.281796,58.3543809 380.546378,61.0809668 377.17207,61.0809668 L344.004988,61.0809668 Z M344.004988,48.9009668 L371.062344,48.9009668 L371.062344,46.3778504 L365.408325,39.15 L349.009484,39.15 L344.004988,46.0064422 L344.004988,48.9009668 Z" id="Path-16"></path>
                <path d="M403.356608,26.97 L418.194514,26.97 C421.568822,26.97 424.304239,29.6965859 424.304239,33.06 C424.304239,36.4234141 421.568822,39.15 418.194514,39.15 L403.356608,39.15 L403.356608,64.0832365 L408.437461,69.1981348 L418.194514,69.1981348 C421.568822,69.1981348 424.304239,71.9247206 424.304239,75.2881348 C424.304239,78.6515489 421.568822,81.3781348 418.194514,81.3781348 L405.888974,81.3781348 C404.258079,81.3781348 402.694875,80.7281968 401.547387,79.5730202 L392.905296,70.8730202 C391.772574,69.7327076 391.137157,68.1928469 391.137157,66.5881348 L391.137157,21.75 C391.137157,18.3865859 393.872574,15.66 397.246883,15.66 C400.621191,15.66 403.356608,18.3865859 403.356608,21.75 L403.356608,26.97 Z" id="Combined-Shape"></path>
                <path d="M472.309227,50.72899 L481.562559,64.3289857 L489.765586,50.5310699 L489.765586,33.06 C489.765586,29.6965859 492.501003,26.97 495.875312,26.97 C499.24962,26.97 501.985037,29.6965859 501.985037,33.06 L501.985037,52.2 C501.985037,53.29248 501.69021,54.3648453 501.131457,55.3046966 L487.16637,78.7946966 C484.883133,82.6352187 479.367517,82.8029172 476.853692,79.1082465 L466.25864,63.5362721 L456.531847,78.9348328 C454.097251,82.7890595 448.434902,82.7129545 446.105451,78.7946966 L432.140363,55.3046966 C431.581611,54.3648453 431.286783,53.29248 431.286783,52.2 L431.286783,33.06 C431.286783,29.6965859 434.0222,26.97 437.396509,26.97 C440.770817,26.97 443.506234,29.6965859 443.506234,33.06 L443.506234,50.5310699 L451.5196,64.0099665 L460.089776,50.4424574 L460.089776,33.06 C460.089776,29.6965859 462.825193,26.97 466.199501,26.97 C469.57381,26.97 472.309227,29.6965859 472.309227,33.06 L472.309227,50.72899 Z" id="Combined-Shape"></path>
                <path d="M528.041581,26.8000409 C529.832399,25.8611973 531.973375,25.8670019 533.759042,26.8155418 L548.499352,34.6455418 C550.49126,35.7036362 551.735661,37.7701816 551.735661,40.02 L551.735661,67.86 C551.735661,70.0551509 550.550471,72.0804357 548.633518,73.1610242 L533.199813,81.8610242 C531.2669,82.9506096 528.89308,82.9090513 526.999745,81.7524801 L512.75764,73.0524801 C510.945234,71.9453446 509.840399,69.9788183 509.840399,67.86 L509.840399,40.02 C509.840399,37.7582865 511.097866,35.6828561 513.106081,34.6300409 L528.041581,26.8000409 Z M522.05985,43.6979115 L522.05985,64.44956 L530.316746,69.4934069 L539.516209,64.3076576 L539.516209,43.6753427 L530.866822,39.080819 L522.05985,43.6979115 Z" id="Path-21"></path>
                <path d="M573.55611,75.69 C573.55611,79.0534141 570.820692,81.78 567.446384,81.78 C564.072076,81.78 561.336658,79.0534141 561.336658,75.69 L561.336658,39.7319824 C561.336658,38.0877094 562.003698,36.5133062 563.186106,35.3667636 L570.066792,28.6947812 C571.207369,27.5887997 572.735829,26.97 574.327071,26.97 L592.758105,26.97 C596.132413,26.97 598.86783,29.6965859 598.86783,33.06 C598.86783,36.4234141 596.132413,39.15 592.758105,39.15 L576.808615,39.15 L573.55611,42.3038512 L573.55611,75.69 Z" id="Path-22"></path>
                <path d="M618.942643,44.5675775 L635.411592,28.6834342 C637.836531,26.344603 641.704472,26.408061 644.050878,28.8251716 C646.397285,31.2422822 646.333622,35.0977347 643.908682,37.4365658 L628.238815,52.5500027 L644.259372,70.8110724 C646.480613,73.3429592 646.222137,77.190317 643.682049,79.4043865 C641.141962,81.6184561 637.282142,81.3608143 635.060901,78.8289276 L618.942643,60.4564934 L618.942643,75.69 C618.942643,79.0534141 616.207226,81.78 612.832918,81.78 C609.458609,81.78 606.723192,79.0534141 606.723192,75.69 L606.723192,13.92 C606.723192,10.5565859 609.458609,7.83 612.832918,7.83 C616.207226,7.83 618.942643,10.5565859 618.942643,13.92 L618.942643,44.5675775 Z" id="Combined-Shape"></path>
            </g>
        </g>
    </g>
</svg>