<?xml version="1.0" encoding="UTF-8"?>
<svg width="715px" height="273px" viewBox="0 0 715 273" version="1.1" xmlns="http://www.w3.org/2000/svg" xmlns:xlink="http://www.w3.org/1999/xlink">
    <!-- Generator: Sketch 51.2 (57519) - http://www.bohemiancoding.com/sketch -->
    <title>Group 16</title>
    <desc>Created with Sketch.</desc>
    <defs>
        <polygon id="path-1" points="0 0.0196466623 60.8128699 0.0196466623 60.8128699 60.5196467 0 60.5196467"></polygon>
    </defs>
    <g id="CODE-Network-3.0-英文" stroke="none" stroke-width="1" fill="none" fill-rule="evenodd">
        <g id="Desktop-HD-Copy-2" transform="translate(-601.000000, -2429.000000)">
            <g id="Group-16" transform="translate(601.000000, 2430.000000)">
                <g id="Group-13" transform="translate(464.000000, 12.000000)">
                    <path d="M21.073746,0 C9.54934533,0 0.216360611,9.21254902 0.216360611,20.5882353 C0.216360611,31.9639216 9.54934533,41.1764706 21.073746,41.1764706 C32.5981467,41.1764706 41.9311314,31.9639216 41.9311314,20.5882353 C41.9311314,9.21254902 32.5981467,0 21.073746,0" id="Fill-1" fill="#4434BF"></path>
                    <path d="M21.073746,6.17647059 C24.524948,6.17647059 27.3309616,8.94627451 27.3309616,12.3529412 C27.3309616,15.7705882 24.524948,18.5294118 21.073746,18.5294118 C17.622544,18.5294118 14.8165304,15.7705882 14.8165304,12.3529412 C14.8165304,8.94627451 17.622544,6.17647059 21.073746,6.17647059" id="Fill-3" fill="#FFFFFF"></path>
                    <path d="M21.073746,35.4114902 C15.8496662,35.4114902 11.2596509,32.7761961 8.55931477,28.7820784 C8.61215348,24.696 16.9120024,22.440902 21.073746,22.440902 C25.2354896,22.440902 33.5256051,24.696 33.5881772,28.7820784 C30.8878411,32.7761961 26.2978258,35.4114902 21.073746,35.4114902" id="Fill-5" fill="#FFFFFF"></path>
                    <path d="M21.073746,100.823529 C9.54934533,100.823529 0.216360611,110.036078 0.216360611,121.411765 C0.216360611,132.787451 9.54934533,142 21.073746,142 C32.5981467,142 41.9311314,132.787451 41.9311314,121.411765 C41.9311314,110.036078 32.5981467,100.823529 21.073746,100.823529" id="Fill-7" fill="#4434BF"></path>
                    <path d="M21.073746,107 C24.524948,107 27.3309616,109.769804 27.3309616,113.176471 C27.3309616,116.594118 24.524948,119.352941 21.073746,119.352941 C17.622544,119.352941 14.8165304,116.594118 14.8165304,113.176471 C14.8165304,109.769804 17.622544,107 21.073746,107" id="Fill-9" fill="#FFFFFF"></path>
                    <path d="M21.073746,136.23502 C15.8496662,136.23502 11.2596509,133.599725 8.55931477,129.605608 C8.61215348,125.519529 16.9120024,123.264431 21.073746,123.264431 C25.2354896,123.264431 33.5256051,125.519529 33.5881772,129.605608 C30.8878411,133.599725 26.2978258,136.23502 21.073746,136.23502" id="Fill-11" fill="#FFFFFF"></path>
                </g>
                <text id="Smart-Contract" font-family="PingFangSC-Regular, PingFang SC" font-size="12" font-weight="normal" fill="#FFFFFF">
                    <tspan x="114.582" y="127">Smart Contract</tspan>
                </text>
                <g id="Group-18" transform="translate(347.000000, 103.000000)" fill="#FF9900">
                    <path d="M60,30 C60,46.5694737 46.5694737,60 30,60 C13.4305263,60 0,46.5694737 0,30 C0,13.4305263 13.4305263,0 30,0 C46.5694737,0 60,13.4305263 60,30" id="Fill-14"></path>
                </g>
                <text id="CODE" font-family="PingFangSC-Semibold, PingFang SC" font-size="14" font-weight="500" fill="#FFFFFF">
                    <tspan x="356.917" y="138">CODE</tspan>
                </text>
                <path d="M411,133 L464,133" id="Stroke-19" stroke="#FFFFFF" stroke-linecap="round" stroke-dasharray="4,4"></path>
                <path d="M273.447545,133 L344,133" id="Stroke-21" stroke="#FFFFFF" stroke-linecap="round" stroke-dasharray="4,4"></path>
                <path d="M64,133 L215,133" id="Stroke-23" stroke="#FFFFFF" stroke-linecap="round" stroke-dasharray="4,4"></path>
                <g id="Group-25" opacity="0.800000012" transform="translate(143.000000, 78.000000)" fill-rule="nonzero">
                    <path d="M19.0808105,2 L23,2 C24.6568542,2 26,3.34314575 26,5 L26,31 C26,32.6568542 24.6568542,34 23,34 L3,34 C1.34314575,34 0,32.6568542 0,31 L0,5 C0,3.34314575 1.34314575,2 3,2 L6.95092773,2" id="Rectangle-10" stroke="#FFFFFF"></path>
                    <rect id="Rectangle-11" fill="#FFFFFF" x="8" y="0" width="10" height="4"></rect>
                    <path d="M4,9 L22,9" id="Path-3" stroke="#FFFFFF" stroke-linecap="round" stroke-linejoin="round"></path>
                    <path d="M4,15 L16,15" id="Path-3-Copy" stroke="#FFFFFF" stroke-linecap="round" stroke-linejoin="round"></path>
                    <path d="M4,21 L16,21" id="Path-3-Copy-2" stroke="#FFFFFF" stroke-linecap="round" stroke-linejoin="round"></path>
                    <path d="M4,28 L16,28" id="Path-3-Copy-3" stroke="#FFFFFF" stroke-linecap="round" stroke-linejoin="round"></path>
                    <path d="M25,31.651962 L30.8873686,28.1878002 L25,36.4301163 L19.1126314,28.1878002 L25,31.651962 Z M25,31.292258 L19.653277,28.0547927 L25,19.5294673 L30.346723,28.0547927 L25,31.292258 Z" id="Shape" stroke="#5C64D6" stroke-width="0.5" fill="#FFFFFF"></path>
                </g>
                <g id="Group-20-Copy" transform="translate(229.000000, 16.000000)" fill-rule="nonzero">
                    <path d="M20.2740384,23.1345737 L37.2781616,32.9790661 C37.7561234,33.2557808 37.9192664,33.8675669 37.6425517,34.3455287 C37.5550082,34.4967402 37.4293732,34.6223752 37.2781616,34.7099187 L20.2740384,44.5544111 C19.964104,44.7338468 19.5818763,44.7338424 19.271946,44.5543996 L2.26872405,34.7099072 C1.79076867,34.4331815 1.62763976,33.8213916 1.90436544,33.3434362 C1.99190462,33.1922402 2.11752803,33.0666168 2.26872405,32.9790776 L19.271946,23.1345852 C19.5818763,22.9551424 19.964104,22.955138 20.2740384,23.1345737 Z M19.0003715,46.8001253 L19.0000301,66.487095 C19.0000205,67.0393797 18.5522975,67.4870872 18.0000127,67.4870776 C17.8241066,67.4870746 17.6513136,67.4406707 17.4990719,67.3525491 L0.499041817,57.5124744 C0.190180826,57.3336973 5.15143483e-14,57.0038731 4.79616347e-14,56.6470029 L-2.39808173e-13,36.9559374 C-2.46913601e-13,36.4036526 0.44771525,35.9559374 1,35.9559374 C1.17597024,35.9559374 1.34882473,36.002372 1.50110681,36.0905519 L18.5014783,45.9347225 C18.8102608,46.113525 19.0003777,46.4433103 19.0003715,46.8001253 Z M20.5479325,46.8001253 C20.5479263,46.4433103 20.7380431,46.113525 21.0468256,45.9347225 L38.0471971,36.0905519 C38.1994792,36.002372 38.3723337,35.9559374 38.5483039,35.9559374 C39.1005887,35.9559374 39.5483039,36.4036526 39.5483039,36.9559374 L39.5483039,56.6470029 C39.5483039,57.0038731 39.3581231,57.3336973 39.0492621,57.5124744 L22.049232,67.3525491 C21.8969903,67.4406707 21.7241973,67.4870746 21.5482912,67.4870776 C20.9960064,67.4870872 20.5482834,67.0393797 20.5482739,66.487095 L20.5479325,46.8001253 Z" id="Combined-Shape" fill="#9DA2E6"></path>
                    <path d="M20.2740384,94.1345737 L37.2781616,103.979066 C37.7561234,104.255781 37.9192664,104.867567 37.6425517,105.345529 C37.5550082,105.49674 37.4293732,105.622375 37.2781616,105.709919 L20.2740384,115.554411 C19.964104,115.733847 19.5818763,115.733842 19.271946,115.5544 L2.26872405,105.709907 C1.79076867,105.433181 1.62763976,104.821392 1.90436544,104.343436 C1.99190462,104.19224 2.11752803,104.066617 2.26872405,103.979078 L19.271946,94.1345852 C19.5818763,93.9551424 19.964104,93.955138 20.2740384,94.1345737 Z M19.0003715,117.800125 L19.0000301,137.487095 C19.0000205,138.03938 18.5522975,138.487087 18.0000127,138.487078 C17.8241066,138.487075 17.6513136,138.440671 17.4990719,138.352549 L0.499041817,128.512474 C0.190180826,128.333697 5.15143483e-14,128.003873 4.79616347e-14,127.647003 L-2.39808173e-13,107.955937 C-2.46913601e-13,107.403653 0.44771525,106.955937 1,106.955937 C1.17597024,106.955937 1.34882473,107.002372 1.50110681,107.090552 L18.5014783,116.934723 C18.8102608,117.113525 19.0003777,117.44331 19.0003715,117.800125 Z M20.5479325,117.800125 C20.5479263,117.44331 20.7380431,117.113525 21.0468256,116.934723 L38.0471971,107.090552 C38.1994792,107.002372 38.3723337,106.955937 38.5483039,106.955937 C39.1005887,106.955937 39.5483039,107.403653 39.5483039,107.955937 L39.5483039,127.647003 C39.5483039,128.003873 39.3581231,128.333697 39.0492621,128.512474 L22.049232,138.352549 C21.8969903,138.440671 21.7241973,138.487075 21.5482912,138.487078 C20.9960064,138.487087 20.5482834,138.03938 20.5482739,137.487095 L20.5479325,117.800125 Z" id="Combined-Shape-Copy" fill="#9DA2E6"></path>
                    <path d="M20.2740384,164.134574 L37.2781616,173.979066 C37.7561234,174.255781 37.9192664,174.867567 37.6425517,175.345529 C37.5550082,175.49674 37.4293732,175.622375 37.2781616,175.709919 L20.2740384,185.554411 C19.964104,185.733847 19.5818763,185.733842 19.271946,185.5544 L2.26872405,175.709907 C1.79076867,175.433181 1.62763976,174.821392 1.90436544,174.343436 C1.99190462,174.19224 2.11752803,174.066617 2.26872405,173.979078 L19.271946,164.134585 C19.5818763,163.955142 19.964104,163.955138 20.2740384,164.134574 Z M19.0003715,187.800125 L19.0000301,207.487095 C19.0000205,208.03938 18.5522975,208.487087 18.0000127,208.487078 C17.8241066,208.487075 17.6513136,208.440671 17.4990719,208.352549 L0.499041817,198.512474 C0.190180826,198.333697 5.15143483e-14,198.003873 4.79616347e-14,197.647003 L-2.39808173e-13,177.955937 C-2.46913601e-13,177.403653 0.44771525,176.955937 1,176.955937 C1.17597024,176.955937 1.34882473,177.002372 1.50110681,177.090552 L18.5014783,186.934723 C18.8102608,187.113525 19.0003777,187.44331 19.0003715,187.800125 Z M20.5479325,187.800125 C20.5479263,187.44331 20.7380431,187.113525 21.0468256,186.934723 L38.0471971,177.090552 C38.1994792,177.002372 38.3723337,176.955937 38.5483039,176.955937 C39.1005887,176.955937 39.5483039,177.403653 39.5483039,177.955937 L39.5483039,197.647003 C39.5483039,198.003873 39.3581231,198.333697 39.0492621,198.512474 L22.049232,208.352549 C21.8969903,208.440671 21.7241973,208.487075 21.5482912,208.487078 C20.9960064,208.487087 20.5482834,208.03938 20.5482739,207.487095 L20.5479325,187.800125 Z" id="Combined-Shape-Copy-2" fill="#9DA2E6"></path>
                    <path d="M20.25,71 L20.25,91" id="Path-2" stroke="#9DA2E6" stroke-width="2" stroke-linecap="round" stroke-linejoin="round"></path>
                    <path d="M20.25,0 L20.25,20" id="Path-2-Copy-2" stroke="#9DA2E6" stroke-width="2" stroke-linecap="round" stroke-linejoin="round"></path>
                    <path d="M20.25,142 L20.25,162" id="Path-2-Copy" stroke="#9DA2E6" stroke-width="2" stroke-linecap="round" stroke-linejoin="round"></path>
                    <path d="M20.25,212 L20.25,232" id="Path-2-Copy-3" stroke="#9DA2E6" stroke-width="2" stroke-linecap="round" stroke-linejoin="round"></path>
                </g>
                <g id="Group-74" transform="translate(0.000000, 10.000000)">
                    <mask id="mask-2" fill="white">
                        <use xlink:href="#path-1"></use>
                    </mask>
                    <g id="Clip-73"></g>
                    <path d="M60.8128699,30.2696467 C60.8128699,46.9758967 47.1990488,60.5196467 30.4063659,60.5196467 C13.6136829,60.5196467 -0.000138211382,46.9758967 -0.000138211382,30.2696467 C-0.000138211382,13.5633967 13.6136829,0.0196466623 30.4063659,0.0196466623 C47.1990488,0.0196466623 60.8128699,13.5633967 60.8128699,30.2696467" id="Fill-72" fill="#5FD448" mask="url(#mask-2)"></path>
                </g>
                <text id="DCO" font-family="PingFangSC-Regular, PingFang SC" font-size="16" font-weight="normal" fill="#FFFFFF">
                    <tspan x="13" y="45">DCO</tspan>
                </text>
                <path d="M60,135 C60,151.568182 46.5681818,165 30,165 C13.4318182,165 0,151.568182 0,135 C0,118.431818 13.4318182,105 30,105 C46.5681818,105 60,118.431818 60,135" id="Fill-76" fill="#5FD448"></path>
                <text id="DCO" font-family="PingFangSC-Regular, PingFang SC" font-size="16" font-weight="normal" fill="#FFFFFF">
                    <tspan x="13" y="140">DCO</tspan>
                </text>
                <path d="M60,231 C60,247.566818 46.5681818,261 30,261 C13.4318182,261 0,247.566818 0,231 C0,214.431818 13.4318182,201 30,201 C46.5681818,201 60,214.431818 60,231" id="Fill-78" fill="#5FD448"></path>
                <text id="DCO" font-family="PingFangSC-Regular, PingFang SC" font-size="16" font-weight="normal" fill="#FFFFFF">
                    <tspan x="13" y="236">DCO</tspan>
                </text>
                <path d="M63,38 L97,38 L97,128" id="Stroke-80" stroke="#FFFFFF" stroke-linecap="round" stroke-dasharray="4,4"></path>
                <path d="M63,229 L97,229 L97,139" id="Stroke-82" stroke="#FFFFFF" stroke-linecap="round" stroke-dasharray="4,4"></path>
                <g id="Group-90" transform="translate(482.000000, 55.000000)">
                    <path d="M2.98173096,8.25 L2.98173096,46.75" id="Stroke-84" stroke="#FFFFFF" stroke-linecap="round" stroke-linejoin="round" stroke-dasharray="4,4"></path>
                    <path d="M5.74822843,2.75 C5.74822843,4.268 4.50883756,5.5 2.98173096,5.5 C1.45462437,5.5 0.215233503,4.268 0.215233503,2.75 C0.215233503,1.232 1.45462437,0 2.98173096,0 C4.50883756,0 5.74822843,1.232 5.74822843,2.75" id="Fill-86" fill="#FFFFFF"></path>
                    <path d="M5.74822843,52.25 C5.74822843,53.768 4.50883756,55 2.98173096,55 C1.45462437,55 0.215233503,53.768 0.215233503,52.25 C0.215233503,50.732 1.45462437,49.5 2.98173096,49.5 C4.50883756,49.5 5.74822843,50.732 5.74822843,52.25" id="Fill-88" fill="#FFFFFF"></path>
                </g>
                <g id="Group-97" transform="translate(509.000000, 33.000000)">
                    <path d="M36.1797005,2.75 L8.51472589,2.75" id="Stroke-91" stroke="#FFFFFF" stroke-linecap="round" stroke-linejoin="round" stroke-dasharray="4,4"></path>
                    <path d="M43.0959442,5.5 C41.5688376,5.5 40.3294467,4.268 40.3294467,2.75 C40.3294467,1.232 41.5688376,0 43.0959442,0 C44.6230508,0 45.8624416,1.232 45.8624416,2.75 C45.8624416,4.268 44.6230508,5.5 43.0959442,5.5" id="Fill-93" fill="#FFFFFF"></path>
                    <path d="M2.98173096,5.5 C1.45462437,5.5 0.215233503,4.268 0.215233503,2.75 C0.215233503,1.232 1.45462437,0 2.98173096,0 C4.50883756,0 5.74822843,1.232 5.74822843,2.75 C5.74822843,4.268 4.50883756,5.5 2.98173096,5.5" id="Fill-95" fill="#FFFFFF"></path>
                </g>
                <g id="Group-104" transform="translate(509.000000, 131.000000)">
                    <path d="M36.1797005,2.75 L8.51472589,2.75" id="Stroke-98" stroke="#FFFFFF" stroke-linecap="round" stroke-linejoin="round" stroke-dasharray="4,4"></path>
                    <path d="M43.0959442,5.5 C41.5688376,5.5 40.3294467,4.268 40.3294467,2.75 C40.3294467,1.232 41.5688376,0 43.0959442,0 C44.6230508,0 45.8624416,1.232 45.8624416,2.75 C45.8624416,4.268 44.6230508,5.5 43.0959442,5.5" id="Fill-100" fill="#FFFFFF"></path>
                    <path d="M2.98173096,5.5 C1.45462437,5.5 0.215233503,4.268 0.215233503,2.75 C0.215233503,1.232 1.45462437,0 2.98173096,0 C4.50883756,0 5.74822843,1.232 5.74822843,2.75 C5.74822843,4.268 4.50883756,5.5 2.98173096,5.5" id="Fill-102" fill="#FFFFFF"></path>
                </g>
                <g id="Group-111" transform="translate(509.000000, 230.000000)">
                    <path d="M36.1797005,2.75 L8.51472589,2.75" id="Stroke-105" stroke="#FFFFFF" stroke-linecap="round" stroke-linejoin="round" stroke-dasharray="4,4"></path>
                    <path d="M43.0959442,5.5 C41.5688376,5.5 40.3294467,4.268 40.3294467,2.75 C40.3294467,1.232 41.5688376,0 43.0959442,0 C44.6230508,0 45.8624416,1.232 45.8624416,2.75 C45.8624416,4.268 44.6230508,5.5 43.0959442,5.5" id="Fill-107" fill="#FFFFFF"></path>
                    <path d="M2.98173096,5.5 C1.45462437,5.5 0.215233503,4.268 0.215233503,2.75 C0.215233503,1.232 1.45462437,0 2.98173096,0 C4.50883756,0 5.74822843,1.232 5.74822843,2.75 C5.74822843,4.268 4.50883756,5.5 2.98173096,5.5" id="Fill-109" fill="#FFFFFF"></path>
                </g>
                <path d="M484.5,215 C473.173067,215 464,224.174433 464,235.5 C464,246.825567 473.173067,256 484.5,256 C495.826933,256 505,246.825567 505,235.5 C505,224.174433 495.826933,215 484.5,215" id="Fill-112" fill="#4434BF"></path>
                <path d="M484,221 C487.309333,221 490,223.690667 490,227 C490,230.32 487.309333,233 484,233 C480.690667,233 478,230.32 478,227 C478,223.690667 480.690667,221 484,221" id="Fill-114" fill="#FFFFFF"></path>
                <path d="M484.5,250 C479.281944,250 474.697222,247.35873 472,243.355556 C472.052778,239.258836 480.343056,237 484.5,237 C488.656944,237 496.9375,239.258836 497,243.355556 C494.302778,247.35873 489.718056,250 484.5,250" id="Fill-116" fill="#FFFFFF"></path>
                <g id="Group-124" transform="translate(482.000000, 156.000000)">
                    <path d="M2.98173096,8.25 L2.98173096,46.75" id="Stroke-118" stroke="#FFFFFF" stroke-linecap="round" stroke-linejoin="round" stroke-dasharray="4,4"></path>
                    <path d="M5.74822843,2.75 C5.74822843,4.268 4.50883756,5.5 2.98173096,5.5 C1.45462437,5.5 0.215233503,4.268 0.215233503,2.75 C0.215233503,1.232 1.45462437,0 2.98173096,0 C4.50883756,0 5.74822843,1.232 5.74822843,2.75" id="Fill-120" fill="#FFFFFF"></path>
                    <path d="M5.74822843,52.25 C5.74822843,53.768 4.50883756,55 2.98173096,55 C1.45462437,55 0.215233503,53.768 0.215233503,52.25 C0.215233503,50.732 1.45462437,49.5 2.98173096,49.5 C4.50883756,49.5 5.74822843,50.732 5.74822843,52.25" id="Fill-122" fill="#FFFFFF"></path>
                </g>
                <path d="M218,136 C216.344,136 215,134.88 215,133.5 C215,132.12 216.344,131 218,131 C219.656,131 221,132.12 221,133.5 C221,134.88 219.656,136 218,136" id="Fill-125" fill="#FFFFFF"></path>
                <text id="DCO-NETWORK" font-family="PingFangSC-Regular, PingFang SC" font-size="15" font-weight="normal" fill="#FFFFFF">
                    <tspan x="581.21" y="30">DCO NETWORK</tspan>
                </text>
                <text id="Exchange" font-family="PingFangSC-Regular, PingFang SC" font-size="13" font-weight="normal" fill="#FFFFFF">
                    <tspan x="610.1655" y="102">Exchange</tspan>
                </text>
                <text id="Network-Service" font-family="PingFangSC-Regular, PingFang SC" font-size="13" font-weight="normal" fill="#FFFFFF">
                    <tspan x="589.1715" y="140">Network Service</tspan>
                </text>
                <text id="Traﬃc-Platform" font-family="PingFangSC-Regular, PingFang SC" font-size="13" font-weight="normal" fill="#FFFFFF">
                    <tspan x="591.459" y="178">Traﬃc Platform</tspan>
                </text>
                <text id="…" font-family="PingFangSC-Semibold, PingFang SC" font-size="13" font-weight="500" letter-spacing="1" fill="#FFFFFF">
                    <tspan x="632" y="217">…</tspan>
                </text>
                <path d="M699.715954,271 L577.284046,271 C569.394642,271 563,264.617673 563,256.743464 L563,14.2565357 C563,6.38232653 569.394642,0 577.284046,0 L699.715954,0 C707.603972,0 714,6.38232653 714,14.2565357 L714,256.743464 C714,264.617673 707.603972,271 699.715954,271 Z" id="Stroke-128" stroke="#FFFFFF"></path>
                <path d="M563,51 L714,51" id="Stroke-130" stroke="#FFFFFF"></path>
            </g>
        </g>
    </g>
</svg>