<?xml version="1.0" encoding="utf-8"?>
<!-- Generator: Adobe Illustrator 21.0.0, SVG Export Plug-In . SVG Version: 6.00 Build 0)  -->
<svg version="1.1" id="图层_1" xmlns="http://www.w3.org/2000/svg" xmlns:xlink="http://www.w3.org/1999/xlink" x="0px" y="0px"
	 viewBox="0 0 1000 618" style="enable-background:new 0 0 1000 618;" xml:space="preserve">
<style type="text/css">
	.st0{fill:#FFFFFF;}
	.st1{fill:#F5FBFF;}
	.st2{font-family:'Roboto-Regular';}
	.st3{font-size:20px;}
	.st4{opacity:0.4;filter:url(#filter-1);enable-background:new    ;}
	.st5{fill:#91BBFF;}
	.st6{fill:none;stroke:#0074FF;stroke-width:3;}
	.st7{opacity:0.1;filter:url(#filter-2);enable-background:new    ;}
	.st8{fill:#3372CD;}
	.st9{fill:none;stroke:#3372CD;}
	.st10{font-family:'Roboto-Medium';}
	.st11{font-size:14px;}
	.st12{fill:#79C760;}
	.st13{font-size:10px;}
	.st14{fill:#558945;}
	.st15{opacity:0.8;fill:#79C760;enable-background:new    ;}
	.st16{fill:none;stroke:#79C760;stroke-linecap:round;stroke-linejoin:round;}
	
		.st17{opacity:0.4;fill:none;stroke:#79C760;stroke-linecap:round;stroke-linejoin:round;stroke-dasharray:4;enable-background:new    ;}
	
		.st18{opacity:0.4;fill:none;stroke:#70E74A;stroke-linecap:round;stroke-linejoin:round;stroke-dasharray:4;enable-background:new    ;}
	.st19{font-size:16px;}
	.st20{fill:url(#Path-4_1_);}
	.st21{fill:url(#Path-4-Copy_1_);}
	.st22{opacity:0.7;fill:url(#Path-4-Copy-2_1_);enable-background:new    ;}
	.st23{opacity:0.4;fill:url(#Path-4-Copy-3_1_);enable-background:new    ;}
	.st24{opacity:0.2;fill:url(#Path-4-Copy-4_1_);enable-background:new    ;}
	.st25{fill:#AED8A1;}
	.st26{font-size:18px;}
	.st27{fill:#DEB846;}
</style>
<filter  filterUnits="objectBoundingBox" height="250.8%" id="filter-2" width="250.8%" x="-75.4%" y="-75.4%">
	<feGaussianBlur  in="SourceGraphic" stdDeviation="50"></feGaussianBlur>
</filter>
<filter  filterUnits="objectBoundingBox" height="331.8%" id="filter-1" width="331.8%" x="-115.9%" y="-115.9%">
	<feGaussianBlur  in="SourceGraphic" stdDeviation="50"></feGaussianBlur>
</filter>
<path id="Path-9-Copy" class="st0" d="M803.8,118.5l4.5-9h-9L803.8,118.5z M803.3,68v42h1V68H803.3z"/>
<text transform="matrix(1 0 0 1 87.0025 375.9999)" class="st1 st2 st3">Centralized Organization</text>
<text transform="matrix(1 0 0 1 584.2968 375.9999)" class="st1 st2 st3">Distributed Collaborative Organization</text>
<g id="Oval-3" class="st4">
	<circle class="st5" cx="180" cy="159" r="67.5"/>
	<circle class="st6" cx="180" cy="159" r="67.5"/>
</g>
<g id="Oval-3-Copy" class="st7">
	<circle class="st5" cx="749.5" cy="207.5" r="99.5"/>
</g>
<circle id="Oval-3_1_" class="st8" cx="179.5" cy="158.5" r="52.5"/>
<circle id="Oval-3_2_" class="st9" cx="179.5" cy="158.5" r="61"/>
<circle id="Oval-7-Copy-2" class="st8" cx="59" cy="517" r="23"/>
<text transform="matrix(1 0 0 1 41.2957 521.9999)" class="st0 st10 st11">CORP</text>
<circle id="Oval-6-Copy-2" class="st12" cx="20" cy="586" r="17"/>
<circle id="Oval-6-Copy-4" class="st12" cx="161" cy="586" r="17"/>
<circle id="Oval-6-Copy-6" class="st12" cx="306" cy="586" r="17"/>
<circle id="Oval-6-Copy-3" class="st12" cx="98" cy="586" r="17"/>
<circle id="Oval-6-Copy-5" class="st12" cx="239" cy="586" r="17"/>
<circle id="Oval-6-Copy-7" class="st12" cx="384" cy="586" r="17"/>
<polygon id="Polygon-2-Copy-5" class="st12" points="557.9,569 573.7,578.2 573.7,596.5 557.9,605.6 542,596.5 542,578.2 "/>
<polygon id="Polygon-2-Copy-6" class="st12" points="637.9,569 653.7,578.2 653.7,596.5 637.9,605.6 622,596.5 622,578.2 "/>
<polygon id="Polygon-2-Copy-7" class="st12" points="715.9,569 731.7,578.2 731.7,596.5 715.9,605.6 700,596.5 700,578.2 "/>
<polygon id="Polygon-2-Copy-8" class="st12" points="793.9,569 809.7,578.2 809.7,596.5 793.9,605.6 778,596.5 778,578.2 "/>
<polygon id="Polygon-2-Copy-9" class="st12" points="871.9,569 887.7,578.2 887.7,596.5 871.9,605.6 856,596.5 856,578.2 "/>
<polygon id="Polygon-2-Copy-10" class="st12" points="949.9,569 965.7,578.2 965.7,596.5 949.9,605.6 934,596.5 934,578.2 "/>
<text transform="matrix(1 0 0 1 16.1121 590.9999)" class="st0 st10 st11">E</text>
<text transform="matrix(1 0 0 1 158.9749 590.9999)" class="st0 st10 st11">I</text>
<text transform="matrix(1 0 0 1 302 590.9999)" class="st0 st10 st11">V</text>
<text transform="matrix(1 0 0 1 94.1121 590.9999)" class="st0 st10 st11">E</text>
<text transform="matrix(1 0 0 1 236.9749 590.9999)" class="st0 st10 st11">I</text>
<text transform="matrix(1 0 0 1 380 590.9999)" class="st0 st10 st11">V</text>
<text transform="matrix(1 0 0 1 554 591.9999)" class="st0 st10 st11">P</text>
<text transform="matrix(1 0 0 1 634 591.9999)" class="st0 st10 st11">P</text>
<text transform="matrix(1 0 0 1 711 591.9999)" class="st0 st10 st11">P</text>
<text transform="matrix(1 0 0 1 790 591.9999)" class="st0 st10 st11">P</text>
<text transform="matrix(1 0 0 1 869 591.9999)" class="st0 st10 st11">P</text>
<text transform="matrix(1 0 0 1 948 591.9999)" class="st0 st10 st11">P</text>
<text transform="matrix(1 0 0 1 529.9925 615.9999)" class="st12 st10 st13">Participator</text>
<text transform="matrix(1 0 0 1 844.9925 615.9999)" class="st12 st10 st13">Participator</text>
<text transform="matrix(1 0 0 1 687.9925 615.9999)" class="st12 st10 st13">Participator</text>
<circle id="Oval-7" class="st8" cx="199" cy="517" r="23"/>
<circle id="Oval-7-Copy" class="st8" cx="345" cy="517" r="23"/>
<polygon id="Polygon" class="st8" points="599.4,429 619.7,440.7 619.7,464.2 599.4,476 579,464.2 579,440.7 "/>
<polygon id="Polygon-Copy" class="st8" points="753.4,429 773.7,440.7 773.7,464.2 753.4,476 733,464.2 733,440.7 "/>
<polygon id="Polygon-Copy-2" class="st8" points="908.4,429 928.7,440.7 928.7,464.2 908.4,476 888,464.2 888,440.7 "/>
<circle id="Oval-6" class="st12" cx="162" cy="446" r="17"/>
<circle id="Oval-6-Copy" class="st12" cx="239" cy="446" r="17"/>
<text transform="matrix(1 0 0 1 -0.3536 615.9999)" class="st12 st10 st13">Employee</text>
<text transform="matrix(1 0 0 1 183.2538 521.9999)" class="st0 st10 st11">Fund</text>
<text transform="matrix(1 0 0 1 140.848 615.9999)" class="st12 st10 st13">Income</text>
<text transform="matrix(1 0 0 1 284.0786 615.9999)" class="st12 st10 st13">volunteer</text>
<text transform="matrix(1 0 0 1 298.0005 266.9999)" class="st12 st10 st11">Participator</text>
<text transform="matrix(1 0 0 1 26.0005 95)" class="st12 st10 st11">Participator</text>
<text transform="matrix(1 0 0 1 806.0005 336.9999)" class="st12 st10 st11">Participator</text>
<text transform="matrix(1 0 0 1 631.0005 336.9999)" class="st12 st10 st11">Participator</text>
<polygon id="Polygon-Copy-3" class="st12" points="671.4,249 700.8,266.2 700.8,300.7 671.4,318 642,300.7 642,266.2 "/>
<polygon id="Polygon-Copy-47" class="st12" points="756.4,122 785.8,139.2 785.8,173.7 756.4,191 727,173.7 727,139.2 "/>
<polygon id="Polygon-Copy-4" class="st12" points="840.4,249 869.8,266.2 869.8,300.7 840.4,318 811,300.7 811,266.2 "/>
<path id="Path-2" class="st12" d="M300.5,205l-5.8-6.7c-0.2-0.2-0.5-0.2-0.8-0.1c-0.1,0.1-0.1,0.1-0.1,0.2l-3,7.3
	c-0.1,0.3,0,0.6,0.3,0.7c0.1,0,0.2,0,0.2,0l8.8-0.6c0.3,0,0.5-0.3,0.5-0.6C300.6,205.2,300.5,205.1,300.5,205z M239.4,179.8
	c-0.1,0-0.2,0.1-0.3,0.1c-0.2,0.2-0.2,0.5-0.1,0.8l5.8,6.7c0.1,0.1,0.1,0.1,0.2,0.1c0.3,0.1,0.6,0,0.7-0.3l3-7.3c0-0.1,0-0.2,0-0.2
	c0-0.3-0.3-0.5-0.6-0.5L239.4,179.8z M292.9,201.9l-0.9-0.4c-0.3-0.1-0.5,0-0.7,0.3c-0.1,0.3,0,0.5,0.3,0.7l0.9,0.4
	c0.3,0.1,0.5,0,0.7-0.3C293.3,202.3,293.2,202,292.9,201.9z M289.2,200.3l-0.9-0.4c-0.3-0.1-0.5,0-0.7,0.3c-0.1,0.3,0,0.5,0.3,0.7
	l0.9,0.4c0.3,0.1,0.5,0,0.7-0.3C289.6,200.7,289.5,200.4,289.2,200.3z M285.6,198.8l-0.9-0.4c-0.3-0.1-0.5,0-0.7,0.3
	c-0.1,0.3,0,0.5,0.3,0.7l0.9,0.4c0.3,0.1,0.5,0,0.7-0.3C285.9,199.2,285.8,198.9,285.6,198.8z M281.9,197.3l-0.9-0.4
	c-0.3-0.1-0.5,0-0.7,0.3c-0.1,0.3,0,0.5,0.3,0.7l0.9,0.4c0.3,0.1,0.5,0,0.7-0.3C282.2,197.7,282.1,197.4,281.9,197.3z M278.2,195.7
	l-0.9-0.4c-0.3-0.1-0.5,0-0.7,0.3c-0.1,0.3,0,0.5,0.3,0.7l0.9,0.4c0.3,0.1,0.5,0,0.7-0.3C278.5,196.1,278.4,195.9,278.2,195.7z
	 M274.5,194.2l-0.9-0.4c-0.3-0.1-0.5,0-0.7,0.3c-0.1,0.3,0,0.5,0.3,0.7l0.9,0.4c0.3,0.1,0.5,0,0.7-0.3
	C274.8,194.6,274.7,194.3,274.5,194.2z M270.8,192.7l-0.9-0.4c-0.3-0.1-0.5,0-0.7,0.3c-0.1,0.3,0,0.5,0.3,0.7l0.9,0.4
	c0.3,0.1,0.5,0,0.7-0.3C271.1,193.1,271,192.8,270.8,192.7z M267.1,191.2l-0.9-0.4c-0.3-0.1-0.5,0-0.7,0.3c-0.1,0.3,0,0.5,0.3,0.7
	l0.9,0.4c0.3,0.1,0.5,0,0.7-0.3C267.4,191.6,267.3,191.3,267.1,191.2z M263.4,189.6l-0.9-0.4c-0.3-0.1-0.5,0-0.7,0.3
	c-0.1,0.3,0,0.5,0.3,0.7l0.9,0.4c0.3,0.1,0.5,0,0.7-0.3C263.7,190,263.6,189.7,263.4,189.6z M259.7,188.1l-0.9-0.4
	c-0.3-0.1-0.5,0-0.7,0.3c-0.1,0.3,0,0.5,0.3,0.7l0.9,0.4c0.3,0.1,0.5,0,0.7-0.3C260.1,188.5,259.9,188.2,259.7,188.1z M256,186.6
	l-0.9-0.4c-0.3-0.1-0.5,0-0.7,0.3s0,0.5,0.3,0.7l0.9,0.4c0.3,0.1,0.5,0,0.7-0.3C256.4,187,256.2,186.7,256,186.6z M252.3,185.1
	l-0.9-0.4c-0.3-0.1-0.5,0-0.7,0.3c-0.1,0.3,0,0.5,0.3,0.7l0.9,0.4c0.3,0.1,0.5,0,0.7-0.3C252.7,185.5,252.5,185.2,252.3,185.1z
	 M248.6,183.5l-0.9-0.4c-0.3-0.1-0.5,0-0.7,0.3c-0.1,0.3,0,0.5,0.3,0.7l0.9,0.4c0.3,0.1,0.5,0,0.7-0.3
	C249,183.9,248.8,183.6,248.6,183.5z"/>
<path id="Path-2-Copy" class="st12" d="M132.9,116.1l-2.6-8.5c-0.1-0.3-0.4-0.4-0.7-0.4c-0.1,0-0.2,0.1-0.2,0.1l-5.7,5.5
	c-0.2,0.2-0.2,0.5,0,0.8c0.1,0.1,0.1,0.1,0.2,0.1l8.4,3c0.3,0.1,0.6,0,0.7-0.3C133,116.3,133,116.2,132.9,116.1z M87.2,68.5
	c-0.1,0-0.2,0-0.3,0c-0.3,0.1-0.4,0.4-0.4,0.7l2.6,8.5c0,0.1,0.1,0.2,0.1,0.2c0.2,0.2,0.5,0.2,0.8,0l5.7-5.5
	c0.1-0.1,0.1-0.1,0.1-0.2c0.1-0.3,0-0.6-0.3-0.7L87.2,68.5z M127.3,110.2l-0.7-0.7c-0.2-0.2-0.5-0.2-0.7,0s-0.2,0.5,0,0.7l0.7,0.7
	c0.2,0.2,0.5,0.2,0.7,0C127.5,110.7,127.5,110.4,127.3,110.2z M124.5,107.3l-0.7-0.7c-0.2-0.2-0.5-0.2-0.7,0s-0.2,0.5,0,0.7l0.7,0.7
	c0.2,0.2,0.5,0.2,0.7,0C124.7,107.8,124.7,107.5,124.5,107.3z M121.7,104.4l-0.7-0.7c-0.2-0.2-0.5-0.2-0.7,0c-0.2,0.2-0.2,0.5,0,0.7
	l0.7,0.7c0.2,0.2,0.5,0.2,0.7,0C121.9,104.9,121.9,104.6,121.7,104.4z M119,101.5l-0.7-0.7c-0.2-0.2-0.5-0.2-0.7,0s-0.2,0.5,0,0.7
	l0.7,0.7c0.2,0.2,0.5,0.2,0.7,0C119.1,102,119.1,101.7,119,101.5z M116.2,98.6l-0.7-0.7c-0.2-0.2-0.5-0.2-0.7,0s-0.2,0.5,0,0.7
	l0.7,0.7c0.2,0.2,0.5,0.2,0.7,0C116.4,99.1,116.4,98.8,116.2,98.6z M113.4,95.7l-0.7-0.7c-0.2-0.2-0.5-0.2-0.7,0
	c-0.2,0.2-0.2,0.5,0,0.7l0.7,0.7c0.2,0.2,0.5,0.2,0.7,0C113.6,96.3,113.6,95.9,113.4,95.7z M110.6,92.9l-0.7-0.7
	c-0.2-0.2-0.5-0.2-0.7,0c-0.2,0.2-0.2,0.5,0,0.7l0.7,0.7c0.2,0.2,0.5,0.2,0.7,0S110.8,93.1,110.6,92.9z M107.9,90l-0.7-0.7
	c-0.2-0.2-0.5-0.2-0.7,0c-0.2,0.2-0.2,0.5,0,0.7l0.7,0.7c0.2,0.2,0.5,0.2,0.7,0S108.1,90.2,107.9,90z M105.1,87.1l-0.7-0.7
	c-0.2-0.2-0.5-0.2-0.7,0c-0.2,0.2-0.2,0.5,0,0.7l0.7,0.7c0.2,0.2,0.5,0.2,0.7,0C105.3,87.6,105.3,87.3,105.1,87.1z M102.3,84.2
	l-0.7-0.7c-0.2-0.2-0.5-0.2-0.7,0c-0.2,0.2-0.2,0.5,0,0.7l0.7,0.7c0.2,0.2,0.5,0.2,0.7,0S102.5,84.4,102.3,84.2z M99.5,81.3
	l-0.7-0.7c-0.2-0.2-0.5-0.2-0.7,0c-0.2,0.2-0.2,0.5,0,0.7l0.7,0.7c0.2,0.2,0.5,0.2,0.7,0S99.7,81.5,99.5,81.3z M96.8,78.4l-0.7-0.7
	c-0.2-0.2-0.5-0.2-0.7,0c-0.2,0.2-0.2,0.5,0,0.7l0.7,0.7c0.2,0.2,0.5,0.2,0.7,0C97,79,97,78.6,96.8,78.4z M94,75.6l-0.7-0.7
	c-0.2-0.2-0.5-0.2-0.7,0c-0.2,0.2-0.2,0.5,0,0.7l0.7,0.7c0.2,0.2,0.5,0.2,0.7,0C94.2,76.1,94.2,75.8,94,75.6z"/>
<path id="Path-2-Copy-4" class="st14" d="M119,177.9l-8.9-0.2c-0.3,0-0.5,0.2-0.5,0.5c0,0.1,0,0.2,0.1,0.2l3.4,7.2
	c0.1,0.3,0.4,0.4,0.7,0.3c0.1,0,0.1-0.1,0.2-0.2l5.5-7c0.2-0.2,0.1-0.6-0.1-0.8C119.3,178,119.2,177.9,119,177.9z M40.6,214.7
	c-0.1,0.1-0.1,0.2-0.1,0.3c0,0.3,0.2,0.5,0.5,0.5l8.9,0.2c0.1,0,0.2,0,0.2-0.1c0.3-0.1,0.4-0.4,0.3-0.7l-3.4-7.2
	c0-0.1-0.1-0.1-0.2-0.2c-0.2-0.2-0.6-0.1-0.8,0.1L40.6,214.7z M111.7,181.4l-0.9,0.4c-0.2,0.1-0.4,0.4-0.2,0.7
	c0.1,0.2,0.4,0.4,0.7,0.2l0.9-0.4c0.2-0.1,0.4-0.4,0.2-0.7C112.2,181.3,111.9,181.2,111.7,181.4z M108,183.1l-0.9,0.4
	c-0.2,0.1-0.4,0.4-0.2,0.7c0.1,0.2,0.4,0.4,0.7,0.2l0.9-0.4c0.2-0.1,0.4-0.4,0.2-0.7S108.3,182.9,108,183.1z M104.4,184.8l-0.9,0.4
	c-0.2,0.1-0.4,0.4-0.2,0.7c0.1,0.2,0.4,0.4,0.7,0.2l0.9-0.4c0.2-0.1,0.4-0.4,0.2-0.7S104.7,184.6,104.4,184.8z M100.8,186.5
	l-0.9,0.4c-0.2,0.1-0.4,0.4-0.2,0.7s0.4,0.4,0.7,0.2l0.9-0.4c0.2-0.1,0.4-0.4,0.2-0.7S101,186.3,100.8,186.5z M97.2,188.2l-0.9,0.4
	c-0.2,0.1-0.4,0.4-0.2,0.7s0.4,0.4,0.7,0.2l0.9-0.4c0.2-0.1,0.4-0.4,0.2-0.7C97.7,188.1,97.4,188,97.2,188.2z M93.6,189.9l-0.9,0.4
	c-0.2,0.1-0.4,0.4-0.2,0.7s0.4,0.4,0.7,0.2l0.9-0.4c0.2-0.1,0.4-0.4,0.2-0.7C94.1,189.8,93.8,189.7,93.6,189.9z M89.9,191.6L89,192
	c-0.2,0.1-0.4,0.4-0.2,0.7s0.4,0.4,0.7,0.2l0.9-0.4c0.2-0.1,0.4-0.4,0.2-0.7C90.5,191.5,90.2,191.4,89.9,191.6z M86.3,193.3
	l-0.9,0.4c-0.2,0.1-0.4,0.4-0.2,0.7c0.1,0.2,0.4,0.4,0.7,0.2l0.9-0.4c0.2-0.1,0.4-0.4,0.2-0.7S86.6,193.1,86.3,193.3z M82.7,195
	l-0.9,0.4c-0.2,0.1-0.4,0.4-0.2,0.7c0.1,0.2,0.4,0.4,0.7,0.2l0.9-0.4c0.2-0.1,0.4-0.4,0.2-0.7S82.9,194.8,82.7,195z M79.1,196.7
	l-0.9,0.4c-0.2,0.1-0.4,0.4-0.2,0.7c0.1,0.2,0.4,0.4,0.7,0.2l0.9-0.4c0.2-0.1,0.4-0.4,0.2-0.7S79.3,196.5,79.1,196.7z M75.5,198.4
	l-0.9,0.4c-0.2,0.1-0.4,0.4-0.2,0.7s0.4,0.4,0.7,0.2l0.9-0.4c0.2-0.1,0.4-0.4,0.2-0.7S75.7,198.2,75.5,198.4z M71.8,200.1l-0.9,0.4
	c-0.2,0.1-0.4,0.4-0.2,0.7s0.4,0.4,0.7,0.2l0.9-0.4c0.2-0.1,0.4-0.4,0.2-0.7C72.4,200,72.1,199.9,71.8,200.1z M68.2,201.8l-0.9,0.4
	c-0.2,0.1-0.4,0.4-0.2,0.7s0.4,0.4,0.7,0.2l0.9-0.4c0.2-0.1,0.4-0.4,0.2-0.7C68.8,201.7,68.5,201.6,68.2,201.8z M64.6,203.5
	l-0.9,0.4c-0.2,0.1-0.4,0.4-0.2,0.7c0.1,0.2,0.4,0.4,0.7,0.2l0.9-0.4c0.2-0.1,0.4-0.4,0.2-0.7S64.8,203.3,64.6,203.5z M61,205.2
	l-0.9,0.4c-0.2,0.1-0.4,0.4-0.2,0.7s0.4,0.4,0.7,0.2l0.9-0.4c0.2-0.1,0.4-0.4,0.2-0.7C61.5,205.1,61.2,205,61,205.2z M57.3,206.9
	l-0.9,0.4c-0.2,0.1-0.4,0.4-0.2,0.7c0.1,0.2,0.4,0.4,0.7,0.2l0.9-0.4c0.2-0.1,0.4-0.4,0.2-0.7C57.9,206.8,57.6,206.7,57.3,206.9z
	 M53.7,208.6l-0.9,0.4c-0.2,0.1-0.4,0.4-0.2,0.7c0.1,0.2,0.4,0.4,0.7,0.2l0.9-0.4c0.2-0.1,0.4-0.4,0.2-0.7
	C54.3,208.5,54,208.4,53.7,208.6z M50.1,210.3l-0.9,0.4c-0.2,0.1-0.4,0.4-0.2,0.7c0.1,0.2,0.4,0.4,0.7,0.2l0.9-0.4
	c0.2-0.1,0.4-0.4,0.2-0.7C50.7,210.2,50.4,210.1,50.1,210.3z"/>
<path id="Path-2-Copy-10" class="st14" d="M303.8,47.2l-8.5,2.4c-0.3,0.1-0.5,0.4-0.4,0.7c0,0.1,0.1,0.2,0.1,0.2l5.3,5.9
	c0.2,0.2,0.5,0.2,0.8,0c0.1-0.1,0.1-0.1,0.1-0.2l3.2-8.3c0.1-0.3,0-0.6-0.3-0.7C304.1,47.2,304,47.2,303.8,47.2z M227.2,116.8
	c0,0.1,0,0.2,0,0.3c0.1,0.3,0.4,0.5,0.7,0.4l8.5-2.4c0.1,0,0.2-0.1,0.2-0.1c0.2-0.2,0.2-0.5,0-0.8l-5.3-5.9
	c-0.1-0.1-0.1-0.1-0.2-0.1c-0.3-0.1-0.6,0-0.7,0.3L227.2,116.8z M297.8,52.7l-0.7,0.7c-0.2,0.2-0.2,0.5,0,0.7c0.2,0.2,0.5,0.2,0.7,0
	l0.7-0.7c0.2-0.2,0.2-0.5,0-0.7C298.3,52.5,298,52.5,297.8,52.7z M294.8,55.4l-0.7,0.7c-0.2,0.2-0.2,0.5,0,0.7
	c0.2,0.2,0.5,0.2,0.7,0l0.7-0.7c0.2-0.2,0.2-0.5,0-0.7C295.3,55.2,295,55.2,294.8,55.4z M291.9,58.1l-0.7,0.7
	c-0.2,0.2-0.2,0.5,0,0.7s0.5,0.2,0.7,0l0.7-0.7c0.2-0.2,0.2-0.5,0-0.7C292.4,57.9,292.1,57.9,291.9,58.1z M288.9,60.7l-0.7,0.7
	c-0.2,0.2-0.2,0.5,0,0.7c0.2,0.2,0.5,0.2,0.7,0l0.7-0.7c0.2-0.2,0.2-0.5,0-0.7C289.4,60.6,289.1,60.6,288.9,60.7z M285.9,63.4
	l-0.7,0.7c-0.2,0.2-0.2,0.5,0,0.7c0.2,0.2,0.5,0.2,0.7,0l0.7-0.7c0.2-0.2,0.2-0.5,0-0.7C286.5,63.3,286.1,63.2,285.9,63.4z
	 M283,66.1l-0.7,0.7c-0.2,0.2-0.2,0.5,0,0.7c0.2,0.2,0.5,0.2,0.7,0l0.7-0.7c0.2-0.2,0.2-0.5,0-0.7C283.5,65.9,283.2,65.9,283,66.1z
	 M280,68.8l-0.7,0.7c-0.2,0.2-0.2,0.5,0,0.7c0.2,0.2,0.5,0.2,0.7,0l0.7-0.7c0.2-0.2,0.2-0.5,0-0.7C280.5,68.6,280.2,68.6,280,68.8z
	 M277.1,71.5l-0.7,0.7c-0.2,0.2-0.2,0.5,0,0.7c0.2,0.2,0.5,0.2,0.7,0l0.7-0.7c0.2-0.2,0.2-0.5,0-0.7
	C277.6,71.3,277.3,71.3,277.1,71.5z M274.1,74.2l-0.7,0.7c-0.2,0.2-0.2,0.5,0,0.7c0.2,0.2,0.5,0.2,0.7,0l0.7-0.7
	c0.2-0.2,0.2-0.5,0-0.7C274.6,74,274.3,74,274.1,74.2z M271.1,76.9l-0.7,0.7c-0.2,0.2-0.2,0.5,0,0.7c0.2,0.2,0.5,0.2,0.7,0l0.7-0.7
	c0.2-0.2,0.2-0.5,0-0.7C271.6,76.7,271.3,76.7,271.1,76.9z M268.2,79.6l-0.7,0.7c-0.2,0.2-0.2,0.5,0,0.7s0.5,0.2,0.7,0l0.7-0.7
	c0.2-0.2,0.2-0.5,0-0.7C268.7,79.4,268.4,79.4,268.2,79.6z M265.2,82.2l-0.7,0.7c-0.2,0.2-0.2,0.5,0,0.7c0.2,0.2,0.5,0.2,0.7,0
	l0.7-0.7c0.2-0.2,0.2-0.5,0-0.7C265.7,82.1,265.4,82.1,265.2,82.2z M262.2,84.9l-0.7,0.7c-0.2,0.2-0.2,0.5,0,0.7
	c0.2,0.2,0.5,0.2,0.7,0l0.7-0.7c0.2-0.2,0.2-0.5,0-0.7S262.4,84.7,262.2,84.9z M259.3,87.6l-0.7,0.7c-0.2,0.2-0.2,0.5,0,0.7
	c0.2,0.2,0.5,0.2,0.7,0l0.7-0.7c0.2-0.2,0.2-0.5,0-0.7C259.8,87.4,259.5,87.4,259.3,87.6z M256.3,90.3l-0.7,0.7
	c-0.2,0.2-0.2,0.5,0,0.7c0.2,0.2,0.5,0.2,0.7,0L257,91c0.2-0.2,0.2-0.5,0-0.7C256.8,90.1,256.5,90.1,256.3,90.3z M253.4,93l-0.7,0.7
	c-0.2,0.2-0.2,0.5,0,0.7c0.2,0.2,0.5,0.2,0.7,0l0.7-0.7c0.2-0.2,0.2-0.5,0-0.7S253.6,92.8,253.4,93z M250.4,95.7l-0.7,0.7
	c-0.2,0.2-0.2,0.5,0,0.7s0.5,0.2,0.7,0l0.7-0.7c0.2-0.2,0.2-0.5,0-0.7S250.6,95.5,250.4,95.7z M247.4,98.4l-0.7,0.7
	c-0.2,0.2-0.2,0.5,0,0.7s0.5,0.2,0.7,0l0.7-0.7c0.2-0.2,0.2-0.5,0-0.7S247.6,98.2,247.4,98.4z M244.5,101.1l-0.7,0.7
	c-0.2,0.2-0.2,0.5,0,0.7c0.2,0.2,0.5,0.2,0.7,0l0.7-0.7c0.2-0.2,0.2-0.5,0-0.7C245,100.9,244.7,100.9,244.5,101.1z M241.5,103.7
	l-0.7,0.7c-0.2,0.2-0.2,0.5,0,0.7s0.5,0.2,0.7,0l0.7-0.7c0.2-0.2,0.2-0.5,0-0.7S241.7,103.6,241.5,103.7z M238.5,106.4l-0.7,0.7
	c-0.2,0.2-0.2,0.5,0,0.7s0.5,0.2,0.7,0l0.7-0.7c0.2-0.2,0.2-0.5,0-0.7S238.7,106.3,238.5,106.4z M235.6,109.1l-0.7,0.7
	c-0.2,0.2-0.2,0.5,0,0.7c0.2,0.2,0.5,0.2,0.7,0l0.7-0.7c0.2-0.2,0.2-0.5,0-0.7C236.1,109,235.8,108.9,235.6,109.1z"/>
<path id="Path-2-Copy-15" class="st14" d="M192.1,64.2l-5.2,7.2c-0.2,0.2-0.1,0.6,0.1,0.8c0.1,0,0.1,0.1,0.2,0.1l7.8,1.3
	c0.3,0,0.6-0.1,0.6-0.4c0-0.1,0-0.2,0-0.2l-2.6-8.5c-0.1-0.3-0.4-0.4-0.7-0.4C192.3,64,192.2,64.1,192.1,64.2z M186.8,95.7
	c0,0.1,0.1,0.2,0.2,0.3c0.2,0.2,0.6,0.1,0.8-0.1l5.2-7.2c0-0.1,0.1-0.1,0.1-0.2c0-0.3-0.1-0.6-0.4-0.6l-7.8-1.3c-0.1,0-0.2,0-0.2,0
	c-0.3,0.1-0.4,0.4-0.4,0.7L186.8,95.7z M190.7,72.2l-0.2,1c0,0.3,0.1,0.5,0.4,0.6c0.3,0,0.5-0.1,0.6-0.4l0.2-1
	c0-0.3-0.1-0.5-0.4-0.6S190.8,71.9,190.7,72.2z M190,76.1l-0.2,1c0,0.3,0.1,0.5,0.4,0.6s0.5-0.1,0.6-0.4l0.2-1
	c0-0.3-0.1-0.5-0.4-0.6S190.1,75.8,190,76.1z M189.4,80.1l-0.2,1c0,0.3,0.1,0.5,0.4,0.6c0.3,0,0.5-0.1,0.6-0.4l0.2-1
	c0-0.3-0.1-0.5-0.4-0.6S189.4,79.8,189.4,80.1z M188.7,84l-0.2,1c0,0.3,0.1,0.5,0.4,0.6c0.3,0,0.5-0.1,0.6-0.4l0.2-1
	c0-0.3-0.1-0.5-0.4-0.6C189,83.6,188.8,83.7,188.7,84z"/>
<path id="Path-2-Copy-5" class="st14" d="M157.8,217.8l-6.8,5.7c-0.2,0.2-0.3,0.5-0.1,0.8c0.1,0.1,0.1,0.1,0.2,0.1l7.3,3.2
	c0.3,0.1,0.6,0,0.7-0.3c0-0.1,0-0.2,0-0.2l-0.5-8.8c0-0.3-0.3-0.5-0.6-0.5C158,217.7,157.9,217.7,157.8,217.8z M146.2,244.3
	c0,0.1,0,0.2,0.1,0.3c0.2,0.2,0.5,0.3,0.8,0.1l6.8-5.7c0.1-0.1,0.1-0.1,0.1-0.2c0.1-0.3,0-0.6-0.3-0.7l-7.3-3.2c-0.1,0-0.2,0-0.2,0
	c-0.3,0-0.5,0.3-0.5,0.6L146.2,244.3z M154.5,225.2l-0.4,0.9c-0.1,0.3,0,0.5,0.3,0.7c0.3,0.1,0.5,0,0.7-0.3l0.4-0.9
	c0.1-0.3,0-0.5-0.3-0.7C154.9,224.9,154.6,225,154.5,225.2z M152.9,228.9l-0.4,0.9c-0.1,0.3,0,0.5,0.3,0.7c0.3,0.1,0.5,0,0.7-0.3
	l0.4-0.9c0.1-0.3,0-0.5-0.3-0.7C153.3,228.5,153,228.7,152.9,228.9z M151.3,232.6l-0.4,0.9c-0.1,0.3,0,0.5,0.3,0.7
	c0.3,0.1,0.5,0,0.7-0.3l0.4-0.9c0.1-0.3,0-0.5-0.3-0.7C151.7,232.2,151.4,232.3,151.3,232.6z M149.7,236.2l-0.2,0.5
	c-0.1,0.3,0,0.5,0.3,0.7c0.3,0.1,0.5,0,0.7-0.3l0.2-0.5c0.1-0.3,0-0.5-0.3-0.7C150.1,235.9,149.8,236,149.7,236.2z"/>
<path id="Path-2-Copy-16" class="st14" d="M201.1,217.6l-0.1,8.9c0,0.3,0.2,0.5,0.5,0.5c0.1,0,0.2,0,0.2-0.1l7.1-3.4
	c0.3-0.1,0.4-0.4,0.3-0.7c0-0.1-0.1-0.1-0.2-0.2l-7-5.4c-0.2-0.2-0.6-0.1-0.8,0.1C201.2,217.4,201.1,217.5,201.1,217.6z
	 M229.8,277.4c0.1,0.1,0.2,0.1,0.3,0.1c0.3,0,0.5-0.2,0.5-0.5l0.1-8.9c0-0.1,0-0.2-0.1-0.2c-0.1-0.3-0.4-0.4-0.7-0.3l-7.1,3.4
	c-0.1,0-0.1,0.1-0.2,0.2c-0.2,0.2-0.1,0.6,0.1,0.8L229.8,277.4z M204.6,224.9l0.4,0.9c0.1,0.2,0.4,0.4,0.7,0.2s0.4-0.4,0.2-0.7
	l-0.4-0.9c-0.1-0.2-0.4-0.4-0.7-0.2C204.6,224.4,204.5,224.7,204.6,224.9z M206.4,228.5l0.4,0.9c0.1,0.2,0.4,0.4,0.7,0.2
	c0.2-0.1,0.4-0.4,0.2-0.7l-0.4-0.9c-0.1-0.2-0.4-0.4-0.7-0.2C206.4,228,206.3,228.3,206.4,228.5z M208.1,232.1l0.4,0.9
	c0.1,0.2,0.4,0.4,0.7,0.2c0.2-0.1,0.4-0.4,0.2-0.7l-0.4-0.9c-0.1-0.2-0.4-0.4-0.7-0.2C208.1,231.6,208,231.9,208.1,232.1z
	 M209.8,235.8l0.4,0.9c0.1,0.2,0.4,0.4,0.7,0.2c0.2-0.1,0.4-0.4,0.2-0.7l-0.4-0.9c-0.1-0.2-0.4-0.4-0.7-0.2
	C209.8,235.2,209.7,235.5,209.8,235.8z M211.6,239.4l0.4,0.9c0.1,0.2,0.4,0.4,0.7,0.2c0.2-0.1,0.4-0.4,0.2-0.7l-0.4-0.9
	c-0.1-0.2-0.4-0.4-0.7-0.2C211.5,238.8,211.4,239.1,211.6,239.4z M213.3,243l0.4,0.9c0.1,0.2,0.4,0.4,0.7,0.2
	c0.2-0.1,0.4-0.4,0.2-0.7l-0.4-0.9c-0.1-0.2-0.4-0.4-0.7-0.2C213.3,242.4,213.2,242.7,213.3,243z M215,246.6l0.4,0.9
	c0.1,0.2,0.4,0.4,0.7,0.2c0.2-0.1,0.4-0.4,0.2-0.7l-0.4-0.9c-0.1-0.2-0.4-0.4-0.7-0.2C215,246,214.9,246.3,215,246.6z M216.7,250.2
	l0.4,0.9c0.1,0.2,0.4,0.4,0.7,0.2c0.2-0.1,0.4-0.4,0.2-0.7l-0.4-0.9c-0.1-0.2-0.4-0.4-0.7-0.2C216.7,249.6,216.6,249.9,216.7,250.2z
	 M218.5,253.8l0.4,0.9c0.1,0.2,0.4,0.4,0.7,0.2c0.2-0.1,0.4-0.4,0.2-0.7l-0.4-0.9c-0.1-0.2-0.4-0.4-0.7-0.2
	C218.5,253.2,218.4,253.5,218.5,253.8z M220.2,257.4l0.4,0.9c0.1,0.2,0.4,0.4,0.7,0.2c0.2-0.1,0.4-0.4,0.2-0.7l-0.4-0.9
	c-0.1-0.2-0.4-0.4-0.7-0.2C220.2,256.9,220.1,257.2,220.2,257.4z M221.9,261l0.4,0.9c0.1,0.2,0.4,0.4,0.7,0.2
	c0.2-0.1,0.4-0.4,0.2-0.7l-0.4-0.9c-0.1-0.2-0.4-0.4-0.7-0.2C221.9,260.5,221.8,260.8,221.9,261z M223.7,264.6l0.4,0.9
	c0.1,0.2,0.4,0.4,0.7,0.2c0.2-0.1,0.4-0.4,0.2-0.7l-0.4-0.9c-0.1-0.2-0.4-0.4-0.7-0.2C223.6,264.1,223.5,264.4,223.7,264.6z
	 M225.4,268.2l0.4,0.9c0.1,0.2,0.4,0.4,0.7,0.2c0.2-0.1,0.4-0.4,0.2-0.7l-0.4-0.9c-0.1-0.2-0.4-0.4-0.7-0.2
	C225.4,267.7,225.3,268,225.4,268.2z"/>
<path id="Path-2-Copy-11" class="st15" d="M211.6,495.9l8.4-5.5l-7.8-4.6L211.6,495.9z M216.3,488.9l2-3.5l-0.9-0.5l-2,3.5
	L216.3,488.9z M220.4,482l2-3.5l-0.9-0.5l-2,3.5L220.4,482z M224.4,475.1l2-3.5l-0.9-0.5l-2,3.5L224.4,475.1z M228.5,468.2l2-3.5
	l-0.9-0.5l-2,3.5L228.5,468.2z"/>
<path id="Path-2-Copy-7" class="st12" d="M90.7,559.2l-7.5,5l8.8,4.9L90.7,559.2z M72,547.6l7.5-5l-8.8-4.9L72,547.6z M87.7,561.9
	l-11.9-17.6l-0.8,0.6l11.9,17.6L87.7,561.9z"/>
<path id="Path-2-Copy-8" class="st12" d="M230.2,559.2l-7.5,5l8.8,4.9L230.2,559.2z M227.2,561.9l-2.2-3.3l-0.8,0.6l2.2,3.3
	L227.2,561.9z M222.7,555.2l-2.2-3.3l-0.8,0.6l2.2,3.3L222.7,555.2z M218.3,548.6l-2.2-3.3l-0.8,0.6l2.2,3.3L218.3,548.6z
	 M213.8,542l-2.2-3.3l-0.8,0.6l2.2,3.3L213.8,542z"/>
<path id="Path-2-Copy-9" class="st12" d="M376.2,559.2l-7.5,5l8.8,4.9L376.2,559.2z M373.2,561.9l-2.2-3.3l-0.8,0.6l2.2,3.3
	L373.2,561.9z M368.7,555.2l-2.2-3.3l-0.8,0.6l2.2,3.3L368.7,555.2z M364.3,548.6l-2.2-3.3l-0.8,0.6l2.2,3.3L364.3,548.6z
	 M359.8,542l-2.2-3.3l-0.8,0.6l2.2,3.3L359.8,542z"/>
<path id="Path-2-Copy-17" class="st12" d="M26.7,569.2l8.7-5.1l-7.5-4.9L26.7,569.2z M47.3,537.6l-8.7,5.1l7.5,4.9L47.3,537.6z
	 M31.8,562.3l11.3-17.4l-0.8-0.5l-11.3,17.4L31.8,562.3z"/>
<path id="Path-2-Copy-24" class="st12" d="M166.7,569.2l8.7-5.1l-7.5-4.9L166.7,569.2z M171.8,562.3l2.2-3.4l-0.8-0.5l-2.2,3.4
	L171.8,562.3z M176.1,555.6l2.2-3.4l-0.8-0.5l-2.2,3.4L176.1,555.6z M180.5,548.9l2.2-3.4l-0.8-0.5l-2.2,3.4L180.5,548.9z
	 M184.8,542.2l2.2-3.4l-0.8-0.5l-2.2,3.4L184.8,542.2z"/>
<path id="Path-2-Copy-25" class="st12" d="M312.7,569.2l8.7-5.1l-7.5-4.9L312.7,569.2z M317.8,562.3l2.2-3.4l-0.8-0.5l-2.2,3.4
	L317.8,562.3z M322.1,555.6l2.2-3.4l-0.8-0.5l-2.2,3.4L322.1,555.6z M326.5,548.9l2.2-3.4l-0.8-0.5l-2.2,3.4L326.5,548.9z
	 M330.8,542.2l2.2-3.4l-0.8-0.5l-2.2,3.4L330.8,542.2z"/>
<path id="Path-2-Copy-14" class="st15" d="M185,485.9l-7.8,4.6l8.4,5.5L185,485.9z M181.8,488.4l-2-3.5l-0.9,0.5l2,3.5L181.8,488.4z
	 M177.7,481.5l-2-3.5l-0.9,0.5l2,3.5L177.7,481.5z M173.7,474.6l-2-3.5l-0.9,0.5l2,3.5L173.7,474.6z M169.6,467.6l-2-3.5l-0.9,0.5
	l2,3.5L169.6,467.6z"/>
<path id="Path-2-Copy-18" class="st16" d="M715.8,565.5l39-87.1"/>
<path id="Path-2-Copy-20" class="st16" d="M793.6,565.5l-38.8-87L793.6,565.5z"/>
<circle id="Oval-8" class="st12" cx="754.5" cy="478.5" r="2.5"/>
<circle id="Oval-8-Copy" class="st12" cx="715.5" cy="565.5" r="2.5"/>
<circle id="Oval-8-Copy-2" class="st12" cx="793.5" cy="565.5" r="2.5"/>
<path id="Path-2-Copy-18_1_" class="st17" d="M715.7,565.5l-115.5-86"/>
<path id="Path-2-Copy-19" class="st17" d="M638,565.5L599.7,479"/>
<path id="Path-2-Copy-19_1_" class="st17" d="M638,565.4l116.8-86.9"/>
<path id="Path-2-Copy-21" class="st17" d="M560.4,565.1l39.3-86.1"/>
<path id="Path-2-Copy-21_1_" class="st17" d="M560.5,565l195.2-86.5"/>
<path id="Path-2-Copy-20_1_" class="st18" d="M793.6,565.6l-193.4-86.2"/>
<path id="Path-2-Copy-18_2_" class="st18" d="M715.7,565.5l194.5-87"/>
<path id="Path-2-Copy-20_2_" class="st17" d="M793.6,565.4l116.7-87"/>
<path id="Path-2-Copy-22" class="st17" d="M871.3,565.6l38.9-87.1"/>
<path id="Path-2-Copy-23" class="st17" d="M949,565.5l-38.7-87.1"/>
<path id="Path-2-Copy-23_1_" class="st17" d="M949.1,565.6l-194.3-87.2"/>
<path id="Path-2-Copy-22_1_" class="st17" d="M871.3,565.5l-116.6-87.1"/>
<path id="Path-2-Copy-2" class="st12" d="M704.9,284l9,4.5v-9L704.9,284z M806.6,284l-9-4.5v9L806.6,284z M713.4,284.5h84.7v-1
	h-84.7V284.5z"/>
<text transform="matrix(1 0 0 1 328.3091 516.9999)" class="st0 st10 st11">Non-</text>
<text transform="matrix(1 0 0 1 360.2534 516.9999)" class="st0 st10 st11"> </text>
<text transform="matrix(1 0 0 1 327 529.9999)" class="st0 st10 st11">Profit</text>
<text transform="matrix(1 0 0 1 585 458.9999)" class="st0 st10 st11">DCO</text>
<text transform="matrix(1 0 0 1 740 458.9999)" class="st0 st10 st11">DCO</text>
<text transform="matrix(1 0 0 1 895 458.9999)" class="st0 st10 st11">DCO</text>
<text transform="matrix(1 0 0 1 154.1772 450.9999)" class="st0 st10 st11">LP</text>
<text transform="matrix(1 0 0 1 231.1772 450.9999)" class="st0 st10 st11">LP</text>
<text transform="matrix(1 0 0 1 137.9453 154)" class="st0 st10 st19">Centralized </text>
<text transform="matrix(1 0 0 1 132.5195 173)" class="st0 st10 st19">Organization</text>
<text transform="matrix(1 0 0 1 664.6089 290.9999)" class="st0 st10 st3">P</text>
<text transform="matrix(1 0 0 1 749.6089 164)" class="st0 st10 st3">P</text>
<text transform="matrix(1 0 0 1 833.6089 290.9999)" class="st0 st10 st3">P</text>
<linearGradient id="Path-4_1_" gradientUnits="userSpaceOnUse" x1="77.1786" y1="897.2405" x2="76.1786" y2="897.2405" gradientTransform="matrix(28 0 0 -42 -1661 38053.1016)">
	<stop  offset="0" style="stop-color:#79C760"/>
	<stop  offset="1" style="stop-color:#79C760"/>
</linearGradient>
<polygon id="Path-4" class="st20" points="472,348 500,369 472,390 "/>
<linearGradient id="Path-4-Copy_1_" gradientUnits="userSpaceOnUse" x1="74.3571" y1="888.1611" x2="73.3571" y2="888.1611" gradientTransform="matrix(14 0 0 -18 -573 16355.9004)">
	<stop  offset="0" style="stop-color:#79C760"/>
	<stop  offset="1" style="stop-color:#79C760"/>
</linearGradient>
<polygon id="Path-4-Copy" class="st21" points="454,360 468,360 468,378 454,378 "/>
<linearGradient id="Path-4-Copy-2_1_" gradientUnits="userSpaceOnUse" x1="72.1" y1="888.1611" x2="71.1" y2="888.1611" gradientTransform="matrix(10 0 0 -18 -271 16355.9004)">
	<stop  offset="0" style="stop-color:#79C760"/>
	<stop  offset="1" style="stop-color:#79C760"/>
</linearGradient>
<polygon id="Path-4-Copy-2" class="st22" points="440,360 450,360 450,378 440,378 "/>
<linearGradient id="Path-4-Copy-3_1_" gradientUnits="userSpaceOnUse" x1="66.8333" y1="888.1611" x2="65.8333" y2="888.1611" gradientTransform="matrix(6 0 0 -18 35 16355.9004)">
	<stop  offset="0" style="stop-color:#79C760"/>
	<stop  offset="1" style="stop-color:#79C760"/>
</linearGradient>
<polygon id="Path-4-Copy-3" class="st23" points="430,360 436,360 436,378 430,378 "/>
<linearGradient id="Path-4-Copy-4_1_" gradientUnits="userSpaceOnUse" x1="40.5" y1="888.1611" x2="39.5" y2="888.1611" gradientTransform="matrix(2 0 0 -18 345 16355.9004)">
	<stop  offset="0" style="stop-color:#79C760"/>
	<stop  offset="1" style="stop-color:#79C760"/>
</linearGradient>
<polygon id="Path-4-Copy-4" class="st24" points="424,360 426,360 426,378 424,378 "/>
<text transform="matrix(1 0 0 1 737.2035 280.9999)" class="st12 st10 st11">Token</text>
<text transform="matrix(1 0 0 1 722.0004 253.9715)" class="st0 st10 st13">Smart Contract</text>
<text transform="matrix(1 0 0 1 722.0004 111)" class="st0 st10 st13">Smart Contract</text>
<g id="代码" transform="translate(745.765703, 391.971501)">
	<path id="Shape" class="st0" d="M20.7-167.9l-7.8-7.9c-0.1-0.1-0.3-0.2-0.6-0.2h-11c-1.3,0-2.4,1.1-2.4,2.4v20.4
		c0,1.3,1.1,2.4,2.4,2.4h17.2c1.3,0,2.4-1.1,2.4-2.4v-14.1C20.9-167.6,20.9-167.8,20.7-167.9z M13.1-173.3l5.2,5.2h-4.4
		c-0.4,0-0.8-0.4-0.8-0.8V-173.3z M19.4-153.2c0,0.4-0.4,0.8-0.8,0.8H1.4c-0.4,0-0.8-0.4-0.8-0.8v-20.4c0-0.4,0.4-0.8,0.8-0.8h10.2
		v5.5c0,1.3,1.1,2.4,2.4,2.4h5.5V-153.2z"/>
	<path id="Shape_1_" class="st0" d="M6.6-163.2c-0.3-0.3-0.8-0.3-1.1,0L2.4-160c-0.3,0.3-0.3,0.8,0,1.1l3.1,3.1
		c0.3,0.3,0.8,0.3,1.1,0c0.3-0.3,0.3-0.8,0-1.1L4-159.5l2.6-2.6c0.1-0.1,0.2-0.3,0.2-0.6C6.8-162.8,6.8-163,6.6-163.2z M13.3-163.2
		c-0.3,0.3-0.3,0.8,0,1.1l2.6,2.6l-2.6,2.6c-0.2,0.2-0.3,0.5-0.2,0.8c0.1,0.3,0.3,0.5,0.6,0.6c0.3,0.1,0.6,0,0.8-0.2l3.1-3.1
		c0.3-0.3,0.3-0.8,0-1.1l-3.1-3.1c-0.1-0.1-0.3-0.2-0.6-0.2S13.5-163.3,13.3-163.2z M10.9-165c-0.2,0-0.4,0-0.6,0.1
		c-0.2,0.1-0.3,0.3-0.3,0.5l-1.4,9.4c-0.1,0.4,0.2,0.8,0.7,0.9s0.8-0.2,0.9-0.7l1.4-9.4C11.6-164.5,11.3-164.9,10.9-165z"/>
</g>
<g id="代码-copy" transform="translate(745.765703, 249.000000)">
	<path id="Shape_2_" class="st0" d="M20.7-167.9l-7.8-7.9c-0.1-0.1-0.3-0.2-0.6-0.2h-11c-1.3,0-2.4,1.1-2.4,2.4v20.4
		c0,1.3,1.1,2.4,2.4,2.4h17.2c1.3,0,2.4-1.1,2.4-2.4v-14.1C20.9-167.6,20.9-167.8,20.7-167.9z M13.1-173.3l5.2,5.2h-4.4
		c-0.4,0-0.8-0.4-0.8-0.8V-173.3z M19.4-153.2c0,0.4-0.4,0.8-0.8,0.8H1.4c-0.4,0-0.8-0.4-0.8-0.8v-20.4c0-0.4,0.4-0.8,0.8-0.8h10.2
		v5.5c0,1.3,1.1,2.4,2.4,2.4h5.5V-153.2z"/>
	<path id="Shape_3_" class="st0" d="M6.6-163.2c-0.3-0.3-0.8-0.3-1.1,0L2.4-160c-0.3,0.3-0.3,0.8,0,1.1l3.1,3.1
		c0.3,0.3,0.8,0.3,1.1,0c0.3-0.3,0.3-0.8,0-1.1L4-159.5l2.6-2.6c0.1-0.1,0.2-0.3,0.2-0.6C6.8-162.8,6.8-163,6.6-163.2z M13.3-163.2
		c-0.3,0.3-0.3,0.8,0,1.1l2.6,2.6l-2.6,2.6c-0.2,0.2-0.3,0.5-0.2,0.8c0.1,0.3,0.3,0.5,0.6,0.6c0.3,0.1,0.6,0,0.8-0.2l3.1-3.1
		c0.3-0.3,0.3-0.8,0-1.1l-3.1-3.1c-0.1-0.1-0.3-0.2-0.6-0.2S13.5-163.3,13.3-163.2z M10.9-165c-0.2,0-0.4,0-0.6,0.1
		c-0.2,0.1-0.3,0.3-0.3,0.5l-1.4,9.4c-0.1,0.4,0.2,0.8,0.7,0.9s0.8-0.2,0.9-0.7l1.4-9.4C11.6-164.5,11.3-164.9,10.9-165z"/>
</g>
<path id="Path-2-Copy-3" class="st12" d="M774.4,183.6l0.9,10l7.7-4.7L774.4,183.6z M820.4,258.4l-0.9-10l-7.7,4.7L820.4,258.4z
	 M778.4,191.1l37.1,60.3l0.9-0.5l-37.1-60.3L778.4,191.1z"/>
<text transform="matrix(0.5446 0.8387 -0.8387 0.5446 789.3767 203.5302)" class="st12 st10 st11">Token</text>
<path id="Path-2-Copy-3_1_" class="st12" d="M690.3,257.2l8.8-5l-7.5-5L690.3,257.2z M739,184.8l-8.8,5l7.5,5L739,184.8z
	 M695.4,250.4l39.2-58.3l-0.8-0.6l-39.2,58.3L695.4,250.4z"/>
<text transform="matrix(0.5592 -0.829 0.829 0.5592 700.9318 235.7116)" class="st12 st10 st11">Token</text>
<path id="Path-9" class="st0" d="M710.1,67.5l-4.5,9h9L710.1,67.5z M709.6,76v42h1V76H709.6z"/>
<circle id="Oval" class="st12" cx="335" cy="215" r="33"/>
<circle id="Oval-Copy" class="st12" cx="61" cy="43" r="33"/>
<circle id="Oval-Copy-2" class="st14" cx="319" cy="34" r="17"/>
<circle id="Oval-Copy-3" class="st14" cx="22" cy="223" r="17"/>
<circle id="Oval-Copy-5" class="st14" cx="237" cy="295" r="17"/>
<circle id="Oval-Copy-6" class="st14" cx="142" cy="263" r="17"/>
<circle id="Oval-Copy-4" class="st14" cx="195" cy="48" r="14"/>
<text transform="matrix(1 0 0 1 328.6089 222)" class="st0 st10 st3">P</text>
<text transform="matrix(1 0 0 1 54.6089 50)" class="st0 st10 st3">P</text>
<text transform="matrix(1 0 0 1 313.3314 40)" class="st25 st10 st26">P</text>
<text transform="matrix(1 0 0 1 16.3313 229)" class="st25 st10 st26">P</text>
<text transform="matrix(1 0 0 1 231.3313 300.9999)" class="st25 st10 st26">P</text>
<text transform="matrix(1 0 0 1 136.3313 268.9999)" class="st25 st10 st26">P</text>
<text transform="matrix(1 0 0 1 189.3313 54)" class="st25 st10 st26">P</text>
<path id="Polygon-Copy-20" class="st27" d="M957.2-0.2L973,27.5l-16.1,27.9l-406.2,0.2L535,27.9L551.1,0L957.2-0.2z"/>
<text transform="matrix(1 0 0 1 705.4103 35)" class="st0 st10 st3">Blockchain</text>
</svg>
