<?xml version="1.0" encoding="UTF-8"?>
<svg width="280px" height="280px" viewBox="0 0 280 280" version="1.1" xmlns="http://www.w3.org/2000/svg" xmlns:xlink="http://www.w3.org/1999/xlink">
    <!-- Generator: Sketch 51.2 (57519) - http://www.bohemiancoding.com/sketch -->
    <title>Group 14</title>
    <desc>Created with Sketch.</desc>
    <defs></defs>
    <g id="CODE-Network-0.5-中文-" stroke="none" stroke-width="1" fill="none" fill-rule="evenodd">
        <g id="Desktop-HD-Copy-2" transform="translate(-491.000000, -1105.000000)">
            <g id="Group-14" transform="translate(491.000000, 1105.000000)">
                <path d="M280,140 C280,217.319262 217.319262,280 140,280 C62.680738,280 0,217.319262 0,140 C0,62.680738 62.680738,0 140,0 C217.319262,0 280,62.680738 280,140" id="Fill-1" fill="#D3D6E0" opacity="0.100000001"></path>
                <circle id="Oval-3" stroke="#D3D6E0" fill-rule="nonzero" cx="140" cy="140" r="40"></circle>
                <circle id="Oval-3" fill="#5FD448" fill-rule="nonzero" cx="140" cy="140" r="34"></circle>
                <text id="Centralized-Organiza" font-family="PingFangSC-Semibold, PingFang SC" font-size="10" font-weight="500" line-spacing="12" fill="#FFFFFF">
                    <tspan x="113.415" y="139">Centralized </tspan>
                    <tspan x="110" y="151">Organization</tspan>
                </text>
                <path d="M139.827475,13 C130.529734,13 123,20.5243949 123,29.8155429 C123,39.1066908 130.529734,46.6310857 139.827475,46.6310857 C149.125215,46.6310857 156.654949,39.1066908 156.654949,29.8155429 C156.654949,20.5243949 149.125215,13 139.827475,13" id="Fill-23" fill="#5C64D6"></path>
                <path d="M139.827475,233 C130.529734,233 123,240.524395 123,249.815543 C123,259.106691 130.529734,266.631086 139.827475,266.631086 C149.125215,266.631086 156.654949,259.106691 156.654949,249.815543 C156.654949,240.524395 149.125215,233 139.827475,233" id="Fill-23-Copy" fill="#5C64D6"></path>
                <path d="M140.048242,18 C142.832629,18 145.096485,20.262251 145.096485,23.0446629 C145.096485,25.836043 142.832629,28.0893257 140.048242,28.0893257 C137.263856,28.0893257 135,25.836043 135,23.0446629 C135,20.262251 137.263856,18 140.048242,18" id="Fill-25" fill="#FFFFFF"></path>
                <path d="M140.048242,238 C142.832629,238 145.096485,240.262251 145.096485,243.044663 C145.096485,245.836043 142.832629,248.089326 140.048242,248.089326 C137.263856,248.089326 135,245.836043 135,243.044663 C135,240.262251 137.263856,238 140.048242,238" id="Fill-25-Copy" fill="#FFFFFF"></path>
                <path d="M140.096485,41.593792 C135.881763,41.593792 132.178597,39.4414025 130,36.1791872 C130.04263,32.8418625 136.738843,31 140.096485,31 C143.454127,31 150.142487,32.8418625 150.19297,36.1791872 C148.014373,39.4414025 144.311206,41.593792 140.096485,41.593792" id="Fill-27" fill="#FFFFFF"></path>
                <path d="M140.096485,261.593792 C135.881763,261.593792 132.178597,259.441403 130,256.179187 C130.04263,252.841862 136.738843,251 140.096485,251 C143.454127,251 150.142487,252.841862 150.19297,256.179187 C148.014373,259.441403 144.311206,261.593792 140.096485,261.593792" id="Fill-27-Copy" fill="#FFFFFF"></path>
                <path d="M42.8274747,175 C33.529734,175 26,182.524395 26,191.815543 C26,201.106691 33.529734,208.631086 42.8274747,208.631086 C52.1252155,208.631086 59.6549495,201.106691 59.6549495,191.815543 C59.6549495,182.524395 52.1252155,175 42.8274747,175" id="Fill-29" fill="#5C64D6"></path>
                <path d="M43.0482424,180 C45.8326286,180 48.0964848,182.262251 48.0964848,185.044663 C48.0964848,187.836043 45.8326286,190.089326 43.0482424,190.089326 C40.2638563,190.089326 38,187.836043 38,185.044663 C38,182.262251 40.2638563,180 43.0482424,180" id="Fill-31" fill="#FFFFFF"></path>
                <path d="M43.0964848,203.593792 C38.8817633,203.593792 35.1785971,201.441403 33,198.179187 C33.0426296,194.841862 39.7388427,193 43.0964848,193 C46.454127,193 53.1424873,194.841862 53.1929697,198.179187 C51.0143726,201.441403 47.3112064,203.593792 43.0964848,203.593792" id="Fill-33" fill="#FFFFFF"></path>
                <path d="M236.827475,175 C227.529734,175 220,182.524395 220,191.815543 C220,201.106691 227.529734,208.631086 236.827475,208.631086 C246.125215,208.631086 253.654949,201.106691 253.654949,191.815543 C253.654949,182.524395 246.125215,175 236.827475,175" id="Fill-35" fill="#5C64D6"></path>
                <path d="M235.827475,68 C226.529734,68 219,75.5243949 219,84.8155429 C219,94.1066908 226.529734,101.631086 235.827475,101.631086 C245.125215,101.631086 252.654949,94.1066908 252.654949,84.8155429 C252.654949,75.5243949 245.125215,68 235.827475,68" id="Fill-35-Copy" fill="#5C64D6"></path>
                <path d="M44.8274747,67 C35.529734,67 28,74.5243949 28,83.8155429 C28,93.1066908 35.529734,100.631086 44.8274747,100.631086 C54.1252155,100.631086 61.6549495,93.1066908 61.6549495,83.8155429 C61.6549495,74.5243949 54.1252155,67 44.8274747,67" id="Fill-35-Copy-2" fill="#5C64D6"></path>
                <path d="M237.048242,180 C239.832629,180 242.096485,182.262251 242.096485,185.044663 C242.096485,187.836043 239.832629,190.089326 237.048242,190.089326 C234.263856,190.089326 232,187.836043 232,185.044663 C232,182.262251 234.263856,180 237.048242,180" id="Fill-37" fill="#FFFFFF"></path>
                <path d="M236.048242,73 C238.832629,73 241.096485,75.262251 241.096485,78.0446629 C241.096485,80.836043 238.832629,83.0893257 236.048242,83.0893257 C233.263856,83.0893257 231,80.836043 231,78.0446629 C231,75.262251 233.263856,73 236.048242,73" id="Fill-37-Copy" fill="#FFFFFF"></path>
                <path d="M45.0482424,72 C47.8326286,72 50.0964848,74.262251 50.0964848,77.0446629 C50.0964848,79.836043 47.8326286,82.0893257 45.0482424,82.0893257 C42.2638563,82.0893257 40,79.836043 40,77.0446629 C40,74.262251 42.2638563,72 45.0482424,72" id="Fill-37-Copy-2" fill="#FFFFFF"></path>
                <path d="M237.096485,203.593792 C232.881763,203.593792 229.178597,201.441403 227,198.179187 C227.04263,194.841862 233.738843,193 237.096485,193 C240.454127,193 247.142487,194.841862 247.19297,198.179187 C245.014373,201.441403 241.311206,203.593792 237.096485,203.593792" id="Fill-39" fill="#FFFFFF"></path>
                <path d="M236.096485,96.593792 C231.881763,96.593792 228.178597,94.4414025 226,91.1791872 C226.04263,87.8418625 232.738843,86 236.096485,86 C239.454127,86 246.142487,87.8418625 246.19297,91.1791872 C244.014373,94.4414025 240.311206,96.593792 236.096485,96.593792" id="Fill-39-Copy" fill="#FFFFFF"></path>
                <path d="M45.0964848,95.593792 C40.8817633,95.593792 37.1785971,93.4414025 35,90.1791872 C35.0426296,86.8418625 41.7388427,85 45.0964848,85 C48.454127,85 55.1424873,86.8418625 55.1929697,90.1791872 C53.0143726,93.4414025 49.3112064,95.593792 45.0964848,95.593792" id="Fill-39-Copy-2" fill="#FFFFFF"></path>
                <g id="Group-10" transform="translate(137.000000, 48.000000)" fill-rule="nonzero">
                    <circle id="Oval" fill="#D3D6E0" cx="3" cy="3" r="3"></circle>
                    <path d="M3,5.21081543 L3,51.9931641" id="Path-5" stroke="#D3D6E0" stroke-linecap="round" stroke-linejoin="round"></path>
                </g>
                <g id="Group" transform="translate(140.000000, 206.000000) rotate(-180.000000) translate(-140.000000, -206.000000) translate(137.000000, 180.000000)" fill-rule="nonzero">
                    <circle id="Oval" fill="#D3D6E0" cx="3" cy="3" r="3"></circle>
                    <path d="M3,5 L3,51.7823486" id="Path-5" stroke="#D3D6E0" stroke-linecap="round" stroke-linejoin="round"></path>
                </g>
                <g id="Group-10" transform="translate(197.016660, 106.598076) rotate(-300.000000) translate(-197.016660, -106.598076) translate(194.016660, 80.598076)" fill-rule="nonzero">
                    <circle id="Oval" fill="#D3D6E0" cx="3" cy="3" r="3"></circle>
                    <path d="M3,5.21081543 L3,51.9931641" id="Path-5" stroke="#D3D6E0" stroke-linecap="round" stroke-linejoin="round"></path>
                </g>
                <g id="Group" transform="translate(83.016660, 172.598076) rotate(-480.000000) translate(-83.016660, -172.598076) translate(80.016660, 146.598076)" fill-rule="nonzero">
                    <circle id="Oval" fill="#D3D6E0" cx="3" cy="3" r="3"></circle>
                    <path d="M3,5 L3,51.7823486" id="Path-5" stroke="#D3D6E0" stroke-linecap="round" stroke-linejoin="round"></path>
                </g>
                <g id="Group-10" transform="translate(197.016660, 172.598076) rotate(-240.000000) translate(-197.016660, -172.598076) translate(194.016660, 146.598076)" fill-rule="nonzero">
                    <circle id="Oval" fill="#D3D6E0" cx="3" cy="3" r="3"></circle>
                    <path d="M3,5.21081543 L3,51.9931641" id="Path-5" stroke="#D3D6E0" stroke-linecap="round" stroke-linejoin="round"></path>
                </g>
                <g id="Group" transform="translate(83.016660, 106.598076) rotate(-420.000000) translate(-83.016660, -106.598076) translate(80.016660, 80.598076)" fill-rule="nonzero">
                    <circle id="Oval" fill="#D3D6E0" cx="3" cy="3" r="3"></circle>
                    <path d="M3,5 L3,51.7823486" id="Path-5" stroke="#D3D6E0" stroke-linecap="round" stroke-linejoin="round"></path>
                </g>
            </g>
        </g>
    </g>
</svg>