<?xml version="1.0" encoding="UTF-8"?>
<svg width="537px" height="360px" viewBox="0 0 537 360" version="1.1" xmlns="http://www.w3.org/2000/svg" xmlns:xlink="http://www.w3.org/1999/xlink">
    <!-- Generator: Sketch 51.2 (57519) - http://www.bohemiancoding.com/sketch -->
    <title>Artboard 2</title>
    <desc>Created with Sketch.</desc>
    <defs></defs>
    <g id="CODE-Network-0.5-中文-" stroke="none" stroke-width="1" fill="none" fill-rule="evenodd">
        <g id="Artboard-2" transform="translate(-944.000000, -934.000000)">
            <g id="Group-3-Copy" transform="translate(944.000000, 934.000000)">
                <rect id="Rectangle-7-Copy-37" stroke="#69707A" stroke-linecap="round" stroke-linejoin="round" fill-rule="nonzero" x="136" y="213" width="176" height="17"></rect>
                <polygon id="Rectangle-7-Copy-40" stroke="#69707A" stroke-linecap="round" stroke-linejoin="round" fill-rule="nonzero" points="312 212.983241 381 171 381 188.016759 312 230"></polygon>
                <polygon id="Rectangle-7-Copy-43" stroke="#69707A" stroke-linecap="round" stroke-linejoin="round" fill-rule="nonzero" points="204.832737 171 381 171 312.167263 213 136 213"></polygon>
                <text id="TOOL-Copy-2" font-family="PingFangSC-Semibold, PingFang SC" font-size="12" font-weight="500" letter-spacing="4" fill="#3F454E">
                    <tspan x="205.458" y="226">TOOL</tspan>
                </text>
                <path d="M220.60732,186.082053 C220.479666,186.192711 220.345789,186.299678 220.205685,186.402958 C220.065581,186.506239 219.918082,186.596608 219.763185,186.674068 C219.608288,186.751529 219.441777,186.814234 219.263648,186.862185 C219.085518,186.910137 218.894605,186.934112 218.690901,186.934112 C218.397796,186.94149 218.275425,186.888006 218.323786,186.77366 C218.372147,186.659313 218.543778,186.473043 218.838685,186.214841 L223.448735,182.220121 C223.636205,182.050446 223.694512,181.96561 223.623658,181.96561 C223.552805,181.96561 223.374934,182.050446 223.090041,182.220121 L216.020054,186.469353 C215.791639,186.609519 215.570785,186.722019 215.357485,186.806857 C215.144185,186.891694 214.895831,186.934112 214.612417,186.934112 C214.461854,186.934112 214.349976,186.924891 214.27678,186.906448 C214.203584,186.888005 214.162639,186.858497 214.153944,186.817922 C214.145248,186.777348 214.161743,186.729397 214.203428,186.674068 C214.245113,186.618739 214.305971,186.550502 214.386004,186.469353 C215.069201,185.753767 215.742488,185.047413 216.405886,184.35027 C217.069283,183.653127 217.746999,182.946773 218.439052,182.231187 C218.609643,182.054134 218.661725,181.96561 218.5953,181.96561 C218.528875,181.96561 218.361658,182.054134 218.093643,182.231187 L212.323278,186.148447 C211.930114,186.414025 211.584528,186.611362 211.286511,186.740462 C210.988494,186.869563 210.671213,186.934112 210.334659,186.934112 C210.060102,186.934112 209.954482,186.869563 210.017797,186.740462 C210.081112,186.611362 210.347278,186.391894 210.816303,186.082053 L220.201086,179.807797 C220.58456,179.549596 220.963566,179.350415 221.338117,179.210248 C221.712667,179.070082 222.041644,179 222.325058,179 C222.608472,179 222.770071,179.059017 222.80986,179.177051 C222.849649,179.295086 222.698955,179.531152 222.357774,179.885257 L217.795942,184.510722 L225.375963,179.863125 C225.946584,179.516398 226.406632,179.285865 226.75612,179.171518 C227.105608,179.057172 227.413198,179 227.678898,179 C227.935742,179 228.073739,179.071926 228.092894,179.215781 C228.112049,179.359636 227.968912,179.568038 227.66348,179.840994 L220.60732,186.082053 Z M226.650284,183.92424 C225.777247,184.595563 225.290833,185.078761 225.19103,185.373848 C225.091227,185.668935 225.298166,185.816476 225.811853,185.816476 C226.325541,185.816476 226.922415,185.648648 227.602492,185.312986 C228.28257,184.977325 229.00097,184.518102 229.757714,183.935306 C230.53384,183.337754 231.03028,182.863778 231.247051,182.513362 C231.463821,182.162946 231.329484,181.980364 230.844035,181.96561 C230.348895,181.958232 229.744417,182.114995 229.030581,182.435902 C228.316746,182.756809 227.523321,183.252917 226.650284,183.92424 Z M226.999506,186.004593 C226.301554,186.380829 225.709958,186.639026 225.224698,186.779192 C224.739439,186.919359 224.279828,186.989441 223.84585,186.989441 C223.411873,186.989441 223.105184,186.921203 222.925774,186.784725 C222.746365,186.648248 222.700256,186.449067 222.787448,186.187177 C222.87464,185.925287 223.096926,185.604385 223.454313,185.224461 C223.8117,184.844536 224.310193,184.411133 224.949809,183.92424 C225.734792,183.326689 226.475703,182.825048 227.172564,182.419304 C227.869426,182.013559 228.517661,181.68528 229.117289,181.434456 C229.716916,181.183632 230.264117,181.004738 230.758906,180.897769 C231.253695,180.7908 231.691501,180.737316 232.072339,180.737316 C232.49746,180.737316 232.745458,180.835062 232.81634,181.030557 C232.887222,181.226052 232.759679,181.511914 232.433708,181.88815 L233.044247,181.42339 C233.199305,181.305355 233.43269,181.179945 233.74441,181.047156 C234.056129,180.914367 234.353691,180.847973 234.637105,180.847973 C234.910828,180.85535 235.031529,180.923588 234.999213,181.052689 C234.966896,181.181789 234.87321,181.305355 234.718152,181.42339 L228.249346,186.34763 C228.094287,186.465665 227.87661,186.58923 227.596306,186.718331 C227.316002,186.847432 226.998304,186.915669 226.643203,186.923047 C226.466069,186.923047 226.348592,186.904604 226.290767,186.867718 C226.232942,186.830832 226.209583,186.782881 226.220687,186.723864 C226.231791,186.664847 226.269881,186.602141 226.33496,186.535747 C226.400038,186.469352 226.471341,186.406647 226.54887,186.34763 L226.999506,186.004593 Z M238.447629,183.393086 C238.757746,183.157016 239.013803,182.948614 239.21581,182.767873 C239.417816,182.587133 239.549849,182.437747 239.611912,182.319712 C239.673975,182.201677 239.659633,182.113153 239.568885,182.054135 C239.478137,181.995118 239.304344,181.96561 239.0475,181.96561 C238.834939,181.96561 238.613653,181.984052 238.383636,182.020938 C238.153618,182.057824 237.908987,182.126062 237.649734,182.225654 C237.390482,182.325246 237.104502,182.46541 236.791788,182.646151 C236.479073,182.826891 236.138589,183.057425 235.770325,183.337757 L231.656455,186.469353 C231.491706,186.594765 231.271268,186.703576 230.995137,186.795791 C230.719006,186.888006 230.461379,186.934112 230.222248,186.934112 C229.983118,186.934112 229.849051,186.886161 229.820044,186.790258 C229.791037,186.694355 229.854061,186.587387 230.00912,186.469353 L236.783196,181.312733 C236.957636,181.179944 237.184924,181.069288 237.465067,180.980762 C237.745209,180.892236 238.000413,180.847973 238.230687,180.847973 C238.460961,180.847973 238.595445,180.892236 238.634143,180.980762 C238.672842,181.069288 238.604971,181.179944 238.430531,181.312733 L237.718235,181.854953 C237.972386,181.722163 238.242032,181.589376 238.527181,181.456587 C238.81233,181.323798 239.102657,181.203921 239.398171,181.096952 C239.693685,180.989983 239.984685,180.903302 240.271181,180.836907 C240.557676,180.770513 240.829342,180.737316 241.086186,180.737316 C241.467023,180.737316 241.752069,180.781578 241.941331,180.870105 C242.130593,180.958631 242.219846,181.089574 242.209093,181.262937 C242.19834,181.436301 242.078307,181.655769 241.848991,181.921347 C241.619675,182.186925 241.272435,182.496762 240.80726,182.850866 L236.053778,186.469353 C235.879337,186.602142 235.660905,186.712798 235.398476,186.801324 C235.136047,186.88985 234.880843,186.934112 234.632856,186.934112 C234.384869,186.934112 234.241528,186.88985 234.20283,186.801324 C234.164132,186.712798 234.232002,186.602142 234.406442,186.469353 L238.447629,183.393086 Z M242.818083,183.92424 C241.945046,184.595563 241.458633,185.078761 241.358829,185.373848 C241.259026,185.668935 241.465965,185.816476 241.979653,185.816476 C242.493341,185.816476 243.090214,185.648648 243.770292,185.312986 C244.450369,184.977325 245.168769,184.518102 245.925513,183.935306 C246.701639,183.337754 247.19808,182.863778 247.41485,182.513362 C247.631621,182.162946 247.497284,181.980364 247.011835,181.96561 C246.516695,181.958232 245.912216,182.114995 245.198381,182.435902 C244.484545,182.756809 243.691121,183.252917 242.818083,183.92424 Z M243.167306,186.004593 C242.469354,186.380829 241.877757,186.639026 241.392498,186.779192 C240.907239,186.919359 240.447627,186.989441 240.01365,186.989441 C239.579672,186.989441 239.272983,186.921203 239.093574,186.784725 C238.914164,186.648248 238.868056,186.449067 238.955247,186.187177 C239.042439,185.925287 239.264725,185.604385 239.622112,185.224461 C239.979499,184.844536 240.477993,184.411133 241.117608,183.92424 C241.902591,183.326689 242.643502,182.825048 243.340364,182.419304 C244.037225,182.013559 244.68546,181.68528 245.285088,181.434456 C245.884716,181.183632 246.431916,181.004738 246.926705,180.897769 C247.421494,180.7908 247.859301,180.737316 248.240138,180.737316 C248.665259,180.737316 248.913257,180.835062 248.984139,181.030557 C249.055021,181.226052 248.927478,181.511914 248.601507,181.88815 L249.212046,181.42339 C249.367104,181.305355 249.60049,181.179945 249.912209,181.047156 C250.223928,180.914367 250.52149,180.847973 250.804904,180.847973 C251.078627,180.85535 251.199328,180.923588 251.167012,181.052689 C251.134696,181.181789 251.04101,181.305355 250.885951,181.42339 L244.417145,186.34763 C244.262087,186.465665 244.044409,186.58923 243.764105,186.718331 C243.483802,186.847432 243.166104,186.915669 242.811002,186.923047 C242.633868,186.923047 242.516391,186.904604 242.458566,186.867718 C242.400742,186.830832 242.377382,186.782881 242.388486,186.723864 C242.39959,186.664847 242.437681,186.602141 242.502759,186.535747 C242.567838,186.469352 242.639141,186.406647 242.71667,186.34763 L243.167306,186.004593 Z M252.160927,186.535747 C251.715134,186.875097 251.221761,187.184934 250.680792,187.465266 C250.139823,187.745599 249.59259,187.983509 249.039076,188.179004 C248.485561,188.3745 247.935057,188.523885 247.387545,188.627166 C246.840033,188.730446 246.331999,188.778397 245.86343,188.77102 C245.535732,188.77102 245.276341,188.754421 245.085249,188.721224 C244.894157,188.688027 244.74902,188.640076 244.649832,188.57737 C244.550645,188.514664 244.483292,188.444582 244.44777,188.367122 C244.412248,188.289661 244.381781,188.206669 244.356368,188.118143 C244.344496,188.066503 244.342106,188.009331 244.349199,187.946625 C244.356292,187.883919 244.393212,187.811992 244.459959,187.730843 C244.526707,187.649694 244.632554,187.555637 244.777504,187.448668 C244.922454,187.341699 245.126847,187.218133 245.390689,187.077967 C245.711009,186.908292 245.960775,186.814234 246.139994,186.795791 C246.319214,186.777348 246.415015,186.830832 246.427399,186.956244 C246.436446,187.111164 246.514419,187.243952 246.661323,187.354609 C246.808226,187.465267 247.139352,187.513218 247.654708,187.498463 C247.902695,187.498463 248.162873,187.468955 248.43525,187.409938 C248.707626,187.35092 248.971013,187.273461 249.22542,187.177558 C249.479827,187.081655 249.715346,186.976531 249.931984,186.862185 C250.148622,186.747839 250.324776,186.639027 250.460452,186.535747 L251.478017,185.761147 C250.891352,186.09312 250.329999,186.338408 249.793942,186.497017 C249.257885,186.655626 248.772875,186.73493 248.338898,186.73493 C247.90492,186.73493 247.593385,186.67038 247.404285,186.54128 C247.215184,186.412179 247.159385,186.220375 247.236885,185.965863 C247.314386,185.71135 247.526981,185.397825 247.874677,185.025278 C248.222372,184.65273 248.716021,184.223016 249.355636,183.736123 C250.140619,183.138572 250.869416,182.646153 251.54205,182.258851 C252.214684,181.871549 252.833846,181.565401 253.399554,181.340397 C253.965263,181.115393 254.483391,180.958631 254.953952,180.870105 C255.424513,180.781578 255.850206,180.737316 256.231043,180.737316 C256.656164,180.737316 256.909007,180.831374 256.989581,181.019492 C257.070154,181.20761 256.947457,181.489782 256.621485,181.866018 L257.202951,181.42339 C257.358009,181.305355 257.591395,181.179945 257.903114,181.047156 C258.214833,180.914367 258.512395,180.847973 258.795809,180.847973 C259.079223,180.847973 259.202347,180.914367 259.165185,181.047156 C259.128023,181.179945 259.031915,181.305355 258.876856,181.42339 L252.160927,186.535747 Z M251.09847,183.713991 C250.672059,184.038587 250.358401,184.306006 250.157485,184.516255 C249.956569,184.726505 249.842169,184.896177 249.814281,185.025278 C249.786393,185.154378 249.838167,185.244747 249.969604,185.296388 C250.101042,185.348028 250.290751,185.373848 250.538739,185.373848 C251.04357,185.373848 251.58756,185.242905 252.170726,184.981015 C252.753892,184.719125 253.418992,184.300477 254.166044,183.725057 C255.678697,182.566841 255.953165,181.980364 254.989455,181.96561 C254.520885,181.958232 253.961395,182.089175 253.31097,182.358442 C252.660544,182.627709 251.923051,183.079554 251.09847,183.713991 Z M262.408311,183.38202 C262.650589,183.197591 262.867883,183.018697 263.060198,182.845333 C263.252513,182.67197 263.386969,182.52074 263.463569,182.391639 C263.540168,182.262539 263.551851,182.15926 263.498616,182.0818 C263.445381,182.004339 263.294772,181.96561 263.046785,181.96561 C262.727944,181.96561 262.410535,182.011716 262.094549,182.103931 C261.778562,182.196146 261.472945,182.314179 261.177687,182.458034 C260.88243,182.601889 260.608066,182.756807 260.354589,182.922793 C260.101111,183.08878 259.88231,183.241854 259.698178,183.38202 L262.408311,183.38202 Z M256.41432,187.044769 C255.874062,187.044769 255.501575,186.970999 255.296847,186.823455 C255.092119,186.675912 255.033769,186.46751 255.121795,186.198243 C255.209821,185.928976 255.439376,185.602541 255.810465,185.218928 C256.181554,184.835315 256.677208,184.407445 257.297441,183.935306 C257.898292,183.477921 258.521948,183.05374 259.168429,182.662749 C259.81491,182.271759 260.45976,181.934258 261.102998,181.650237 C261.746236,181.366216 262.373724,181.14306 262.98548,180.980762 C263.597236,180.818464 264.168806,180.737316 264.700207,180.737316 C265.205038,180.737316 265.537671,180.811087 265.698115,180.95863 C265.85856,181.106174 265.886955,181.305355 265.783302,181.556178 C265.679648,181.807002 265.462914,182.098396 265.133093,182.430369 C264.803272,182.762342 264.396089,183.112753 263.911531,183.481612 C263.504503,183.791453 263.14568,184.027519 262.835052,184.189817 C262.524423,184.352115 262.236263,184.433262 261.970562,184.433262 L258.317197,184.433262 C258.094301,184.602937 257.898395,184.768921 257.729473,184.931219 C257.560551,185.093517 257.448655,185.241058 257.393779,185.373848 C257.338904,185.506637 257.357802,185.613604 257.450475,185.694753 C257.543148,185.775902 257.744473,185.816476 258.054457,185.816476 C258.453008,185.816476 258.830616,185.766681 259.187292,185.667089 C259.543968,185.567497 259.871101,185.454997 260.168701,185.329585 C260.392109,185.233681 260.567059,185.174665 260.693556,185.152533 C260.820053,185.130402 260.913255,185.128558 260.973166,185.147001 C261.033077,185.165444 261.072016,185.193108 261.089986,185.229993 C261.107955,185.266879 261.124545,185.296388 261.139755,185.318519 C261.162664,185.429177 261.028,185.582251 260.735758,185.777746 C260.443516,185.973241 260.065344,186.165045 259.601231,186.353163 C259.137118,186.541281 258.622794,186.703576 258.058242,186.840054 C257.49369,186.976532 256.945721,187.044769 256.41432,187.044769 Z M274.796538,183.38202 C275.106655,183.145951 275.36029,182.939393 275.557451,182.762341 C275.754611,182.585288 275.884221,182.437747 275.946284,182.319712 C276.008347,182.201677 275.994005,182.113153 275.903257,182.054135 C275.812509,181.995118 275.638716,181.96561 275.381872,181.96561 C275.169312,181.96561 274.948026,181.984052 274.718008,182.020938 C274.48799,182.057824 274.241145,182.126062 273.977464,182.225654 C273.713783,182.325246 273.428013,182.463566 273.120143,182.640618 C272.812274,182.81767 272.474213,183.046359 272.105949,183.326692 L267.977543,186.469353 C267.803102,186.602142 267.582665,186.710954 267.316225,186.795791 C267.049785,186.880629 266.787729,186.926735 266.530051,186.934112 C266.272373,186.94149 266.126609,186.899071 266.092757,186.806857 C266.058904,186.714642 266.129197,186.602142 266.303637,186.469353 L270.359361,183.38202 C270.979594,182.909881 271.358411,182.555782 271.495822,182.319712 C271.633233,182.083643 271.445098,181.96561 270.93141,181.96561 C270.718849,181.96561 270.497564,181.984052 270.267546,182.020938 C270.037528,182.057824 269.792897,182.126062 269.533644,182.225654 C269.274392,182.325246 268.990835,182.463566 268.682966,182.640618 C268.375097,182.81767 268.037035,183.046359 267.668772,183.326692 L263.540365,186.469353 C263.365925,186.602142 263.143065,186.712798 262.871779,186.801324 C262.600493,186.88985 262.332004,186.934112 262.066304,186.934112 C261.800603,186.934112 261.657262,186.88985 261.636277,186.801324 C261.615293,186.712798 261.692019,186.602142 261.86646,186.469353 L268.713219,181.257404 C268.88766,181.124615 269.087335,181.023181 269.312251,180.953097 C269.537167,180.883014 269.800185,180.847973 270.101312,180.847973 C270.40244,180.847973 270.559691,180.886703 270.573071,180.964163 C270.586451,181.041623 270.515613,181.13937 270.360554,181.257404 L269.590112,181.843887 C270.147704,181.534045 270.710934,181.27216 271.27982,181.058222 C271.848705,180.844284 272.332416,180.737316 272.730967,180.737316 C273.288938,180.737316 273.5963,180.838751 273.653063,181.041623 C273.709825,181.244495 273.566367,181.534045 273.222682,181.910281 C273.889057,181.578308 274.571514,181.299824 275.270073,181.07482 C275.968632,180.849816 276.583603,180.737316 277.115004,180.737316 C277.442702,180.737316 277.710034,180.781578 277.917009,180.870105 C278.123985,180.958631 278.239807,181.089574 278.264481,181.262937 C278.289155,181.436301 278.214239,181.648391 278.039732,181.899215 C277.865226,182.150039 277.559926,182.441433 277.123824,182.773406 L272.268586,186.469353 C272.113527,186.587387 271.942218,186.692511 271.754654,186.784725 C271.56709,186.87694 271.309045,186.926735 270.980513,186.934112 C270.651982,186.94149 270.471754,186.910137 270.439827,186.840054 C270.407899,186.769971 270.508227,186.646405 270.740815,186.469353 L274.796538,183.38202 Z M282.428749,183.38202 C282.671028,183.197591 282.888322,183.018697 283.080637,182.845333 C283.272952,182.67197 283.407407,182.52074 283.484007,182.391639 C283.560607,182.262539 283.572289,182.15926 283.519054,182.0818 C283.465819,182.004339 283.31521,181.96561 283.067223,181.96561 C282.748382,181.96561 282.430974,182.011716 282.114987,182.103931 C281.799001,182.196146 281.493384,182.314179 281.198126,182.458034 C280.902868,182.601889 280.628505,182.756807 280.375028,182.922793 C280.12155,183.08878 279.902749,183.241854 279.718617,183.38202 L282.428749,183.38202 Z M276.434759,187.044769 C275.894501,187.044769 275.522013,186.970999 275.317286,186.823455 C275.112558,186.675912 275.054207,186.46751 275.142234,186.198243 C275.23026,185.928976 275.459814,185.602541 275.830903,185.218928 C276.201993,184.835315 276.697646,184.407445 277.31788,183.935306 C277.91873,183.477921 278.542387,183.05374 279.188868,182.662749 C279.835349,182.271759 280.480199,181.934258 281.123437,181.650237 C281.766675,181.366216 282.394162,181.14306 283.005918,180.980762 C283.617674,180.818464 284.189244,180.737316 284.720645,180.737316 C285.225477,180.737316 285.558109,180.811087 285.718554,180.95863 C285.878999,181.106174 285.907394,181.305355 285.80374,181.556178 C285.700087,181.807002 285.483353,182.098396 285.153532,182.430369 C284.82371,182.762342 284.416527,183.112753 283.93197,183.481612 C283.524942,183.791453 283.166119,184.027519 282.85549,184.189817 C282.544861,184.352115 282.256701,184.433262 281.991001,184.433262 L278.337636,184.433262 C278.11474,184.602937 277.918833,184.768921 277.749912,184.931219 C277.58099,185.093517 277.469093,185.241058 277.414218,185.373848 C277.359342,185.506637 277.378241,185.613604 277.470914,185.694753 C277.563587,185.775902 277.764912,185.816476 278.074896,185.816476 C278.473447,185.816476 278.851055,185.766681 279.207731,185.667089 C279.564407,185.567497 279.891539,185.454997 280.189139,185.329585 C280.412548,185.233681 280.587498,185.174665 280.713995,185.152533 C280.840492,185.130402 280.933694,185.128558 280.993605,185.147001 C281.053515,185.165444 281.092455,185.193108 281.110424,185.229993 C281.128394,185.266879 281.144983,185.296388 281.160193,185.318519 C281.183103,185.429177 281.048439,185.582251 280.756197,185.777746 C280.463955,185.973241 280.085783,186.165045 279.62167,186.353163 C279.157557,186.541281 278.643232,186.703576 278.07868,186.840054 C277.514128,186.976532 276.96616,187.044769 276.434759,187.044769 Z M290.325408,183.393086 C290.635525,183.157016 290.891582,182.948614 291.093588,182.767873 C291.295595,182.587133 291.427627,182.437747 291.489691,182.319712 C291.551754,182.201677 291.537411,182.113153 291.446664,182.054135 C291.355916,181.995118 291.182122,181.96561 290.925278,181.96561 C290.712718,181.96561 290.491432,181.984052 290.261414,182.020938 C290.031397,182.057824 289.786765,182.126062 289.527513,182.225654 C289.26826,182.325246 288.982281,182.46541 288.669566,182.646151 C288.356851,182.826891 288.016367,183.057425 287.648104,183.337757 L283.534234,186.469353 C283.369484,186.594765 283.149047,186.703576 282.872916,186.795791 C282.596785,186.888006 282.339158,186.934112 282.100027,186.934112 C281.860897,186.934112 281.72683,186.886161 281.697823,186.790258 C281.668815,186.694355 281.73184,186.587387 281.886898,186.469353 L288.660974,181.312733 C288.835415,181.179944 289.062703,181.069288 289.342845,180.980762 C289.622988,180.892236 289.878192,180.847973 290.108466,180.847973 C290.33874,180.847973 290.473224,180.892236 290.511922,180.980762 C290.55062,181.069288 290.48275,181.179944 290.30831,181.312733 L289.596014,181.854953 C289.850165,181.722163 290.119811,181.589376 290.40496,181.456587 C290.690109,181.323798 290.980436,181.203921 291.27595,181.096952 C291.571463,180.989983 291.862464,180.903302 292.148959,180.836907 C292.435455,180.770513 292.707121,180.737316 292.963965,180.737316 C293.344802,180.737316 293.629848,180.781578 293.81911,180.870105 C294.008372,180.958631 294.097625,181.089574 294.086872,181.262937 C294.076118,181.436301 293.956086,181.655769 293.72677,181.921347 C293.497454,182.186925 293.150214,182.496762 292.685039,182.850866 L287.931556,186.469353 C287.757116,186.602142 287.538684,186.712798 287.276255,186.801324 C287.013826,186.88985 286.758622,186.934112 286.510635,186.934112 C286.262647,186.934112 286.119307,186.88985 286.080609,186.801324 C286.04191,186.712798 286.10978,186.602142 286.284221,186.469353 L290.325408,183.393086 Z M297.985269,182.209055 L294.729061,184.687774 C294.457709,184.894335 294.243672,185.064007 294.086945,185.196796 C293.930218,185.329585 293.827547,185.434709 293.778931,185.512169 C293.730314,185.589629 293.737549,185.643113 293.800636,185.672622 C293.863723,185.70213 293.979404,185.716885 294.147681,185.716885 C294.307101,185.716885 294.514974,185.679999 294.771306,185.606227 C295.027638,185.532456 295.260573,185.469751 295.470118,185.41811 C295.707067,185.359093 295.846349,185.360937 295.887968,185.423643 C295.929587,185.486349 295.814722,185.620981 295.54337,185.827542 C295.272018,186.034103 294.997991,186.205619 294.721282,186.342097 C294.444572,186.478575 294.166359,186.589231 293.886633,186.674068 C293.606908,186.758906 293.327476,186.821611 293.04833,186.862185 C292.769183,186.90276 292.491918,186.926735 292.216526,186.934112 C291.914564,186.94149 291.661816,186.924891 291.458273,186.884317 C291.254731,186.843742 291.135281,186.764439 291.09992,186.646404 C291.06456,186.528369 291.124778,186.367918 291.280576,186.165046 C291.436374,185.962173 291.727473,185.698443 292.153884,185.373848 L296.311364,182.209055 L295.779965,182.209055 C295.531978,182.209055 295.441023,182.151883 295.507097,182.037537 C295.573171,181.923191 295.746727,181.759051 296.027771,181.545113 C296.318505,181.323797 296.566716,181.165191 296.772411,181.069287 C296.978106,180.973384 297.196087,180.925433 297.426361,180.925433 L297.997614,180.925433 L298.75352,180.350016 C299.063636,180.113947 299.347146,179.936897 299.604056,179.818862 C299.860966,179.700828 300.170979,179.641811 300.534103,179.641811 C300.906083,179.641811 301.07094,179.691606 301.028676,179.791198 C300.986412,179.89079 300.839298,180.036487 300.587328,180.228294 L299.67152,180.925433 L301.053156,180.925433 C301.36314,180.925433 301.499212,180.975228 301.461377,181.07482 C301.423542,181.174412 301.268533,181.331175 300.996347,181.545113 C300.72416,181.759051 300.459824,181.923191 300.203331,182.037537 C299.946838,182.151883 299.650319,182.209055 299.313765,182.209055 L297.985269,182.209055 Z" id="Management-Copy-4" fill="#61646D" opacity="0.800000012"></path>
                <path d="M180.876269,195.892236 L173.041018,201.856652 C172.847195,202.004196 172.606333,202.136983 172.318424,202.255018 C172.030516,202.373053 171.731574,202.432069 171.42159,202.432069 C171.111606,202.432069 170.972565,202.369364 171.004465,202.243952 C171.036364,202.11854 171.139532,201.989442 171.313973,201.856652 L179.149223,195.892236 L177.448748,195.892236 C177.289328,195.892236 177.19733,195.844285 177.172751,195.748382 C177.148172,195.652479 177.290939,195.486495 177.601056,195.250425 C177.901481,195.021733 178.187958,194.857593 178.460496,194.758001 C178.733033,194.658409 178.957865,194.608614 179.134999,194.608614 L184.262994,194.608614 C184.440128,194.608614 184.534132,194.658409 184.545008,194.758001 C184.555885,194.857593 184.411113,195.021733 184.110687,195.250425 C183.800571,195.486495 183.507242,195.652479 183.230694,195.748382 C182.954145,195.844285 182.736164,195.892236 182.576744,195.892236 L180.876269,195.892236 Z M186.590411,197.463566 C186.280427,197.463566 185.945096,197.511517 185.584409,197.607421 C185.223722,197.703324 184.85444,197.836111 184.476552,198.005786 C184.098663,198.175461 183.717026,198.37833 183.331627,198.6144 C182.946229,198.85047 182.574249,199.104978 182.215677,199.377934 L178.814102,201.967309 C178.649353,202.092721 178.428916,202.201533 178.152784,202.293748 C177.876653,202.385963 177.619026,202.432069 177.379895,202.432069 C177.140765,202.432069 177.006698,202.384118 176.977691,202.288215 C176.948684,202.192312 177.011708,202.085344 177.166767,201.967309 L183.940843,196.81069 C184.115283,196.677901 184.342571,196.567245 184.622714,196.478719 C184.902856,196.390192 185.15806,196.34593 185.388334,196.34593 C185.618608,196.34593 185.753092,196.390192 185.79179,196.478719 C185.830489,196.567245 185.762619,196.677901 185.588178,196.81069 L184.570613,197.585289 C184.824764,197.4525 185.108946,197.308647 185.423169,197.153727 C185.737391,196.998806 186.061637,196.853109 186.395915,196.716631 C186.730193,196.580153 187.057535,196.465809 187.37795,196.373594 C187.698364,196.28138 187.986989,196.235273 188.243833,196.235273 C188.376683,196.235273 188.458735,196.253716 188.489989,196.290601 C188.521243,196.327487 188.525093,196.37175 188.501539,196.42339 C188.477984,196.47503 188.434085,196.530358 188.369841,196.589376 C188.305597,196.648393 188.239557,196.703721 188.171719,196.755361 C187.803456,197.035694 187.500982,197.223809 187.264288,197.319712 C187.027595,197.415616 186.802971,197.463566 186.590411,197.463566 Z M187.730572,199.422197 C186.857535,200.09352 186.371121,200.576717 186.271318,200.871804 C186.171514,201.166891 186.378453,201.314433 186.892141,201.314433 C187.405829,201.314433 188.002703,201.146605 188.68278,200.810943 C189.362858,200.475282 190.081258,200.016059 190.838001,199.433262 C191.614127,198.835711 192.110568,198.361735 192.327339,198.011319 C192.544109,197.660903 192.409772,197.478321 191.924323,197.463566 C191.429183,197.456189 190.824705,197.612952 190.110869,197.933859 C189.397034,198.254766 188.603609,198.750874 187.730572,199.422197 Z M188.079794,201.50255 C187.381842,201.878786 186.790245,202.136983 186.304986,202.277149 C185.819727,202.417316 185.360116,202.487398 184.926138,202.487398 C184.492161,202.487398 184.185472,202.41916 184.006062,202.282682 C183.826652,202.146204 183.780544,201.947024 183.867736,201.685134 C183.954928,201.423244 184.177214,201.102342 184.534601,200.722417 C184.891987,200.342493 185.390481,199.90909 186.030097,199.422197 C186.815079,198.824646 187.55599,198.323005 188.252852,197.91726 C188.949714,197.511516 189.597949,197.183236 190.197576,196.932413 C190.797204,196.681589 191.344405,196.502695 191.839194,196.395726 C192.333983,196.288757 192.771789,196.235273 193.152627,196.235273 C193.577748,196.235273 193.825745,196.333019 193.896628,196.528514 C193.96751,196.724009 193.839967,197.009871 193.513996,197.386107 L194.124535,196.921347 C194.279593,196.803312 194.512978,196.677902 194.824697,196.545113 C195.136417,196.412324 195.433979,196.34593 195.717393,196.34593 C195.991116,196.353307 196.111817,196.421545 196.079501,196.550646 C196.047184,196.679746 195.953498,196.803312 195.79844,196.921347 L189.329634,201.845587 C189.174575,201.963622 188.956898,202.087187 188.676594,202.216288 C188.39629,202.345388 188.078592,202.413626 187.72349,202.421004 C187.546357,202.421004 187.428879,202.402561 187.371055,202.365675 C187.31323,202.328789 187.28987,202.280838 187.300974,202.221821 C187.312078,202.162803 187.350169,202.100098 187.415248,202.033704 C187.480326,201.967309 187.551629,201.904604 187.629158,201.845587 L188.079794,201.50255 Z M194.021002,199.422197 C194.573397,199.001698 195.174623,198.599648 195.824698,198.216035 C196.474773,197.832421 197.135121,197.494921 197.805764,197.203522 C198.476406,196.912124 199.142786,196.677902 199.804923,196.50085 C200.467059,196.323798 201.081532,196.235273 201.64836,196.235273 C202.100051,196.235273 202.426876,196.301667 202.628845,196.434456 C202.830813,196.567245 202.922617,196.714786 202.904259,196.877084 C202.897583,196.936101 202.869312,197.009872 202.819443,197.098398 C202.769575,197.186924 202.692303,197.282826 202.587625,197.386107 C202.482947,197.489387 202.35613,197.592666 202.207169,197.695946 C202.058208,197.799227 201.8813,197.895129 201.676439,197.983655 C201.592557,198.020541 201.486117,198.061114 201.357116,198.105378 C201.228116,198.149641 201.102792,198.180993 200.981141,198.199436 C200.859489,198.217879 200.757639,198.217879 200.675587,198.199436 C200.593534,198.180993 200.567206,198.120132 200.596602,198.016852 C200.652056,197.8398 200.647566,197.703324 200.583132,197.607421 C200.518698,197.511517 200.344777,197.463566 200.061363,197.463566 C199.795662,197.463566 199.489116,197.511517 199.141714,197.607421 C198.794311,197.703324 198.431672,197.836111 198.053783,198.005786 C197.675895,198.175461 197.28277,198.382019 196.874395,198.625466 C196.46602,198.868913 196.068016,199.138175 195.68037,199.433262 C195.273342,199.743104 194.968123,200.014211 194.764704,200.246592 C194.561285,200.478973 194.439536,200.674465 194.399453,200.833074 C194.359371,200.991684 194.392308,201.111561 194.498266,201.19271 C194.604224,201.273859 194.767909,201.314433 194.989326,201.314433 C195.157603,201.314433 195.306785,201.307056 195.436876,201.292301 C195.566966,201.277547 195.686819,201.255416 195.796437,201.225907 C195.906055,201.196398 196.009238,201.165046 196.105988,201.131849 C196.202738,201.098651 196.30191,201.06361 196.403506,201.026724 C196.551054,200.975084 196.705451,200.9216 196.866701,200.866272 C197.027952,200.810943 197.174246,200.770369 197.305589,200.744549 C197.436931,200.718729 197.550478,200.713196 197.646233,200.72795 C197.741987,200.742705 197.807833,200.786967 197.843772,200.860739 C197.893252,200.971396 197.855754,201.087585 197.731277,201.209309 C197.6068,201.331032 197.352155,201.487795 196.967335,201.679601 C196.451011,201.937802 195.880546,202.146204 195.255922,202.304814 C194.631298,202.463423 194.01344,202.542726 193.402328,202.542726 C192.844357,202.542726 192.4453,202.468956 192.205145,202.321412 C191.964991,202.173869 191.875851,201.963622 191.937725,201.690667 C191.999598,201.417711 192.20722,201.089432 192.560595,200.705819 C192.913971,200.322206 193.400768,199.894336 194.021002,199.422197 Z M200.08997,201.967309 C199.915529,202.100099 199.695092,202.20891 199.428652,202.293748 C199.162212,202.378585 198.900156,202.424692 198.642478,202.432069 C198.3848,202.439446 198.239036,202.397028 198.205184,202.304814 C198.171331,202.212599 198.241624,202.100099 198.416064,201.967309 L208.097469,194.597548 C208.35913,194.398364 208.615154,194.248979 208.86555,194.149387 C209.115946,194.049795 209.40056,194 209.7194,194 C210.038241,194 210.187181,194.053484 210.166225,194.160453 C210.145268,194.267422 209.970043,194.446316 209.640544,194.69714 L204.450963,198.647597 L209.764889,196.534047 C210.126989,196.386504 210.401993,196.323798 210.589908,196.34593 C210.777824,196.368062 210.864687,196.441832 210.850501,196.567244 C210.836316,196.692656 210.71431,196.851263 210.484482,197.04307 C210.254654,197.234876 209.903052,197.42668 209.429665,197.618486 L204.981963,199.355802 L204.882967,201.170579 C204.849911,201.384517 204.700758,201.587386 204.435504,201.779192 C204.170249,201.970999 203.889452,202.124073 203.593104,202.238419 C203.296755,202.352766 203.0304,202.417315 202.794029,202.432069 C202.557658,202.446824 202.446984,202.387807 202.462004,202.255018 L202.575736,200.075073 L200.08997,201.967309 Z M207.734697,201.856652 C207.550566,201.996819 207.30327,202.127762 206.992802,202.249485 C206.682335,202.371208 206.398683,202.432069 206.141839,202.432069 C205.884995,202.432069 205.758823,202.373053 205.763317,202.255018 C205.767812,202.136983 205.866969,202.004196 206.060792,201.856652 L212.456915,196.987741 C212.74765,196.766426 213.049417,196.60413 213.362227,196.50085 C213.675037,196.397569 213.933289,196.34593 214.136993,196.34593 C214.340697,196.34593 214.465699,196.395725 214.512002,196.495317 C214.558305,196.594909 214.431246,196.759049 214.130821,196.987741 L207.734697,201.856652 Z M214.978013,195.018045 C215.259056,194.804107 215.580414,194.625213 215.942097,194.481358 C216.30378,194.337503 216.613038,194.265577 216.869882,194.265577 C217.126726,194.265577 217.24701,194.337503 217.230738,194.481358 C217.214466,194.625213 217.065811,194.804107 216.784768,195.018045 C216.503725,195.231983 216.182367,195.410877 215.820684,195.554732 C215.459001,195.698587 215.149743,195.770513 214.892899,195.770513 C214.636055,195.770513 214.515771,195.698587 214.532043,195.554732 C214.548315,195.410877 214.69697,195.231983 214.978013,195.018045 Z M218.319497,198.891043 C218.629613,198.654973 218.885671,198.446571 219.087677,198.26583 C219.289683,198.085089 219.421716,197.935704 219.483779,197.817669 C219.545842,197.699634 219.5315,197.61111 219.440752,197.552092 C219.350004,197.493075 219.176211,197.463566 218.919367,197.463566 C218.706807,197.463566 218.485521,197.482009 218.255503,197.518895 C218.025485,197.555781 217.780854,197.624019 217.521602,197.723611 C217.262349,197.823202 216.97637,197.963367 216.663655,198.144108 C216.35094,198.324848 216.010456,198.555382 215.642193,198.835714 L211.528322,201.967309 C211.363573,202.092721 211.143136,202.201533 210.867005,202.293748 C210.590873,202.385963 210.333246,202.432069 210.094116,202.432069 C209.854985,202.432069 209.720918,202.384118 209.691911,202.288215 C209.662904,202.192312 209.725929,202.085344 209.880987,201.967309 L216.655063,196.81069 C216.829504,196.677901 217.056792,196.567245 217.336934,196.478719 C217.617076,196.390192 217.872281,196.34593 218.102555,196.34593 C218.332828,196.34593 218.467312,196.390192 218.506011,196.478719 C218.544709,196.567245 218.476839,196.677901 218.302398,196.81069 L217.590103,197.352909 C217.844254,197.22012 218.113899,197.087333 218.399049,196.954544 C218.684198,196.821755 218.974525,196.701877 219.270038,196.594908 C219.565552,196.487939 219.856552,196.401259 220.143048,196.334864 C220.429544,196.26847 220.701209,196.235273 220.958053,196.235273 C221.338891,196.235273 221.623936,196.279535 221.813198,196.368061 C222.00246,196.456588 222.091713,196.58753 222.08096,196.760894 C222.070207,196.934258 221.950174,197.153725 221.720858,197.419304 C221.491543,197.684882 221.144302,197.994719 220.679127,198.348823 L215.925645,201.967309 C215.751204,202.100099 215.532773,202.210755 215.270344,202.299281 C215.007915,202.387807 214.75271,202.432069 214.504723,202.432069 C214.256736,202.432069 214.113395,202.387807 214.074697,202.299281 C214.035999,202.210755 214.103869,202.100099 214.27831,201.967309 L218.319497,198.891043 Z M224.04189,202.033704 C223.596097,202.373054 223.102724,202.682891 222.561755,202.963223 C222.020786,203.243556 221.473552,203.481466 220.920038,203.676961 C220.366524,203.872456 219.816019,204.021842 219.268507,204.125122 C218.720995,204.228403 218.212962,204.276354 217.744392,204.268977 C217.416695,204.268977 217.157304,204.252378 216.966212,204.219181 C216.77512,204.185984 216.629982,204.138033 216.530795,204.075327 C216.431608,204.012621 216.364254,203.942539 216.328732,203.865078 C216.293211,203.787618 216.262744,203.704626 216.237331,203.6161 C216.225458,203.56446 216.223069,203.507287 216.230162,203.444581 C216.237255,203.381875 216.274174,203.309949 216.340922,203.2288 C216.407669,203.147651 216.513516,203.053594 216.658466,202.946625 C216.803416,202.839656 217.007809,202.71609 217.271651,202.575923 C217.591971,202.406248 217.841737,202.312191 218.020957,202.293748 C218.200177,202.275305 218.295977,202.328789 218.308362,202.454201 C218.317408,202.609121 218.395382,202.741908 218.542285,202.852566 C218.689189,202.963224 219.020314,203.011175 219.535671,202.99642 C219.783658,202.99642 220.043836,202.966912 220.316212,202.907895 C220.588588,202.848877 220.851976,202.771418 221.106383,202.675515 C221.360789,202.579611 221.596308,202.474488 221.812946,202.360142 C222.029584,202.245796 222.205738,202.136984 222.341414,202.033704 L223.358979,201.259104 C222.772314,201.591077 222.210962,201.836364 221.674905,201.994974 C221.138848,202.153583 220.653838,202.232886 220.21986,202.232886 C219.785882,202.232886 219.474348,202.168337 219.285247,202.039237 C219.096146,201.910136 219.040347,201.718332 219.117848,201.46382 C219.195348,201.209307 219.407943,200.895782 219.755639,200.523235 C220.103335,200.150687 220.596983,199.720973 221.236599,199.23408 C222.021581,198.636529 222.750379,198.144109 223.423012,197.756808 C224.095646,197.369506 224.714808,197.063358 225.280517,196.838354 C225.846226,196.61335 226.364353,196.456588 226.834914,196.368061 C227.305475,196.279535 227.731168,196.235273 228.112006,196.235273 C228.537127,196.235273 228.78997,196.329331 228.870543,196.517448 C228.951116,196.705566 228.828419,196.987739 228.502448,197.363975 L229.083914,196.921347 C229.238972,196.803312 229.472357,196.677902 229.784076,196.545113 C230.095796,196.412324 230.393358,196.34593 230.676772,196.34593 C230.960186,196.34593 231.08331,196.412324 231.046148,196.545113 C231.008986,196.677902 230.912877,196.803312 230.757819,196.921347 L224.04189,202.033704 Z M222.979432,199.211948 C222.553022,199.536544 222.239363,199.803963 222.038448,200.014212 C221.837532,200.224462 221.723132,200.394134 221.695244,200.523235 C221.667356,200.652335 221.719129,200.742704 221.850567,200.794344 C221.982004,200.845985 222.171714,200.871804 222.419701,200.871804 C222.924532,200.871804 223.468523,200.740862 224.051689,200.478972 C224.634855,200.217082 225.299954,199.798434 226.047007,199.223014 C227.55966,198.064797 227.834127,197.478321 226.870417,197.463566 C226.401847,197.456189 225.842358,197.587132 225.191932,197.856399 C224.541506,198.125666 223.804014,198.577511 222.979432,199.211948 Z" id="Tracking-Copy-4" fill="#61646D" opacity="0.800000012"></path>
                <path d="M262.393699,200.57303 L260.137447,201.845587 C259.825149,202.022639 259.52789,202.164647 259.245662,202.271616 C258.963433,202.378585 258.685044,202.432069 258.410487,202.432069 C258.13593,202.432069 257.999104,202.369364 258.000004,202.243952 C258.000905,202.11854 258.262017,201.904605 258.783347,201.602141 L270.256572,194.951651 C270.455914,194.833616 270.689219,194.728493 270.956493,194.636278 C271.223768,194.544063 271.481395,194.497957 271.729382,194.497957 C271.97737,194.497957 272.113859,194.544063 272.138855,194.636278 C272.163851,194.728493 272.120962,194.833616 272.010187,194.951651 L266.007864,201.624273 C265.74588,201.904605 265.448171,202.109319 265.114728,202.238419 C264.781284,202.36752 264.477288,202.432069 264.202731,202.432069 C263.918482,202.439446 263.780196,202.389651 263.787867,202.282682 C263.795539,202.175713 263.860858,202.048459 263.983827,201.900915 L265.090546,200.57303 L262.393699,200.57303 Z M266.414348,199.322605 L268.996493,196.57831 L264.368464,199.322605 L266.414348,199.322605 Z M275.875559,198.891043 C276.185676,198.654973 276.441734,198.446571 276.64374,198.26583 C276.845746,198.085089 276.977779,197.935704 277.039842,197.817669 C277.101905,197.699634 277.087563,197.61111 276.996815,197.552092 C276.906067,197.493075 276.732274,197.463566 276.47543,197.463566 C276.26287,197.463566 276.041584,197.482009 275.811566,197.518895 C275.581548,197.555781 275.336917,197.624019 275.077664,197.723611 C274.818412,197.823202 274.532433,197.963367 274.219718,198.144108 C273.907003,198.324848 273.566519,198.555382 273.198255,198.835714 L269.084385,201.967309 C268.919636,202.092721 268.699199,202.201533 268.423067,202.293748 C268.146936,202.385963 267.889309,202.432069 267.650179,202.432069 C267.411048,202.432069 267.276981,202.384118 267.247974,202.288215 C267.218967,202.192312 267.281992,202.085344 267.43705,201.967309 L274.211126,196.81069 C274.385566,196.677901 274.612854,196.567245 274.892997,196.478719 C275.173139,196.390192 275.428344,196.34593 275.658617,196.34593 C275.888891,196.34593 276.023375,196.390192 276.062074,196.478719 C276.100772,196.567245 276.032902,196.677901 275.858461,196.81069 L275.146166,197.352909 C275.400316,197.22012 275.669962,197.087333 275.955111,196.954544 C276.240261,196.821755 276.530588,196.701877 276.826101,196.594908 C277.121615,196.487939 277.412615,196.401259 277.699111,196.334864 C277.985607,196.26847 278.257272,196.235273 278.514116,196.235273 C278.894954,196.235273 279.179999,196.279535 279.369261,196.368061 C279.558523,196.456588 279.647776,196.58753 279.637023,196.760894 C279.62627,196.934258 279.506237,197.153725 279.276921,197.419304 C279.047605,197.684882 278.700365,197.994719 278.23519,198.348823 L273.481708,201.967309 C273.307267,202.100099 273.088836,202.210755 272.826407,202.299281 C272.563978,202.387807 272.308773,202.432069 272.060786,202.432069 C271.812799,202.432069 271.669458,202.387807 271.63076,202.299281 C271.592062,202.210755 271.659932,202.100099 271.834373,201.967309 L275.875559,198.891043 Z M280.246014,199.422197 C279.372976,200.09352 278.886563,200.576717 278.78676,200.871804 C278.686956,201.166891 278.893895,201.314433 279.407583,201.314433 C279.921271,201.314433 280.518145,201.146605 281.198222,200.810943 C281.8783,200.475282 282.5967,200.016059 283.353443,199.433262 C284.129569,198.835711 284.62601,198.361735 284.842781,198.011319 C285.059551,197.660903 284.925214,197.478321 284.439765,197.463566 C283.944625,197.456189 283.340147,197.612952 282.626311,197.933859 C281.912476,198.254766 281.119051,198.750874 280.246014,199.422197 Z M280.595236,201.50255 C279.897284,201.878786 279.305687,202.136983 278.820428,202.277149 C278.335169,202.417316 277.875558,202.487398 277.44158,202.487398 C277.007602,202.487398 276.700913,202.41916 276.521504,202.282682 C276.342094,202.146204 276.295986,201.947024 276.383178,201.685134 C276.470369,201.423244 276.692655,201.102342 277.050042,200.722417 C277.407429,200.342493 277.905923,199.90909 278.545539,199.422197 C279.330521,198.824646 280.071432,198.323005 280.768294,197.91726 C281.465155,197.511516 282.11339,197.183236 282.713018,196.932413 C283.312646,196.681589 283.859846,196.502695 284.354635,196.395726 C284.849424,196.288757 285.287231,196.235273 285.668069,196.235273 C286.09319,196.235273 286.341187,196.333019 286.412069,196.528514 C286.482951,196.724009 286.355409,197.009871 286.029437,197.386107 L286.639976,196.921347 C286.795035,196.803312 287.02842,196.677902 287.340139,196.545113 C287.651858,196.412324 287.949421,196.34593 288.232835,196.34593 C288.506557,196.353307 288.627259,196.421545 288.594942,196.550646 C288.562626,196.679746 288.46894,196.803312 288.313882,196.921347 L281.845075,201.845587 C281.690017,201.963622 281.472339,202.087187 281.192036,202.216288 C280.911732,202.345388 280.594034,202.413626 280.238932,202.421004 C280.061799,202.421004 279.944321,202.402561 279.886497,202.365675 C279.828672,202.328789 279.805312,202.280838 279.816416,202.221821 C279.82752,202.162803 279.865611,202.100098 279.93069,202.033704 C279.995768,201.967309 280.067071,201.904604 280.1446,201.845587 L280.595236,201.50255 Z M293.373474,194.531154 C293.59637,194.361479 293.832595,194.230536 294.082157,194.138321 C294.331718,194.046107 294.607058,194 294.908185,194 C295.209313,194 295.361093,194.047951 295.36353,194.143854 C295.365967,194.239757 295.255739,194.372545 295.032842,194.54222 L285.278755,201.967309 C285.104314,202.100099 284.883668,202.210755 284.616811,202.299281 C284.349954,202.387807 284.088107,202.432069 283.831263,202.432069 C283.574419,202.432069 283.428864,202.387807 283.394594,202.299281 C283.360324,202.210755 283.430409,202.100099 283.604849,201.967309 L293.373474,194.531154 Z M292.825879,201.19271 C292.590276,201.318122 292.334958,201.441688 292.059917,201.563411 C291.784876,201.685135 291.506872,201.793946 291.225895,201.88985 C290.944918,201.985753 290.66624,202.061368 290.389852,202.116697 C290.113465,202.172025 289.851282,202.199689 289.603295,202.199689 C289.257884,202.199689 288.992766,202.155427 288.807932,202.066901 C288.623098,201.978375 288.531631,201.847432 288.533528,201.674068 C288.535424,201.500705 288.644386,201.281237 288.860417,201.015659 C289.076448,200.75008 289.417046,200.440244 289.882221,200.086139 L294.185067,196.81069 C294.359508,196.677901 294.577939,196.567245 294.840368,196.478719 C295.102797,196.390192 295.358002,196.34593 295.605989,196.34593 C295.853976,196.34593 295.997317,196.390192 296.036015,196.478719 C296.074713,196.567245 296.006843,196.677901 295.832402,196.81069 L292.241851,199.54392 C291.931735,199.779989 291.6781,199.986547 291.480939,200.163599 C291.283778,200.340651 291.154169,200.488193 291.092105,200.606227 C291.030042,200.724262 291.044384,200.812787 291.135132,200.871804 C291.22588,200.930822 291.399674,200.96033 291.656517,200.96033 C291.869078,200.96033 292.090364,200.941887 292.320381,200.905002 C292.550399,200.868116 292.795031,200.799878 293.054283,200.700286 C293.313535,200.600694 293.597092,200.462374 293.904961,200.285322 C294.212831,200.10827 294.550892,199.879581 294.919155,199.599248 L298.58239,196.81069 C298.747139,196.685278 298.967576,196.576466 299.243707,196.484251 C299.519839,196.392037 299.777466,196.34593 300.016596,196.34593 C300.255727,196.34593 300.389794,196.393881 300.418801,196.489784 C300.447808,196.585687 300.384783,196.692655 300.229725,196.81069 L293.339356,202.055835 C292.893563,202.395185 292.404827,202.703178 291.873132,202.979822 C291.341437,203.256466 290.794204,203.494376 290.231415,203.69356 C289.668627,203.892744 289.117914,204.043973 288.579258,204.147254 C288.040603,204.250534 287.545855,204.298485 287.094998,204.291108 C286.838154,204.291108 286.617784,204.281887 286.433879,204.263444 C286.249975,204.245001 286.096735,204.20996 285.974154,204.15832 C285.851573,204.106679 285.755228,204.038442 285.685114,203.953604 C285.615,203.868766 285.564895,203.763643 285.534797,203.638231 C285.506368,203.498065 285.566714,203.356057 285.715836,203.212202 C285.864959,203.068347 286.058153,202.926338 286.295425,202.786172 C286.646487,202.579611 286.92616,202.456045 287.134454,202.415471 C287.342747,202.374896 287.44949,202.409937 287.454687,202.520595 C287.463733,202.675516 287.564891,202.799081 287.758164,202.891296 C287.951438,202.983511 288.283188,203.025929 288.753427,203.018552 C289.037676,203.011175 289.322626,202.977978 289.608288,202.91896 C289.893949,202.859943 290.165776,202.786172 290.423776,202.697646 C290.681777,202.60912 290.918884,202.50953 291.135105,202.398872 C291.351326,202.288214 291.532117,202.177558 291.677484,202.066901 L292.825879,201.19271 Z M298.922809,201.259104 C299.21508,201.259104 299.533531,201.203776 299.878174,201.093119 C300.222817,200.982461 300.525964,200.827543 300.787625,200.628359 C300.903918,200.539833 300.988169,200.460529 301.04038,200.390446 C301.092591,200.320363 301.104529,200.253969 301.076195,200.191263 C301.047862,200.128557 300.979674,200.065852 300.87163,200.003146 C300.763586,199.94044 300.607458,199.872203 300.403242,199.798431 C300.147555,199.709905 299.949857,199.617691 299.810141,199.521788 C299.670425,199.425885 299.601436,199.31154 299.603171,199.178751 C299.604906,199.045962 299.684843,198.887355 299.842983,198.702926 C300.001123,198.518496 300.249784,198.297184 300.588974,198.038983 C300.947547,197.766028 301.336197,197.52074 301.754936,197.303114 C302.173675,197.085487 302.599723,196.90106 303.033094,196.749828 C303.466464,196.598596 303.889014,196.484252 304.300755,196.406791 C304.712496,196.329331 305.091066,196.290601 305.436477,196.290601 C305.799601,196.290601 306.090326,196.323798 306.308662,196.390193 C306.526997,196.456587 306.676819,196.541424 306.758132,196.644704 C306.839445,196.747985 306.864568,196.858641 306.833504,196.976675 C306.802439,197.09471 306.723915,197.201678 306.59793,197.297581 C306.307196,197.518896 305.993988,197.72361 305.658297,197.911728 C305.322606,198.099846 305.057341,198.193903 304.862494,198.193903 C304.800497,198.193903 304.765151,198.173616 304.756456,198.133042 C304.74776,198.092467 304.739146,198.031607 304.730611,197.950458 C304.701348,197.817668 304.638167,197.710701 304.541066,197.629552 C304.443964,197.548403 304.218701,197.504141 303.865268,197.496764 C303.644685,197.489386 303.385887,197.526272 303.088866,197.607421 C302.791844,197.68857 302.517353,197.825045 302.265383,198.016852 C302.149089,198.105378 302.074321,198.179149 302.041075,198.238166 C302.007829,198.297183 302.017279,198.350667 302.069423,198.398619 C302.121568,198.44657 302.204501,198.496366 302.318225,198.548006 C302.431949,198.599646 302.586905,198.658663 302.783099,198.725057 C302.987315,198.798829 303.159278,198.883665 303.298994,198.979568 C303.438709,199.075472 303.513924,199.193505 303.524639,199.333671 C303.535354,199.473837 303.462814,199.645354 303.307016,199.848226 C303.151218,200.051099 302.884346,200.296386 302.506392,200.584096 C302.118746,200.879183 301.690161,201.144757 301.220624,201.380827 C300.751087,201.616897 300.279087,201.816077 299.804609,201.978375 C299.330132,202.140673 298.870905,202.266083 298.426914,202.354609 C297.982922,202.443135 297.592656,202.487398 297.256102,202.487398 C296.857551,202.487398 296.550364,202.443135 296.334532,202.354609 C296.1187,202.266083 295.975601,202.16096 295.905231,202.039237 C295.834861,201.917513 295.820263,201.792103 295.861436,201.663003 C295.902609,201.533902 295.981341,201.42509 296.097635,201.336564 C296.213929,201.248038 296.346346,201.15398 296.494889,201.054389 C296.643433,200.954797 296.795569,200.862583 296.9513,200.777746 C297.107032,200.692908 297.256873,200.620982 297.400827,200.561965 C297.544781,200.502947 297.669897,200.473439 297.776177,200.473439 C297.864744,200.473439 297.904437,200.514013 297.895258,200.595162 C297.886079,200.676311 297.89357,200.76668 297.917732,200.866272 C297.941893,200.965863 298.022451,201.056232 298.159407,201.137381 C298.296363,201.21853 298.550828,201.259104 298.922809,201.259104 Z M304.32198,201.856652 C304.137849,201.996819 303.890553,202.127762 303.580085,202.249485 C303.269618,202.371208 302.985966,202.432069 302.729122,202.432069 C302.472278,202.432069 302.346106,202.373053 302.3506,202.255018 C302.355095,202.136983 302.454252,202.004196 302.648075,201.856652 L309.044198,196.987741 C309.334932,196.766426 309.6367,196.60413 309.94951,196.50085 C310.262319,196.397569 310.520572,196.34593 310.724276,196.34593 C310.92798,196.34593 311.052982,196.395725 311.099285,196.495317 C311.145588,196.594909 311.018529,196.759049 310.718103,196.987741 L304.32198,201.856652 Z M311.565296,195.018045 C311.846339,194.804107 312.167697,194.625213 312.52938,194.481358 C312.891063,194.337503 313.200321,194.265577 313.457165,194.265577 C313.714009,194.265577 313.834293,194.337503 313.818021,194.481358 C313.801749,194.625213 313.653094,194.804107 313.372051,195.018045 C313.091008,195.231983 312.769649,195.410877 312.407967,195.554732 C312.046284,195.698587 311.737025,195.770513 311.480182,195.770513 C311.223338,195.770513 311.103053,195.698587 311.119325,195.554732 C311.135597,195.410877 311.284253,195.231983 311.565296,195.018045 Z M309.803193,201.259104 C310.095464,201.259104 310.413916,201.203776 310.758558,201.093119 C311.103201,200.982461 311.406348,200.827543 311.668009,200.628359 C311.784303,200.539833 311.868554,200.460529 311.920765,200.390446 C311.972975,200.320363 311.984914,200.253969 311.95658,200.191263 C311.928246,200.128557 311.860058,200.065852 311.752014,200.003146 C311.64397,199.94044 311.487842,199.872203 311.283626,199.798431 C311.027939,199.709905 310.830241,199.617691 310.690525,199.521788 C310.55081,199.425885 310.48182,199.31154 310.483556,199.178751 C310.485291,199.045962 310.565227,198.887355 310.723367,198.702926 C310.881507,198.518496 311.130169,198.297184 311.469359,198.038983 C311.827931,197.766028 312.216581,197.52074 312.63532,197.303114 C313.054059,197.085487 313.480107,196.90106 313.913478,196.749828 C314.346849,196.598596 314.769398,196.484252 315.181139,196.406791 C315.59288,196.329331 315.971451,196.290601 316.316861,196.290601 C316.679985,196.290601 316.970711,196.323798 317.189046,196.390193 C317.407382,196.456587 317.557203,196.541424 317.638516,196.644704 C317.719829,196.747985 317.744953,196.858641 317.713888,196.976675 C317.682823,197.09471 317.6043,197.201678 317.478315,197.297581 C317.18758,197.518896 316.874372,197.72361 316.538681,197.911728 C316.20299,198.099846 315.937725,198.193903 315.742878,198.193903 C315.680881,198.193903 315.645536,198.173616 315.63684,198.133042 C315.628145,198.092467 315.61953,198.031607 315.610996,197.950458 C315.581732,197.817668 315.518551,197.710701 315.42145,197.629552 C315.324349,197.548403 315.099085,197.504141 314.745652,197.496764 C314.525069,197.489386 314.266271,197.526272 313.96925,197.607421 C313.672229,197.68857 313.397737,197.825045 313.145767,198.016852 C313.029474,198.105378 312.954705,198.179149 312.921459,198.238166 C312.888214,198.297183 312.897663,198.350667 312.949807,198.398619 C313.001952,198.44657 313.084885,198.496366 313.198609,198.548006 C313.312333,198.599646 313.467289,198.658663 313.663483,198.725057 C313.867699,198.798829 314.039662,198.883665 314.179378,198.979568 C314.319094,199.075472 314.394308,199.193505 314.405023,199.333671 C314.415739,199.473837 314.343199,199.645354 314.187401,199.848226 C314.031603,200.051099 313.764731,200.296386 313.386776,200.584096 C312.99913,200.879183 312.570545,201.144757 312.101008,201.380827 C311.631471,201.616897 311.159471,201.816077 310.684994,201.978375 C310.210516,202.140673 309.751289,202.266083 309.307298,202.354609 C308.863307,202.443135 308.47304,202.487398 308.136486,202.487398 C307.737935,202.487398 307.430748,202.443135 307.214916,202.354609 C306.999084,202.266083 306.855985,202.16096 306.785616,202.039237 C306.715246,201.917513 306.700647,201.792103 306.74182,201.663003 C306.782994,201.533902 306.861726,201.42509 306.978019,201.336564 C307.094313,201.248038 307.22673,201.15398 307.375274,201.054389 C307.523818,200.954797 307.675953,200.862583 307.831685,200.777746 C307.987416,200.692908 308.137257,200.620982 308.281211,200.561965 C308.425165,200.502947 308.550281,200.473439 308.656561,200.473439 C308.745128,200.473439 308.784821,200.514013 308.775642,200.595162 C308.766463,200.676311 308.773954,200.76668 308.798116,200.866272 C308.822277,200.965863 308.902835,201.056232 309.039791,201.137381 C309.176748,201.21853 309.431212,201.259104 309.803193,201.259104 Z" id="Analysis-Copy-4" fill="#61646D" opacity="0.800000012"></path>
            </g>
        </g>
    </g>
</svg>