<?xml version="1.0" standalone="no"?><!DOCTYPE svg PUBLIC "-//W3C//DTD SVG 1.1//EN" "http://www.w3.org/Graphics/SVG/1.1/DTD/svg11.dtd"><svg class="icon" width="200px" height="200.00px" viewBox="0 0 1024 1024" version="1.1" xmlns="http://www.w3.org/2000/svg"><path d="M338.048 349.248"  /><path d="M533.44 75.968c-244.224 0-442.176 197.952-442.176 442.176s197.952 442.176 442.176 442.176 442.176-197.952 442.176-442.176S777.664 75.968 533.44 75.968zM758.336 433.408c-2.496 188.736-123.2 318.016-303.36 326.144-74.304 3.392-128.128-20.608-174.976-50.368 54.912 8.768 123.008-13.184 159.424-44.352-53.824-5.248-85.696-32.64-100.608-76.736 15.552 2.688 31.936 1.984 46.72-1.152-48.576-16.256-83.264-46.272-85.056-109.184 13.632 6.208 27.84 12.032 46.72 13.184-36.352-20.672-63.232-96.256-32.448-146.24C368.704 403.84 433.6 452.096 540.16 458.624c-26.752-114.368 124.8-176.384 188.224-99.52 26.816-5.184 48.64-15.36 69.632-26.432-8.64 26.56-25.28 45.12-45.568 59.968 22.272-3.008 41.984-8.448 58.816-16.768C800.832 397.568 777.984 417.024 758.336 433.408z"  /></svg>