<?xml version="1.0" standalone="no"?><!DOCTYPE svg PUBLIC "-//W3C//DTD SVG 1.1//EN" "http://www.w3.org/Graphics/SVG/1.1/DTD/svg11.dtd"><svg class="icon" width="200px" height="200.00px" viewBox="0 0 1024 1024" version="1.1" xmlns="http://www.w3.org/2000/svg"><path d="M583.395562 511.99386c-12.384052 0-24.836665 12.440333-24.836665 24.812105 0 12.568247 12.453636 24.857131 24.836665 24.857131 18.773576 0 31.06246-12.288884 31.06246-24.857131C614.459045 524.434194 602.169137 511.99386 583.395562 511.99386"  /><path d="M719.961914 511.99386c-12.290931 0-24.673959 12.440333-24.673959 24.812105 0 12.568247 12.384052 24.857131 24.673959 24.857131 18.609847 0 31.06246-12.288884 31.06246-24.857131C751.025397 524.434194 738.57176 511.99386 719.961914 511.99386"  /><path d="M328.873728 331.923692c-18.563798 0-37.406958 12.277628-37.406958 30.968315 0 18.608823 18.84316 31.072693 37.406958 31.072693 18.61087 0 30.970362-12.464893 30.970362-31.072693C359.843066 344.20132 347.483574 331.923692 328.873728 331.923692"  /><path d="M502.659773 393.95242c18.679431 0 31.06246-12.441357 31.06246-31.061436 0-18.701944-12.384052-30.979572-31.06246-30.979572-18.61087 0-37.313837 12.277628-37.313837 30.979572C465.345935 381.512087 484.048903 393.95242 502.659773 393.95242"  /><path d="M512.034281 76.882018C271.83157 76.882018 76.869227 271.702122 76.869227 511.99386c0 240.281505 194.96132 435.136402 435.165054 435.136402 240.22727 0 435.07091-194.854896 435.07091-435.136402C947.105191 271.702122 752.261551 76.882018 512.034281 76.882018M409.539932 648.714731c-30.992875 0-55.900148-6.319939-86.962607-12.452613l-86.799902 43.537586 24.814152-74.715679c-62.126966-43.420929-99.346659-99.432617-99.346659-167.582763 0-118.134561 111.799272-211.166397 248.296039-211.166397 122.059963 0 229.009787 74.28282 250.511497 174.345794-7.882528-0.886183-15.858176-1.457188-23.903409-1.457188-117.956505 0-211.098859 88.018659-211.098859 196.488093 0 18.025539 2.844791 35.421744 7.67275 52.024887C425.048137 648.341225 417.305803 648.714731 409.539932 648.714731M775.768941 735.671199l18.702967 62.075801-68.096934-37.310767c-24.836665 6.225795-49.788963 12.452613-74.509994 12.452613-118.142747 0-211.168444-80.730673-211.168444-180.164313 0-99.257631 93.025697-180.164313 211.168444-180.164313 111.542422 0 210.889081 80.906681 210.889081 180.164313C862.754061 648.714731 825.627489 698.314383 775.768941 735.671199"  /></svg>