<?xml version="1.0" encoding="utf-8"?>
<!-- Generator: Adobe Illustrator 21.0.0, SVG Export Plug-In . SVG Version: 6.00 Build 0)  -->
<svg version="1.1" id="图层_1" xmlns="http://www.w3.org/2000/svg" xmlns:xlink="http://www.w3.org/1999/xlink" x="0px" y="0px"
	 viewBox="0 0 150 150" style="enable-background:new 0 0 150 150;" xml:space="preserve">
<path d="M150,76.9c0,16.7-4.8,31.8-14.3,45.2c-9.5,13.4-21.8,22.6-37,27.8c-1.8,0.3-3,0.1-3.9-0.7c-0.8-0.8-1.3-1.9-1.2-3V125
	c0-6.5-1.7-11.2-5.1-14.2c3.7-0.4,7-1,10-1.8c3.2-0.9,6.3-2.2,9.2-3.9c3-1.7,5.7-4,7.9-6.7c2.1-2.6,3.8-6.1,5.2-10.5
	c1.3-4.4,2-9.4,2-15.1c0-8.1-2.6-14.9-7.7-20.6c2.4-6.1,2.1-12.9-0.8-20.4c-1.8-0.6-4.5-0.2-7.9,1.1c-3.1,1.2-6.1,2.7-9,4.4
	l-3.7,2.4C87.7,38,81.3,37.1,75,37.1c-6.4,0-12.7,0.9-18.7,2.6c-1.4-0.9-2.7-1.8-4.1-2.7c-1.7-1.1-4.4-2.3-8.2-3.9
	c-3.7-1.5-6.5-1.9-8.4-1.3c-2.9,7.5-3.1,14.3-0.7,20.4c-5.1,5.7-7.7,12.5-7.7,20.6c0,5.7,0.7,10.7,2,15c1.3,4.3,3,7.8,5.1,10.5
	c2.1,2.7,4.7,4.9,7.9,6.7c3.2,1.8,6.2,3.1,9.2,3.9c3,0.8,6.3,1.4,10,1.8c-2.6,2.4-4.2,5.8-4.8,10.3c-1.4,0.7-2.9,1.2-4.4,1.5
	c-1.6,0.3-3.4,0.5-5.6,0.5c-2.2,0-4.3-0.7-6.4-2.1c-2.1-1.4-3.9-3.5-5.4-6.3c-1.2-2.1-2.8-3.8-4.7-5.2c-1.9-1.3-3.5-2.1-4.8-2.4
	l-1.9-0.3c-1.4,0-2.3,0.1-2.8,0.5c-0.5,0.3-0.7,0.7-0.5,1.2c0.2,0.5,0.5,0.9,0.9,1.4c0.4,0.5,0.8,0.9,1.3,1.2l0.7,0.5
	c1.4,0.7,2.8,1.9,4.2,3.8c1.4,1.9,2.4,3.6,3.1,5.1l1,2.3c0.8,2.5,2.3,4.6,4.3,6.2c2,1.6,4.2,2.6,6.5,3c2.3,0.4,4.6,0.7,6.8,0.7
	c2.2,0,4-0.1,5.4-0.4l2.2-0.4c0,2.5,0,5.5,0,8.9l0,5.4c0,1.1-0.4,2.2-1.3,3c-0.8,0.8-2.1,1-3.9,0.7c-15.1-5.1-27.4-14.4-37-27.8
	C4.8,108.7,0,93.6,0,76.9c0-13.9,3.3-26.8,10.1-38.6c6.5-11.6,15.9-21.2,27.3-28C48.8,3.4,61.4,0,75,0s26.2,3.4,37.6,10.3
	c11.4,6.8,20.8,16.4,27.3,28C146.6,50.1,150,62.9,150,76.9L150,76.9z"/>
</svg>
