<?xml version="1.0" encoding="utf-8"?>
<!-- Generator: Adobe Illustrator 21.0.0, SVG Export Plug-In . SVG Version: 6.00 Build 0)  -->
<svg version="1.1" id="图层_1" xmlns="http://www.w3.org/2000/svg" xmlns:xlink="http://www.w3.org/1999/xlink" x="0px" y="0px"
	 viewBox="0 0 150 149.7" style="enable-background:new 0 0 150 149.7;" xml:space="preserve">
<style type="text/css">
	.st0{fill:#FFFFFF;}
</style>
<path d="M150,74.9c0,41.4-33.6,75-75,75s-75-33.6-75-75s33.6-75,75-75C116.5-0.1,150,33.3,150,74.9z"/>
<path class="st0" d="M100.4,30H46.9c-9.3,0-16.8,7.6-16.8,16.8v53.6c0,9.3,7.6,16.8,16.8,16.8h53.5c9.3,0,16.8-7.6,16.8-16.8V46.8
	C117.2,37.6,109.6,30,100.4,30z M105.3,40.1h2V55H92.5V40.2C92.5,40.2,105.3,40.1,105.3,40.1z M61.1,64.7c2.8-3.8,7.4-6.4,12.5-6.4
	c5.1,0,9.6,2.5,12.5,6.4c0.4,0.5,0.7,0.9,0.9,1.4c1.3,2.2,2,4.7,2,7.5C89,82,82.1,89,73.6,89c-8.4,0-15.4-6.8-15.4-15.4
	c0-2.8,0.8-5.3,2-7.5C60.6,65.6,60.8,65.1,61.1,64.7z M108.7,100.3c0,4.6-3.8,8.4-8.4,8.4H46.9c-4.6,0-8.4-3.8-8.4-8.4V64.7h13
	c-0.3,0.8-0.7,1.6-0.8,2.5c-0.5,2.1-0.9,4.2-0.9,6.4c0,13.1,10.6,23.8,23.8,23.8s23.8-10.6,23.8-23.8c0-2.2-0.3-4.5-0.9-6.4
	c-0.3-0.8-0.5-1.7-0.8-2.5h13V100.3z"/>
</svg>
