<?xml version="1.0" encoding="UTF-8"?>
<svg width="659px" height="87px" viewBox="0 0 659 87" version="1.1" xmlns="http://www.w3.org/2000/svg" xmlns:xlink="http://www.w3.org/1999/xlink">
    <!-- Generator: Sketch 51.2 (57519) - http://www.bohemiancoding.com/sketch -->
    <title>Group</title>
    <desc>Created with Sketch.</desc>
    <defs></defs>
    <g id="CODE-Network-0.5-中文-" stroke="none" stroke-width="1" fill="none" fill-rule="evenodd">
        <g id="Artboard" transform="translate(-104.000000, -1275.000000)" fill="#FFFFFF">
            <g id="Group" transform="translate(104.000000, 1275.000000)">
                <path d="M98.5660848,50.4600002 L103.366584,50.4600002 C106.49987,50.4600002 109.0399,52.99183 109.0399,56.1150002 C109.0399,59.2381705 106.49987,61.7700002 103.366584,61.7700002 L98.5660848,61.7700002 L98.5660848,62.6384734 L114.774154,71.9754767 L135.09595,60.7022588 C138.255007,58.9498185 142.241163,60.0818383 143.99928,63.2306958 C145.757397,66.3795533 144.62171,70.3528403 141.462653,72.1052807 L117.896569,85.1782201 C115.884281,86.2945073 113.431544,86.2747106 111.437655,85.1260886 L88.7443882,72.0531492 C86.720413,70.8871952 85.4738155,68.7339019 85.4738155,66.4037698 L85.4738155,61.7700002 L80.6733167,61.7700002 C77.5400304,61.7700002 75,59.2381705 75,56.1150002 C75,52.99183 77.5400304,50.4600002 80.6733167,50.4600002 L85.4738155,50.4600002 L85.4738155,48.7200002 L80.6733167,48.7200002 C77.5400304,48.7200002 75,46.1881705 75,43.0650002 C75,39.94183 77.5400304,37.4100002 80.6733167,37.4100002 L85.4738155,37.4100002 L85.4738155,35.6700002 L80.6733167,35.6700002 C77.5400304,35.6700002 75,33.1381705 75,30.0150002 C75,26.89183 77.5400304,24.3600002 80.6733167,24.3600002 L85.4738155,24.3600002 L85.4738155,19.4237698 C85.4738155,17.0801331 86.7347809,14.9165178 88.7772655,13.755577 L111.470532,0.8568075 C113.447823,-0.267077142 115.868866,-0.286482657 117.864033,0.80556134 L141.430118,13.7043309 C144.599108,15.4388606 145.757414,19.4056547 144.017266,22.5644136 C142.277118,25.7231725 138.297475,26.8777384 135.128485,25.1432086 L114.773537,14.0020373 L98.5660848,23.2142936 L98.5660848,24.3600002 L103.366584,24.3600002 C106.49987,24.3600002 109.0399,26.89183 109.0399,30.0150002 C109.0399,33.1381705 106.49987,35.6700002 103.366584,35.6700002 L98.5660848,35.6700002 L98.5660848,37.4100002 L103.366584,37.4100002 C106.49987,37.4100002 109.0399,39.94183 109.0399,43.0650002 C109.0399,46.1881705 106.49987,48.7200002 103.366584,48.7200002 L98.5660848,48.7200002 L98.5660848,50.4600002 Z" id="Combined-Shape" fill-rule="nonzero"></path>
                <path d="M202.210095,63.0976473 L186.528213,72.1563935 L170.851473,63.1007316 L170.851473,22.8992684 L186.528213,13.8487471 L202.210095,22.9033808 L202.210095,63.0976473 Z M211.849727,13.6287299 L189.741082,0.860534621 C187.751674,-0.286844874 185.303725,-0.286844874 183.315345,0.860534621 L161.212868,13.6287299 C159.222432,14.7761094 158,16.8971165 158,19.1908474 L158,66.8091526 C158,69.1039116 159.222432,71.2238906 161.212868,72.3733263 L183.315345,85.1404935 C184.309535,85.7152114 185.416818,86 186.528213,86 C187.638581,86 188.745864,85.7152114 189.741082,85.1404935 L211.849727,72.3733263 C213.839135,71.2238906 215.061568,69.1039116 215.061568,66.8091526 L215.061568,19.1908474 C215.061568,16.8971165 213.839135,14.7761094 211.849727,13.6287299 Z" id="Fill-1"></path>
                <path d="M287.835591,79.5816906 L287.835591,29.5583555 L319.889099,82.8879989 C321.070364,84.8547178 323.176902,86 325.387276,86 C325.958889,86 326.535642,85.9249501 327.102115,85.7676537 C329.882046,84.9976211 331.806613,82.4644296 331.806613,79.5816906 L331.806613,6.41728132 C331.806613,2.87657051 328.933127,0 325.387276,0 C321.843481,0 318.971022,2.87657051 318.971022,6.41728132 L318.971022,56.4437006 L286.917514,3.11508529 C285.430909,0.642550597 282.476205,-0.532545935 279.702442,0.234402458 C276.923539,1.00546317 275,3.53454232 275,6.41728132 L275,79.5816906 C275,83.1265137 277.873486,86 281.417281,86 C284.962104,86 287.835591,83.1265137 287.835591,79.5816906" id="Fill-1"></path>
                <path d="M13.1503906,13.0397949 L13.1503906,73.050293 L30.9541473,73.050293 L48.7912598,61.746414 L48.7912598,23.463343 L31.0703995,13.0397949 L13.1503906,13.0397949 Z M6.65039062,0.0397949219 L32.840332,0.0397949219 C33.99919,0.0397949219 35.136977,0.349611264 36.1358484,0.937155178 L58.5867761,14.1429657 C60.5721923,15.310803 61.7912598,17.4421903 61.7912598,19.7456055 L61.7912598,65.3225098 C61.7912598,67.5491995 60.6514593,69.620929 58.770645,70.8128539 L36.3197172,85.0406371 C35.2790484,85.7001381 34.0723764,86.050293 32.840332,86.050293 L6.65039062,86.050293 C3.06053975,86.050293 0.150390625,83.1401438 0.150390625,79.550293 L0.150390625,6.53979492 C0.150390625,2.94994405 3.06053975,0.0397949219 6.65039062,0.0397949219 Z" id="Path-6" fill-rule="nonzero"></path>
                <path d="M470.197266,68.1465188 L470.197266,35.0432129 C470.197266,31.7295044 472.883557,29.0432129 476.197266,29.0432129 C479.510974,29.0432129 482.197266,31.7295044 482.197266,35.0432129 L482.197266,67.9240339 L491.377954,73.1041966 L499.719727,68.1163639 L499.719727,35 C499.719727,31.6862915 502.406018,29 505.719727,29 C509.033435,29 511.719727,31.6862915 511.719727,35 L511.719727,71.5195312 C511.719727,73.6303601 510.610546,75.585916 508.798876,76.6691756 L494.544482,85.192369 C492.694723,86.2984036 490.393863,86.3273786 488.516838,85.2682757 L476.391718,78.4267307 L464.571273,85.2408581 C462.705049,86.3166795 460.405331,86.3095214 458.54584,85.2221035 L443.971133,76.6989101 C442.131012,75.6228193 441,73.6512014 441,71.5195312 L441,35 C441,31.6862915 443.686292,29 447,29 C450.313708,29 453,31.6862915 453,35 L453,68.0776516 L461.596302,73.1047129 L470.197266,68.1465188 Z" id="Combined-Shape" fill-rule="nonzero"></path>
                <path d="M536.787512,29.8662368 C538.651239,28.7388172 540.979593,28.7100075 542.870645,29.7909676 L558.573282,38.1952645 C560.442313,39.2636368 561.595703,41.2514632 561.595703,43.4042975 L561.595703,71.3569342 C561.595703,73.4986384 560.454108,75.4779537 558.600282,76.5504403 L542.897645,85.0562996 C540.992644,86.158393 538.637155,86.1290785 536.76017,84.9799177 L521.867104,76.4740583 C520.085964,75.3835772 519,73.4453807 519,71.3569342 L519,43.4042975 C519,41.3044508 520.097759,39.3573984 521.894445,38.2705336 L536.787512,29.8662368 Z M531,46.7871318 L531,67.995159 L539.941648,72.8807907 L549.595703,67.8963574 L549.595703,46.885659 L539.940786,41.9603015 L531,46.7871318 Z" id="Path-13" fill-rule="nonzero"></path>
                <path d="M406,29 L428,29 C431.313708,29 434,31.6862915 434,35 C434,38.3137085 431.313708,41 428,41 L406,41 L406,68.0487569 L413.758243,73.0163009 L425.406913,66.1606208 C428.262735,64.4798627 431.940359,65.4324397 433.621117,68.2882611 C435.301876,71.1440826 434.349299,74.8217069 431.493477,76.5024651 L416.669258,85.2270745 C414.721233,86.3735607 412.294191,86.3279609 410.390606,85.1091098 L396.76463,76.3845004 C395.042032,75.2815339 394,73.3769964 394,71.331543 L394,20 C394,16.6862915 396.686292,14 400,14 C403.313708,14 406,16.6862915 406,20 L406,29 Z" id="Combined-Shape" fill-rule="nonzero"></path>
                <path d="M629,52.3659022 L632.720403,55.496985 L647.839193,31.7752361 C649.620181,28.9808227 653.329276,28.1592791 656.12369,29.940267 C658.918103,31.721255 659.739647,35.4303506 657.958659,38.2247639 L642.059733,63.1705647 C642.033929,63.2110516 642.00772,63.2511244 641.981116,63.2907811 L656.478686,75.4919048 C659.014012,77.6256301 659.339574,81.4106445 657.205849,83.9459709 C655.072124,86.4812974 651.287109,86.8068595 648.751783,84.6731342 L629,68.0500763 L629,79.8144531 C629,83.1281616 626.313708,85.8144531 623,85.8144531 C619.686292,85.8144531 617,83.1281616 617,79.8144531 L617,6 C617,2.6862915 619.686292,0 623,0 C626.313708,0 629,2.6862915 629,6 L629,52.3659022 Z" id="Combined-Shape" fill-rule="nonzero"></path>
                <path d="M581,80.1070563 C581,83.4207648 578.313708,86.1070563 575,86.1070563 C571.686292,86.1070563 569,83.4207648 569,80.1070563 L569,43.4127204 C569,41.3154762 570.095061,39.3704429 571.888198,38.2827413 L585.757033,29.8700216 C587.621335,28.7391516 589.952399,28.7087068 591.845599,29.7905019 L606.568317,38.2032217 C609.445443,39.8472429 610.445073,43.5123575 608.801051,46.3894842 C607.15703,49.2666109 603.491916,50.2662404 600.614789,48.6222191 L588.959768,41.9624142 L581,46.790743 L581,80.1070563 Z" id="Path-30" fill-rule="nonzero"></path>
                <path d="M351,63 L351,68.1388474 L363,73.4721807 L378.563169,66.5552166 C381.591274,65.2093922 385.137045,66.57315 386.482869,69.6012551 C387.828694,72.6293602 386.464936,76.1751307 383.436831,77.5209552 L365.436831,85.5209552 C363.885439,86.2104628 362.114561,86.2104628 360.563169,85.5209552 L342.563169,77.5209552 C340.396401,76.5579472 339,74.4092182 339,72.0380859 L339,43 C339,40.6288677 340.396401,38.4801387 342.563169,37.5171307 L360.563169,29.5171307 C362.114561,28.8276231 363.885439,28.8276231 365.436831,29.5171307 L383.436831,37.5171307 C385.603599,38.4801387 387,40.6288677 387,43 L387,57 C387,60.3137085 384.313708,63 381,63 L351,63 Z M351,51 L375,51 L375,46.8992385 L363,41.5659052 L351,46.8992385 L351,51 Z" id="Path-32" fill-rule="nonzero"></path>
            </g>
        </g>
    </g>
</svg>