<?xml version="1.0" encoding="utf-8"?>
<!-- Generator: Adobe Illustrator 21.0.0, SVG Export Plug-In . SVG Version: 6.00 Build 0)  -->
<svg version="1.1" id="图层_1" xmlns="http://www.w3.org/2000/svg" xmlns:xlink="http://www.w3.org/1999/xlink" x="0px" y="0px"
	 viewBox="0 0 150 150" style="enable-background:new 0 0 150 150;" xml:space="preserve">
<path d="M75,0C33.6,0,0,33.6,0,75s33.6,75,75,75s75-33.6,75-75S116.4,0,75,0z M117.9,42.5L111,49c-0.6,0.5-0.9,1.2-0.8,1.9v48.2
	c-0.1,0.7,0.2,1.5,0.8,1.9l6.7,6.5v1.5H84.1v-1.4l6.9-6.7c0.7-0.7,0.7-0.9,0.7-1.9V60l-19.3,48.8h-2.6L47.5,60v32.7
	c-0.2,1.4,0.3,2.8,1.3,3.8l9,10.9v1.5H32.1v-1.5l9-10.9c1-1,1.4-2.4,1.2-3.8V54.9c0.1-1.1-0.3-2.1-1.1-2.8l-8-9.6V41h24.9l19.2,42.1
	L94.2,41h23.7V42.5z"/>
</svg>
