<?xml version="1.0" encoding="UTF-8"?>
<svg width="537px" height="360px" viewBox="0 0 537 360" version="1.1" xmlns="http://www.w3.org/2000/svg" xmlns:xlink="http://www.w3.org/1999/xlink">
    <!-- Generator: Sketch 51.2 (57519) - http://www.bohemiancoding.com/sketch -->
    <title>Artboard 2 Copy</title>
    <desc>Created with Sketch.</desc>
    <defs></defs>
    <g id="CODE-Network-0.5-中文-" stroke="none" stroke-width="1" fill="none" fill-rule="evenodd">
        <g id="Artboard-2" transform="translate(-140.000000, -1300.000000)">
            <g id="Group-Copy-2" transform="translate(140.000000, 1300.000000)">
                <rect id="Rectangle-7-Copy-11" stroke="#69707A" stroke-linecap="round" stroke-linejoin="round" fill-rule="nonzero" x="136" y="308" width="176" height="17"></rect>
                <polygon id="Rectangle-7-Copy-14" stroke="#69707A" stroke-linecap="round" stroke-linejoin="round" fill-rule="nonzero" points="312 307.983241 381 266 381 283.016759 312 325"></polygon>
                <path d="M216.330123,276.323576 C216.112026,276.503517 215.980412,276.659985 215.935278,276.792985 C215.890144,276.925985 215.890919,277.043336 215.937603,277.145042 C215.984287,277.246748 216.058226,277.332805 216.159421,277.403217 C216.260616,277.473629 216.347897,277.540128 216.421267,277.602716 C216.604693,277.759187 216.738373,277.915655 216.822312,278.072125 C216.90625,278.228596 216.928294,278.396799 216.888444,278.57674 C216.848594,278.756681 216.730556,278.96009 216.534324,279.186972 C216.338093,279.413855 216.06041,279.672027 215.701268,279.961498 C214.745922,280.736027 213.732704,281.359944 212.661581,281.833267 C211.590458,282.30659 210.526079,282.558895 209.468412,282.590189 C209.076372,282.605836 208.775883,282.564764 208.566938,282.466969 C208.357992,282.369175 208.204427,282.261603 208.106238,282.144251 C208.013955,282.042545 207.981793,281.927149 208.009751,281.798061 C208.037708,281.668973 208.10327,281.537931 208.206438,281.404931 C208.309606,281.271931 208.43912,281.142845 208.594985,281.017668 C208.75085,280.892492 208.914096,280.786876 209.084727,280.700817 C209.409409,280.5287 209.664433,280.432863 209.849805,280.413304 C210.035177,280.393745 210.146177,280.426995 210.182809,280.513053 C210.212343,280.591289 210.240982,280.67539 210.268728,280.765361 C210.296473,280.855331 210.341991,280.937477 210.405283,281.011801 C210.468575,281.086124 210.55675,281.146756 210.669811,281.193697 C210.782873,281.240638 210.938888,281.264108 211.137861,281.264108 C211.303672,281.264108 211.500596,281.236726 211.728639,281.181962 C211.956682,281.127197 212.194516,281.048963 212.442146,280.947257 C212.689776,280.845551 212.943349,280.718421 213.202872,280.565862 C213.462396,280.413303 213.710684,280.239232 213.947746,280.043644 C214.175325,279.85588 214.328857,279.691588 214.408345,279.550764 C214.487834,279.409941 214.527332,279.286722 214.526842,279.181105 C214.526352,279.075487 214.492091,278.987474 214.424058,278.917062 C214.356025,278.84665 214.283537,278.791886 214.206591,278.752769 C214.000625,278.635416 213.829313,278.508285 213.692651,278.371374 C213.555989,278.234462 213.489527,278.072126 213.493261,277.884362 C213.496995,277.696597 213.588998,277.47363 213.76927,277.215453 C213.949543,276.957277 214.25303,276.652164 214.679742,276.300105 C215.1349,275.924576 215.61636,275.594037 216.124136,275.308478 C216.631912,275.02292 217.132231,274.786261 217.625108,274.598497 C218.117985,274.410732 218.589195,274.269911 219.038752,274.176028 C219.488309,274.082146 219.882442,274.039117 220.221162,274.046941 C220.601336,274.054764 220.890852,274.11344 221.089719,274.222969 C221.288587,274.332499 221.398303,274.469408 221.418871,274.633702 C221.439438,274.797997 221.372943,274.975979 221.219383,275.167656 C221.065822,275.359332 220.83085,275.541226 220.514459,275.713344 C220.352117,275.799403 220.196606,275.867857 220.047919,275.91871 C219.899232,275.969563 219.765367,276.004769 219.646319,276.024327 C219.527272,276.043886 219.431634,276.045842 219.359403,276.030195 C219.287172,276.014548 219.250487,275.983254 219.249348,275.936313 C219.23282,275.881548 219.210968,275.820917 219.183792,275.754417 C219.156616,275.687917 219.116111,275.627286 219.062275,275.572521 C219.008439,275.517756 218.936831,275.470816 218.84745,275.431698 C218.758068,275.392581 218.642909,275.373022 218.50197,275.373022 C218.344449,275.373022 218.167953,275.40236 217.972477,275.461036 C217.777,275.519713 217.581215,275.594035 217.385115,275.684006 C217.189016,275.773976 216.99735,275.875681 216.810111,275.989122 C216.622872,276.102563 216.462877,276.214046 216.330123,276.323576 Z M227.106909,278.764504 C227.410348,278.514151 227.659272,278.295096 227.853689,278.107331 C228.048106,277.919566 228.177647,277.763098 228.242316,277.637922 C228.306985,277.512745 228.298489,277.418864 228.216828,277.356276 C228.135167,277.293688 227.974127,277.262394 227.733701,277.262394 C227.534727,277.262394 227.32656,277.281953 227.109191,277.32107 C226.891822,277.360188 226.656956,277.432555 226.404584,277.538172 C226.152212,277.64379 225.877006,277.790479 225.578957,277.978243 C225.280908,278.166008 224.951722,278.408534 224.591388,278.705828 L220.551875,282.038633 C220.381191,282.179457 220.168785,282.294852 219.914652,282.384823 C219.660519,282.474793 219.412647,282.52369 219.17103,282.531513 C218.929412,282.539337 218.795328,282.494352 218.768774,282.396558 C218.74222,282.298764 218.814285,282.179457 218.984969,282.038633 L222.953363,278.764504 C223.560241,278.263798 223.934561,277.888275 224.076335,277.637922 C224.218108,277.387569 224.048571,277.262394 223.567719,277.262394 C223.368746,277.262394 223.160578,277.281953 222.94321,277.32107 C222.725841,277.360188 222.493047,277.432555 222.244821,277.538172 C221.996594,277.64379 221.723461,277.790479 221.425412,277.978243 C221.127363,278.166008 220.798176,278.408534 220.437842,278.705828 L216.39833,282.038633 C216.227645,282.179457 216.012869,282.296808 215.753995,282.39069 C215.495121,282.484573 215.241329,282.531513 214.992613,282.531513 C214.743896,282.531513 214.612183,282.484573 214.597469,282.39069 C214.582755,282.296808 214.660739,282.179457 214.831424,282.038633 L221.530756,276.51134 C221.70144,276.370516 221.894,276.262944 222.108442,276.188621 C222.322884,276.114297 222.57104,276.077136 222.852919,276.077136 C223.134798,276.077136 223.279841,276.118209 223.288052,276.200356 C223.296263,276.282503 223.22451,276.386163 223.072791,276.51134 L222.318938,277.133307 C222.858141,276.804719 223.399952,276.526988 223.944386,276.300105 C224.488821,276.073223 224.947569,275.959784 225.320644,275.959784 C225.842948,275.959784 226.125015,276.067356 226.166852,276.282502 C226.208689,276.497649 226.058277,276.804718 225.71561,277.203718 C226.357876,276.851659 227.012216,276.556326 227.678652,276.317708 C228.345087,276.079091 228.927013,275.959784 229.424446,275.959784 C229.731196,275.959784 229.978976,276.006724 230.167791,276.100606 C230.356607,276.194489 230.457734,276.333354 230.471177,276.517207 C230.484619,276.70106 230.402682,276.925983 230.225363,277.191983 C230.048043,277.457983 229.746033,277.767008 229.319322,278.119066 L224.568627,282.038633 C224.416908,282.16381 224.250696,282.275293 224.069986,282.373088 C223.889276,282.470882 223.644953,282.52369 223.337011,282.531513 C223.029068,282.539337 222.862108,282.506087 222.836123,282.431764 C222.810139,282.35744 222.910935,282.226398 223.138514,282.038633 L227.106909,278.764504 Z M231.042273,279.33953 C230.187659,280.051471 229.705431,280.563905 229.595575,280.876846 C229.485719,281.189787 229.671214,281.346255 230.152066,281.346255 C230.632918,281.346255 231.200984,281.168272 231.856281,280.812302 C232.511579,280.456331 233.209629,279.969324 233.950454,279.351265 C234.710244,278.71756 235.201345,278.214906 235.423772,277.843288 C235.646199,277.471671 235.530616,277.278041 235.07702,277.262394 C234.613941,277.254571 234.039372,277.420818 233.353296,277.761142 C232.667221,278.101465 231.896887,278.627589 231.042273,279.33953 Z M231.253327,281.545754 C230.579038,281.944754 230.01088,282.218573 229.548834,282.36722 C229.086788,282.515867 228.652653,282.590189 228.246416,282.590189 C227.840179,282.590189 227.556894,282.517823 227.396553,282.373088 C227.236211,282.228352 227.204142,282.01712 227.300343,281.739385 C227.396545,281.46165 227.622492,281.121332 227.97819,280.71842 C228.333889,280.315508 228.824652,279.855883 229.450495,279.33953 C230.218575,278.705825 230.94006,278.173833 231.614971,277.743539 C232.289882,277.313245 232.914961,276.965103 233.490227,276.699103 C234.065493,276.433103 234.587677,276.243386 235.056795,276.129944 C235.525913,276.016503 235.938712,275.959784 236.295206,275.959784 C236.693152,275.959784 236.919855,276.063444 236.97532,276.270767 C237.030785,276.478091 236.895476,276.781248 236.569391,277.180248 L237.166783,276.687368 C237.318503,276.562192 237.543953,276.429194 237.843141,276.28837 C238.142329,276.147547 238.424568,276.077136 238.689866,276.077136 C238.945681,276.084959 239.054867,276.157326 239.017427,276.294238 C238.979987,276.431149 238.885409,276.562192 238.73369,276.687368 L232.404172,281.909546 C232.252453,282.034722 232.041808,282.165764 231.772233,282.302676 C231.502658,282.439588 231.201468,282.511954 230.868654,282.519778 C230.702843,282.519778 230.593902,282.500219 230.541828,282.461102 C230.489754,282.421984 230.470557,282.371132 230.484238,282.308544 C230.497918,282.245956 230.537066,282.179457 230.601682,282.109045 C230.666298,282.038633 230.736534,281.972134 230.812394,281.909546 L231.253327,281.545754 Z M243.116742,277.262394 C242.826572,277.262394 242.510006,277.313246 242.167035,277.414952 C241.824063,277.516658 241.470992,277.65748 241.10781,277.837421 C240.744629,278.017362 240.376089,278.232506 240.00218,278.482858 C239.628272,278.733211 239.265897,279.003119 238.915046,279.292589 L235.586715,282.038633 C235.425513,282.171633 235.213107,282.287029 234.949492,282.384823 C234.685876,282.482617 234.44215,282.531513 234.218305,282.531513 C233.99446,282.531513 233.871633,282.480661 233.849821,282.378955 C233.828008,282.277249 233.892961,282.16381 234.04468,282.038633 L240.672894,276.570016 C240.843579,276.429192 241.0625,276.311841 241.329665,276.217959 C241.59683,276.124076 241.838186,276.077136 242.05374,276.077136 C242.269294,276.077136 242.392717,276.124076 242.424012,276.217959 C242.455307,276.311841 242.385613,276.429192 242.214929,276.570016 L241.219274,277.391482 C241.464574,277.250658 241.738601,277.098102 242.041365,276.933808 C242.344129,276.769514 242.655761,276.615001 242.976272,276.470266 C243.296782,276.325531 243.609567,276.204268 243.914635,276.106474 C244.219703,276.00868 244.492446,275.959784 244.732872,275.959784 C244.857231,275.959784 244.93301,275.979342 244.960213,276.01846 C244.987415,276.057577 244.988554,276.104518 244.96363,276.159283 C244.938705,276.214047 244.894531,276.272723 244.831108,276.335311 C244.767684,276.397899 244.702784,276.456575 244.636407,276.51134 C244.276073,276.808634 243.982458,277.00813 243.755554,277.109836 C243.52865,277.211542 243.315715,277.262394 243.116742,277.262394 Z M247.249607,277.520569 L244.063513,280.149261 C243.798004,280.36832 243.588201,280.548258 243.434097,280.689082 C243.279994,280.829905 243.178033,280.941389 243.12821,281.023536 C243.078387,281.105683 243.082182,281.162403 243.139593,281.193697 C243.197005,281.224991 243.304469,281.240638 243.461989,281.240638 C243.611219,281.240638 243.807859,281.201521 244.051913,281.123285 C244.295968,281.04505 244.517505,280.978551 244.716531,280.923786 C244.941621,280.861198 245.071897,280.863154 245.107364,280.929654 C245.14283,280.996154 245.027811,281.138931 244.762302,281.35799 C244.496793,281.577049 244.230731,281.758943 243.964109,281.903678 C243.697488,282.048414 243.430896,282.165765 243.164327,282.255735 C242.897758,282.345706 242.632697,282.412205 242.369134,282.455234 C242.105571,282.498264 241.844694,282.52369 241.586495,282.531513 C241.303425,282.539337 241.067757,282.521734 240.879484,282.478705 C240.691212,282.435675 240.583814,282.351574 240.557286,282.226397 C240.530759,282.101221 240.596062,281.931062 240.753199,281.715915 C240.910335,281.500768 241.197513,281.221081 241.614741,280.876846 L245.682701,277.520569 L245.18527,277.520569 C244.953135,277.520569 244.871178,277.459938 244.939396,277.338673 C245.007614,277.217409 245.179216,277.043338 245.454208,276.816456 C245.738682,276.58175 245.979859,276.413546 246.177746,276.311841 C246.375633,276.210135 246.582351,276.159283 246.797905,276.159283 L247.332643,276.159283 L248.072272,275.549051 C248.375711,275.298698 248.650957,275.110936 248.898018,274.985759 C249.145078,274.860583 249.438561,274.797996 249.778473,274.797996 C250.126677,274.797996 250.278222,274.850804 250.233114,274.956421 C250.188006,275.062039 250.042182,275.216551 249.795638,275.419963 L248.899549,276.159283 L250.192869,276.159283 C250.483038,276.159283 250.607639,276.212091 250.566677,276.317708 C250.525714,276.423326 250.371885,276.589573 250.105184,276.816456 C249.838483,277.043338 249.581903,277.217409 249.335438,277.338673 C249.088974,277.459938 248.808225,277.520569 248.493184,277.520569 L247.249607,277.520569 Z M252.760805,282.648866 C252.139014,282.648866 251.679285,282.551073 251.381607,282.355485 C251.083928,282.159897 250.967842,281.874342 251.033344,281.498813 C251.098847,281.123284 251.348592,280.66757 251.782587,280.131658 C252.216582,279.595747 252.850203,278.987477 253.683468,278.30683 C254.516734,277.626183 255.361462,277.019869 256.217679,276.487869 C257.073896,275.955869 257.90515,275.506023 258.711465,275.138317 C259.51778,274.770612 260.286101,274.488969 261.016451,274.293381 C261.7468,274.097793 262.397989,274 262.970037,274 C263.376274,274 263.690079,274.048896 263.911461,274.14669 C264.132842,274.244484 264.280176,274.365747 264.353467,274.510483 C264.426758,274.655218 264.436678,274.807774 264.383226,274.968157 C264.329775,275.128539 264.240223,275.267404 264.114567,275.384757 C264.007876,275.486463 263.897352,275.572521 263.782993,275.642932 C263.668634,275.713344 263.5842,275.764196 263.529689,275.79549 C263.457405,275.834608 263.354914,275.881548 263.222212,275.936313 C263.089511,275.991078 262.958599,276.034107 262.829473,276.065401 C262.604383,276.127989 262.464042,276.124077 262.408445,276.053665 C262.352848,275.983254 262.302006,275.89524 262.255917,275.789623 C262.209829,275.684005 262.127911,275.582301 262.010162,275.484507 C261.892412,275.386713 261.659439,275.337816 261.311236,275.337816 C260.92158,275.337816 260.473519,275.421918 259.967041,275.590124 C259.460563,275.75833 258.939829,275.979341 258.404824,276.253164 C257.869819,276.526988 257.334782,276.84188 256.799698,277.197851 C256.264614,277.553821 255.764759,277.923477 255.300118,278.30683 C254.835476,278.690183 254.440728,279.063751 254.115861,279.427545 C253.790994,279.791338 253.571874,280.114054 253.458495,280.395701 C253.345117,280.677348 253.356447,280.902271 253.492486,281.070477 C253.628526,281.238683 253.925127,281.318873 254.382299,281.311049 C254.623917,281.303226 254.85785,281.2778 255.084105,281.23477 C255.310361,281.191741 255.527739,281.138933 255.736248,281.076345 C255.944756,281.013756 256.147938,280.945301 256.345799,280.870978 C256.543659,280.796654 256.743888,280.720376 256.946489,280.642141 C257.324438,280.501317 257.560741,280.473936 257.655407,280.559994 C257.760748,280.630406 257.77072,280.728199 257.685325,280.853375 C257.59993,280.978552 257.468343,281.107638 257.29056,281.240638 C257.160189,281.33452 256.931487,281.46165 256.604448,281.622033 C256.277408,281.782415 255.901227,281.938883 255.475893,282.091442 C255.050559,282.244001 254.599492,282.375043 254.12268,282.484572 C253.645867,282.594102 253.191914,282.648866 252.760805,282.648866 Z M268.248903,275.959784 C268.820951,275.959784 269.205781,276.045841 269.403404,276.217959 C269.601026,276.390076 269.64136,276.62869 269.524405,276.933808 C269.407451,277.238925 269.157798,277.598802 268.77544,278.013449 C268.393082,278.428096 267.912695,278.87403 267.334264,279.351265 C266.746351,279.836324 266.148123,280.280303 265.539563,280.683214 C264.931003,281.086126 264.32073,281.432312 263.708726,281.721782 C263.096722,282.011253 262.490118,282.238132 261.888894,282.402426 C261.287671,282.56672 260.705189,282.648866 260.141431,282.648866 C259.577674,282.648866 259.198764,282.564764 259.004691,282.396558 C258.810617,282.228352 258.762874,281.997562 258.86146,281.704179 C258.960045,281.410797 259.197845,281.0607 259.574866,280.653876 C259.951887,280.247053 260.429605,279.80503 261.008036,279.327795 C261.586467,278.85056 262.182622,278.406581 262.796519,277.995846 C263.410417,277.585111 264.024252,277.229146 264.638044,276.92794 C265.251835,276.626734 265.864075,276.390076 266.474781,276.217959 C267.085487,276.045841 267.676855,275.959784 268.248903,275.959784 Z M261.720255,281.346255 C262.275722,281.346255 262.895007,281.172184 263.578129,280.824037 C264.261252,280.47589 264.986842,279.984971 265.754922,279.351265 C266.523002,278.71756 267.012627,278.210994 267.22381,277.831553 C267.434993,277.452112 267.242128,277.262394 266.645208,277.262394 C266.346749,277.262394 266.031659,277.317158 265.699932,277.426688 C265.368204,277.536217 265.028449,277.684862 264.680657,277.872626 C264.332864,278.060391 263.982382,278.279446 263.6292,278.529799 C263.276017,278.780152 262.928747,279.046148 262.587378,279.327795 C261.819298,279.961501 261.343897,280.456331 261.161161,280.812302 C260.978425,281.168272 261.164788,281.346255 261.720255,281.346255 Z M273.907121,278.776239 C274.21056,278.525886 274.461855,278.304875 274.661014,278.113199 C274.860172,277.921522 274.992084,277.763098 275.056752,277.637922 C275.121421,277.512745 275.112925,277.418864 275.031264,277.356276 C274.949604,277.293688 274.788563,277.262394 274.548137,277.262394 C274.349164,277.262394 274.140996,277.281953 273.923627,277.32107 C273.706258,277.360188 273.473464,277.432555 273.225238,277.538172 C272.977012,277.64379 272.701508,277.792435 272.398717,277.984111 C272.095927,278.175787 271.76437,278.420269 271.404036,278.717563 L267.378747,282.038633 C267.217545,282.171633 267.00514,282.287029 266.741524,282.384823 C266.477909,282.482617 266.234182,282.531513 266.010337,282.531513 C265.786492,282.531513 265.663666,282.480661 265.641853,282.378955 C265.620041,282.277249 265.684993,282.16381 265.836713,282.038633 L272.464927,276.570016 C272.635611,276.429192 272.854532,276.311841 273.121697,276.217959 C273.388862,276.124076 273.630218,276.077136 273.845772,276.077136 C274.061327,276.077136 274.18475,276.124076 274.216045,276.217959 C274.24734,276.311841 274.177646,276.429192 274.006961,276.570016 L273.310003,277.145042 C273.555303,277.004219 273.815107,276.863397 274.089423,276.722574 C274.36374,276.58175 274.642184,276.45462 274.924764,276.341179 C275.207345,276.227738 275.484571,276.135812 275.75645,276.065401 C276.02833,275.994989 276.284479,275.959784 276.524905,275.959784 C276.881399,275.959784 277.145759,276.006724 277.317993,276.100606 C277.490227,276.194489 277.566484,276.333354 277.546764,276.517207 C277.527044,276.70106 277.402463,276.933806 277.173017,277.215453 C276.94357,277.4971 276.601273,277.825684 276.146114,278.201213 L271.494986,282.038633 C271.324301,282.179457 271.11367,282.296808 270.863086,282.39069 C270.612503,282.484573 270.371147,282.531513 270.139011,282.531513 C269.906876,282.531513 269.775163,282.484573 269.743868,282.39069 C269.712573,282.296808 269.782266,282.179457 269.952951,282.038633 L273.907121,278.776239 Z M281.143284,277.520569 L277.95719,280.149261 C277.691681,280.36832 277.481878,280.548258 277.327774,280.689082 C277.173671,280.829905 277.071709,280.941389 277.021887,281.023536 C276.972064,281.105683 276.975858,281.162403 277.03327,281.193697 C277.090681,281.224991 277.198146,281.240638 277.355666,281.240638 C277.504896,281.240638 277.701535,281.201521 277.94559,281.123285 C278.189645,281.04505 278.411182,280.978551 278.610208,280.923786 C278.835298,280.861198 278.965574,280.863154 279.001041,280.929654 C279.036507,280.996154 278.921488,281.138931 278.655979,281.35799 C278.390469,281.577049 278.124408,281.758943 277.857786,281.903678 C277.591164,282.048414 277.324573,282.165765 277.058004,282.255735 C276.791435,282.345706 276.526373,282.412205 276.262811,282.455234 C275.999248,282.498264 275.738371,282.52369 275.480172,282.531513 C275.197102,282.539337 274.961434,282.521734 274.773161,282.478705 C274.584889,282.435675 274.47749,282.351574 274.450963,282.226397 C274.424436,282.101221 274.489739,281.931062 274.646875,281.715915 C274.804011,281.500768 275.091189,281.221081 275.508418,280.876846 L279.576378,277.520569 L279.078947,277.520569 C278.846812,277.520569 278.764854,277.459938 278.833072,277.338673 C278.90129,277.217409 279.072893,277.043338 279.347884,276.816456 C279.632359,276.58175 279.873536,276.413546 280.071423,276.311841 C280.26931,276.210135 280.476027,276.159283 280.691582,276.159283 L281.22632,276.159283 L281.965949,275.549051 C282.269388,275.298698 282.544633,275.110936 282.791694,274.985759 C283.038755,274.860583 283.332238,274.797996 283.67215,274.797996 C284.020353,274.797996 284.171899,274.850804 284.126791,274.956421 C284.081683,275.062039 283.935859,275.216551 283.689315,275.419963 L282.793226,276.159283 L284.086545,276.159283 C284.376715,276.159283 284.501316,276.212091 284.460354,276.317708 C284.419391,276.423326 284.265562,276.589573 283.99886,276.816456 C283.732159,277.043338 283.47558,277.217409 283.229115,277.338673 C282.98265,277.459938 282.701902,277.520569 282.386861,277.520569 L281.143284,277.520569 Z M288.501065,277.262394 C288.210896,277.262394 287.89433,277.313246 287.551358,277.414952 C287.208386,277.516658 286.855315,277.65748 286.492134,277.837421 C286.128952,278.017362 285.760413,278.232506 285.386504,278.482858 C285.012595,278.733211 284.65022,279.003119 284.299369,279.292589 L280.971038,282.038633 C280.809836,282.171633 280.597431,282.287029 280.333815,282.384823 C280.0702,282.482617 279.826473,282.531513 279.602628,282.531513 C279.378783,282.531513 279.255956,282.480661 279.234144,282.378955 C279.212331,282.277249 279.277284,282.16381 279.429003,282.038633 L286.057217,276.570016 C286.227902,276.429192 286.446823,276.311841 286.713988,276.217959 C286.981153,276.124076 287.222509,276.077136 287.438063,276.077136 C287.653618,276.077136 287.77704,276.124076 287.808335,276.217959 C287.83963,276.311841 287.769937,276.429192 287.599252,276.570016 L286.603598,277.391482 C286.848897,277.250658 287.122925,277.098102 287.425689,276.933808 C287.728452,276.769514 288.040085,276.615001 288.360595,276.470266 C288.681105,276.325531 288.99389,276.204268 289.298958,276.106474 C289.604027,276.00868 289.87677,275.959784 290.117196,275.959784 C290.241554,275.959784 290.317333,275.979342 290.344536,276.01846 C290.371738,276.057577 290.372877,276.104518 290.347953,276.159283 C290.323028,276.214047 290.278855,276.272723 290.215431,276.335311 C290.152007,276.397899 290.087107,276.456575 290.02073,276.51134 C289.660396,276.808634 289.366782,277.00813 289.139878,277.109836 C288.912974,277.211542 288.700038,277.262394 288.501065,277.262394 Z M289.459278,279.33953 C288.604663,280.051471 288.122436,280.563905 288.01258,280.876846 C287.902724,281.189787 288.088219,281.346255 288.569071,281.346255 C289.049923,281.346255 289.617989,281.168272 290.273286,280.812302 C290.928584,280.456331 291.626634,279.969324 292.367459,279.351265 C293.127248,278.71756 293.618349,278.214906 293.840777,277.843288 C294.063204,277.471671 293.947621,277.278041 293.494024,277.262394 C293.030945,277.254571 292.456377,277.420818 291.770301,277.761142 C291.084225,278.101465 290.313892,278.627589 289.459278,279.33953 Z M289.670332,281.545754 C288.996043,281.944754 288.427884,282.218573 287.965839,282.36722 C287.503793,282.515867 287.069658,282.590189 286.663421,282.590189 C286.257184,282.590189 285.973899,282.517823 285.813557,282.373088 C285.653216,282.228352 285.621146,282.01712 285.717348,281.739385 C285.81355,281.46165 286.039496,281.121332 286.395195,280.71842 C286.750893,280.315508 287.241657,279.855883 287.8675,279.33953 C288.63558,278.705825 289.357065,278.173833 290.031976,277.743539 C290.706887,277.313245 291.331966,276.965103 291.907232,276.699103 C292.482498,276.433103 293.004682,276.243386 293.4738,276.129944 C293.942917,276.016503 294.355717,275.959784 294.712211,275.959784 C295.110157,275.959784 295.33686,276.063444 295.392324,276.270767 C295.447789,276.478091 295.312481,276.781248 294.986396,277.180248 L295.583788,276.687368 C295.735508,276.562192 295.960958,276.429194 296.260146,276.28837 C296.559334,276.147547 296.841573,276.077136 297.10687,276.077136 C297.362686,276.084959 297.471872,276.157326 297.434432,276.294238 C297.396992,276.431149 297.302414,276.562192 297.150695,276.687368 L290.821177,281.909546 C290.669457,282.034722 290.458813,282.165764 290.189238,282.302676 C289.919663,282.439588 289.618473,282.511954 289.285659,282.519778 C289.119848,282.519778 289.010907,282.500219 288.958833,282.461102 C288.906758,282.421984 288.887562,282.371132 288.901242,282.308544 C288.914923,282.245956 288.954071,282.179457 289.018687,282.109045 C289.083302,282.038633 289.153539,281.972134 289.229399,281.909546 L289.670332,281.545754 Z M295.347612,279.33953 C295.888113,278.893589 296.473296,278.467213 297.103179,278.06039 C297.733061,277.653567 298.369993,277.295646 299.013994,276.986616 C299.657994,276.677587 300.29482,276.429194 300.924492,276.241429 C301.554163,276.053665 302.134287,275.959784 302.664882,275.959784 C303.0877,275.959784 303.389937,276.030194 303.571601,276.171018 C303.753265,276.311841 303.830985,276.468309 303.804762,276.640427 C303.795227,276.703015 303.764654,276.781249 303.713044,276.875132 C303.661433,276.969014 303.58376,277.070718 303.480023,277.180248 C303.376285,277.289777 303.251823,277.399305 303.106633,277.508834 C302.961442,277.618364 302.790502,277.720068 302.593807,277.81395 C302.513232,277.853068 302.411337,277.896097 302.288118,277.943038 C302.164898,277.989979 302.045839,278.023228 301.930937,278.042787 C301.816035,278.062346 301.720695,278.062346 301.644915,278.042787 C301.569134,278.023228 301.547878,277.958685 301.581146,277.849156 C301.642914,277.661391 301.646311,277.516658 301.591336,277.414952 C301.536362,277.313246 301.376228,277.262394 301.11093,277.262394 C300.862214,277.262394 300.572592,277.313246 300.242056,277.414952 C299.91152,277.516658 299.564667,277.65748 299.201485,277.837421 C298.838304,278.017362 298.458805,278.236417 298.062978,278.494594 C297.667151,278.75277 297.279594,279.038324 296.900295,279.351265 C296.502031,279.679854 296.201226,279.967364 295.997869,280.213805 C295.794513,280.460246 295.66966,280.667566 295.623307,280.835772 C295.576955,281.003978 295.601111,281.131108 295.695777,281.217167 C295.790443,281.303226 295.941406,281.346255 296.148669,281.346255 C296.30619,281.346255 296.446247,281.338431 296.568843,281.322784 C296.69144,281.307137 296.804864,281.283667 296.909118,281.252373 C297.013373,281.221079 297.111706,281.187829 297.20412,281.152624 C297.296534,281.117418 297.391318,281.080256 297.488474,281.041139 C297.629466,280.986374 297.776972,280.929654 297.930996,280.870978 C298.08502,280.812302 298.224222,280.769273 298.348607,280.74189 C298.472992,280.714508 298.579589,280.708641 298.668401,280.724288 C298.757213,280.739935 298.816385,280.786875 298.845919,280.86511 C298.886074,280.982463 298.844502,281.105682 298.721204,281.23477 C298.597905,281.363858 298.350809,281.530106 297.979906,281.733517 C297.482208,282.007341 296.936603,282.228352 296.343074,282.396558 C295.749545,282.564764 295.166766,282.648866 294.594718,282.648866 C294.072413,282.648866 293.702972,282.570631 293.486385,282.414161 C293.269797,282.25769 293.198063,282.034723 293.271181,281.745253 C293.344299,281.455782 293.556929,281.10764 293.909079,280.700817 C294.261228,280.293994 294.740734,279.840236 295.347612,279.33953 Z M306.972368,277.520569 L303.786273,280.149261 C303.520764,280.36832 303.310961,280.548258 303.156858,280.689082 C303.002754,280.829905 302.900793,280.941389 302.85097,281.023536 C302.801147,281.105683 302.804942,281.162403 302.862353,281.193697 C302.919765,281.224991 303.027229,281.240638 303.18475,281.240638 C303.333979,281.240638 303.530619,281.201521 303.774673,281.123285 C304.018728,281.04505 304.240265,280.978551 304.439291,280.923786 C304.664381,280.861198 304.794657,280.863154 304.830124,280.929654 C304.865591,280.996154 304.750571,281.138931 304.485062,281.35799 C304.219553,281.577049 303.953491,281.758943 303.686869,281.903678 C303.420248,282.048414 303.153656,282.165765 302.887087,282.255735 C302.620519,282.345706 302.355457,282.412205 302.091894,282.455234 C301.828331,282.498264 301.567455,282.52369 301.309256,282.531513 C301.026185,282.539337 300.790517,282.521734 300.602244,282.478705 C300.413972,282.435675 300.306574,282.351574 300.280046,282.226397 C300.253519,282.101221 300.318823,281.931062 300.475959,281.715915 C300.633095,281.500768 300.920273,281.221081 301.337501,280.876846 L305.405461,277.520569 L304.908031,277.520569 C304.675895,277.520569 304.593938,277.459938 304.662156,277.338673 C304.730374,277.217409 304.901976,277.043338 305.176968,276.816456 C305.461442,276.58175 305.702619,276.413546 305.900506,276.311841 C306.098393,276.210135 306.305111,276.159283 306.520665,276.159283 L307.055403,276.159283 L307.795032,275.549051 C308.098471,275.298698 308.373717,275.110936 308.620778,274.985759 C308.867839,274.860583 309.161321,274.797996 309.501233,274.797996 C309.849437,274.797996 310.000982,274.850804 309.955874,274.956421 C309.910766,275.062039 309.764942,275.216551 309.518398,275.419963 L308.622309,276.159283 L309.915629,276.159283 C310.205798,276.159283 310.3304,276.212091 310.289437,276.317708 C310.248474,276.423326 310.094645,276.589573 309.827944,276.816456 C309.561243,277.043338 309.304663,277.217409 309.058199,277.338673 C308.811734,277.459938 308.530985,277.520569 308.215944,277.520569 L306.972368,277.520569 Z" id="Smart-Contract-Copy" fill="#61646D" opacity="0.800000012"></path>
                <path d="M172.745182,298.648866 C172.12339,298.648866 171.663662,298.551073 171.365983,298.355485 C171.068305,298.159897 170.952218,297.874342 171.017721,297.498813 C171.083224,297.123284 171.332969,296.66757 171.766964,296.131658 C172.200959,295.595747 172.834579,294.987477 173.667845,294.30683 C174.50111,293.626183 175.345839,293.019869 176.202056,292.487869 C177.058273,291.955869 177.889527,291.506023 178.695842,291.138317 C179.502157,290.770612 180.270478,290.488969 181.000827,290.293381 C181.731177,290.097793 182.382366,290 182.954414,290 C183.360651,290 183.674456,290.048896 183.895837,290.14669 C184.117219,290.244484 184.264553,290.365747 184.337844,290.510483 C184.411135,290.655218 184.421055,290.807774 184.367603,290.968157 C184.314152,291.128539 184.2246,291.267404 184.098944,291.384757 C183.992253,291.486463 183.881729,291.572521 183.76737,291.642932 C183.653011,291.713344 183.568577,291.764196 183.514066,291.79549 C183.441782,291.834608 183.339291,291.881548 183.206589,291.936313 C183.073887,291.991078 182.942976,292.034107 182.81385,292.065401 C182.58876,292.127989 182.448419,292.124077 182.392821,292.053665 C182.337224,291.983254 182.286382,291.89524 182.240294,291.789623 C182.194206,291.684005 182.112288,291.582301 181.994538,291.484507 C181.876789,291.386713 181.643816,291.337816 181.295612,291.337816 C180.905956,291.337816 180.457896,291.421918 179.951418,291.590124 C179.44494,291.75833 178.924206,291.979341 178.389201,292.253164 C177.854196,292.526988 177.319159,292.84188 176.784075,293.197851 C176.248991,293.553821 175.749135,293.923477 175.284494,294.30683 C174.819853,294.690183 174.425105,295.063751 174.100238,295.427545 C173.775371,295.791338 173.556251,296.114054 173.442872,296.395701 C173.329493,296.677348 173.340824,296.902271 173.476863,297.070477 C173.612903,297.238683 173.909504,297.318873 174.366676,297.311049 C174.608294,297.303226 174.842227,297.2778 175.068482,297.23477 C175.294737,297.191741 175.512116,297.138933 175.720625,297.076345 C175.929133,297.013756 176.132315,296.945301 176.330175,296.870978 C176.528036,296.796654 176.728264,296.720376 176.930866,296.642141 C177.308814,296.501317 177.545118,296.473936 177.639784,296.559994 C177.745125,296.630406 177.755097,296.728199 177.669702,296.853375 C177.584307,296.978552 177.45272,297.107638 177.274937,297.240638 C177.144566,297.33452 176.915864,297.46165 176.588825,297.622033 C176.261785,297.782415 175.885604,297.938883 175.46027,298.091442 C175.034936,298.244001 174.583869,298.375043 174.107057,298.484572 C173.630244,298.594102 173.17629,298.648866 172.745182,298.648866 Z M191.479131,290 C192.150665,290 192.597945,290.111484 192.820982,290.334454 C193.04402,290.557425 193.082512,290.862538 192.936461,291.249802 C192.790411,291.637067 192.478487,292.09278 192.000682,292.616957 C191.522877,293.141133 190.914167,293.70833 190.174535,294.318565 C189.434902,294.9288 188.666304,295.497953 187.868716,296.026041 C187.071129,296.554129 186.27599,297.011799 185.483277,297.399063 C184.690563,297.786328 183.912448,298.091441 183.14891,298.314411 C182.385372,298.537382 181.667846,298.648866 180.996312,298.648866 C180.349649,298.648866 179.912136,298.541294 179.683762,298.326147 C179.455387,298.111 179.40771,297.811754 179.540729,297.428401 C179.673748,297.045049 179.979752,296.587379 180.458749,296.055379 C180.937746,295.52338 181.556534,294.944447 182.315131,294.318565 C183.045282,293.716154 183.804994,293.150912 184.59429,292.622824 C185.383587,292.094736 186.172508,291.637067 186.961076,291.249802 C187.749645,290.862538 188.525687,290.557425 189.289225,290.334454 C190.052763,290.111484 190.782725,290 191.479131,290 Z M182.617806,297.311049 C183.057205,297.311049 183.516509,297.234771 183.995732,297.082212 C184.474955,296.929653 184.966957,296.720377 185.471753,296.454377 C185.976549,296.188377 186.484344,295.875441 186.995153,295.515559 C187.505961,295.155677 188.012643,294.768418 188.515214,294.353771 C189.017785,293.939124 189.45045,293.547953 189.81322,293.180248 C190.175991,292.812542 190.43212,292.491782 190.581614,292.217959 C190.731108,291.944135 190.753522,291.728992 190.648857,291.572521 C190.544192,291.41605 190.280455,291.337816 189.857636,291.337816 C189.434818,291.337816 188.979063,291.418006 188.490358,291.578389 C188.001653,291.738771 187.502539,291.953915 186.993002,292.223826 C186.483464,292.493738 185.969154,292.80863 185.450055,293.168512 C184.930956,293.528395 184.424869,293.911742 183.931781,294.318565 C183.486105,294.686271 183.082483,295.050059 182.720905,295.409942 C182.359326,295.769824 182.099052,296.090584 181.940075,296.372231 C181.781098,296.653878 181.744461,296.880756 181.830161,297.052874 C181.915861,297.224992 182.178407,297.311049 182.617806,297.311049 Z M199.955654,290.234705 C200.602317,290.234705 201.034208,290.338365 201.251338,290.545688 C201.468469,290.753012 201.507869,291.038566 201.369539,291.40236 C201.231209,291.766154 200.933523,292.196442 200.476471,292.693236 C200.019418,293.19003 199.440049,293.727889 198.738347,294.30683 C197.989231,294.924889 197.23426,295.486218 196.473411,295.990836 C195.712562,296.495453 194.960676,296.927696 194.217732,297.287579 C193.474788,297.647461 192.756806,297.925192 192.063764,298.12078 C191.370722,298.316368 190.71746,298.414161 190.103959,298.414161 L187.741164,298.414161 C187.450995,298.414161 187.321056,298.369176 187.351344,298.279206 C187.381633,298.189235 187.501082,298.058193 187.709696,297.886075 L196.343443,290.76279 C196.552057,290.590672 196.748193,290.45963 196.931857,290.36966 C197.11552,290.279689 197.356578,290.234705 197.655038,290.234705 L199.955654,290.234705 Z M190.16554,297.193697 L191.583217,297.193697 C192.942868,297.193697 194.803233,296.219682 197.164368,294.271624 C197.704869,293.825683 198.151161,293.426689 198.503257,293.074631 C198.855353,292.722572 199.08481,292.427238 199.191633,292.188621 C199.298456,291.950003 199.278498,291.768109 199.131757,291.642932 C198.985017,291.517756 198.683661,291.455169 198.227681,291.455169 L197.120898,291.455169 L190.16554,297.193697 Z M198.828918,297.099815 L201.838373,297.099815 C202.153414,297.099815 202.320361,297.146755 202.33922,297.240638 C202.35808,297.33452 202.215792,297.506635 201.912353,297.756988 C201.608914,298.007341 201.333979,298.179456 201.08754,298.273338 C200.841102,298.36722 200.560366,298.414161 200.245326,298.414161 L196.41511,298.414161 C196.166393,298.414161 196.026092,298.369176 195.994201,298.279206 C195.96231,298.189235 196.098082,298.019076 196.401521,297.768723 L204.750795,290.880142 C205.044751,290.637613 205.314945,290.46941 205.561383,290.375527 C205.807822,290.281645 206.063686,290.234705 206.328984,290.234705 L210.171635,290.234705 C210.412061,290.234705 210.533113,290.283601 210.534795,290.381395 C210.536478,290.479189 210.394488,290.649348 210.108822,290.891878 C209.823156,291.134407 209.554737,291.304566 209.303557,291.40236 C209.052377,291.500154 208.806578,291.549051 208.566152,291.549051 L205.556697,291.549051 L203.152903,293.532305 L206.038,293.532305 C206.303298,293.532305 206.429972,293.585113 206.418026,293.69073 C206.406081,293.796348 206.257873,293.966507 205.973399,294.201213 C205.688925,294.435919 205.429392,294.602166 205.194794,294.69996 C204.960195,294.797754 204.710251,294.846651 204.444953,294.846651 L201.559856,294.846651 L198.828918,297.099815 Z" id="CODE-Copy" fill="#61646D" opacity="0.800000012"></path>
                <path d="M238.608604,290.234705 C239.255267,290.234705 239.687157,290.338365 239.904288,290.545688 C240.121419,290.753012 240.160819,291.038566 240.022489,291.40236 C239.884159,291.766154 239.586473,292.196442 239.12942,292.693236 C238.672368,293.19003 238.092999,293.727889 237.391296,294.30683 C236.642181,294.924889 235.88721,295.486218 235.126361,295.990836 C234.365512,296.495453 233.613626,296.927696 232.870682,297.287579 C232.127738,297.647461 231.409756,297.925192 230.716714,298.12078 C230.023672,298.316368 229.37041,298.414161 228.756909,298.414161 L226.394114,298.414161 C226.103945,298.414161 225.974006,298.369176 226.004294,298.279206 C226.034582,298.189235 226.154032,298.058193 226.362646,297.886075 L234.996393,290.76279 C235.205007,290.590672 235.401143,290.45963 235.584806,290.36966 C235.76847,290.279689 236.009528,290.234705 236.307988,290.234705 L238.608604,290.234705 Z M228.81849,297.193697 L230.236167,297.193697 C231.595818,297.193697 233.456183,296.219682 235.817318,294.271624 C236.357819,293.825683 236.80411,293.426689 237.156207,293.074631 C237.508303,292.722572 237.737759,292.427238 237.844582,292.188621 C237.951406,291.950003 237.931447,291.768109 237.784707,291.642932 C237.637967,291.517756 237.336611,291.455169 236.880631,291.455169 L235.773848,291.455169 L228.81849,297.193697 Z M238.066629,298.648866 C237.444838,298.648866 236.985109,298.551073 236.687431,298.355485 C236.389752,298.159897 236.273666,297.874342 236.339168,297.498813 C236.404671,297.123284 236.654416,296.66757 237.088411,296.131658 C237.522406,295.595747 238.156027,294.987477 238.989292,294.30683 C239.822558,293.626183 240.667286,293.019869 241.523503,292.487869 C242.37972,291.955869 243.210974,291.506023 244.017289,291.138317 C244.823604,290.770612 245.591925,290.488969 246.322275,290.293381 C247.052624,290.097793 247.703813,290 248.275861,290 C248.682098,290 248.995903,290.048896 249.217285,290.14669 C249.438666,290.244484 249.586,290.365747 249.659291,290.510483 C249.732582,290.655218 249.742502,290.807774 249.68905,290.968157 C249.635599,291.128539 249.546047,291.267404 249.420391,291.384757 C249.3137,291.486463 249.203176,291.572521 249.088817,291.642932 C248.974458,291.713344 248.890024,291.764196 248.835513,291.79549 C248.763229,291.834608 248.660738,291.881548 248.528036,291.936313 C248.395335,291.991078 248.264423,292.034107 248.135297,292.065401 C247.910207,292.127989 247.769866,292.124077 247.714269,292.053665 C247.658671,291.983254 247.60783,291.89524 247.561741,291.789623 C247.515653,291.684005 247.433735,291.582301 247.315986,291.484507 C247.198236,291.386713 246.965263,291.337816 246.61706,291.337816 C246.227404,291.337816 245.779343,291.421918 245.272865,291.590124 C244.766387,291.75833 244.245653,291.979341 243.710648,292.253164 C243.175643,292.526988 242.640606,292.84188 242.105522,293.197851 C241.570438,293.553821 241.070583,293.923477 240.605941,294.30683 C240.1413,294.690183 239.746552,295.063751 239.421685,295.427545 C239.096818,295.791338 238.877698,296.114054 238.764319,296.395701 C238.650941,296.677348 238.662271,296.902271 238.79831,297.070477 C238.93435,297.238683 239.230951,297.318873 239.688123,297.311049 C239.929741,297.303226 240.163674,297.2778 240.389929,297.23477 C240.616185,297.191741 240.833563,297.138933 241.042072,297.076345 C241.25058,297.013756 241.453762,296.945301 241.651623,296.870978 C241.849483,296.796654 242.049711,296.720376 242.252313,296.642141 C242.630262,296.501317 242.866565,296.473936 242.961231,296.559994 C243.066572,296.630406 243.076544,296.728199 242.991149,296.853375 C242.905754,296.978552 242.774167,297.107638 242.596384,297.240638 C242.466013,297.33452 242.237311,297.46165 241.910272,297.622033 C241.583232,297.782415 241.207051,297.938883 240.781717,298.091442 C240.356383,298.244001 239.905316,298.375043 239.428504,298.484572 C238.951691,298.594102 238.497738,298.648866 238.066629,298.648866 Z M256.800578,290 C257.472113,290 257.919392,290.111484 258.142429,290.334454 C258.365467,290.557425 258.403959,290.862538 258.257909,291.249802 C258.111858,291.637067 257.799935,292.09278 257.322129,292.616957 C256.844324,293.141133 256.235615,293.70833 255.495982,294.318565 C254.756349,294.9288 253.987751,295.497953 253.190163,296.026041 C252.392576,296.554129 251.597438,297.011799 250.804724,297.399063 C250.01201,297.786328 249.233896,298.091441 248.470357,298.314411 C247.706819,298.537382 246.989293,298.648866 246.317759,298.648866 C245.671096,298.648866 245.233584,298.541294 245.005209,298.326147 C244.776834,298.111 244.729157,297.811754 244.862176,297.428401 C244.995195,297.045049 245.301199,296.587379 245.780196,296.055379 C246.259193,295.52338 246.877981,294.944447 247.636579,294.318565 C248.366729,293.716154 249.126441,293.150912 249.915738,292.622824 C250.705034,292.094736 251.493955,291.637067 252.282524,291.249802 C253.071092,290.862538 253.847134,290.557425 254.610672,290.334454 C255.37421,290.111484 256.104172,290 256.800578,290 Z M247.939253,297.311049 C248.378652,297.311049 248.837957,297.234771 249.317179,297.082212 C249.796402,296.929653 250.288404,296.720377 250.7932,296.454377 C251.297996,296.188377 251.805791,295.875441 252.3166,295.515559 C252.827408,295.155677 253.334091,294.768418 253.836662,294.353771 C254.339232,293.939124 254.771897,293.547953 255.134667,293.180248 C255.497438,292.812542 255.753567,292.491782 255.903061,292.217959 C256.052555,291.944135 256.07497,291.728992 255.970304,291.572521 C255.865639,291.41605 255.601902,291.337816 255.179084,291.337816 C254.756265,291.337816 254.300511,291.418006 253.811805,291.578389 C253.3231,291.738771 252.823986,291.953915 252.314449,292.223826 C251.804912,292.493738 251.290601,292.80863 250.771502,293.168512 C250.252403,293.528395 249.746316,293.911742 249.253228,294.318565 C248.807552,294.686271 248.40393,295.050059 248.042352,295.409942 C247.680773,295.769824 247.420499,296.090584 247.261522,296.372231 C247.102546,296.653878 247.065908,296.880756 247.151608,297.052874 C247.237308,297.224992 247.499854,297.311049 247.939253,297.311049 Z M264.261384,291.595991 L256.594844,297.921281 C256.405195,298.077752 256.172335,298.218573 255.896257,298.343749 C255.620179,298.468926 255.33706,298.531513 255.046891,298.531513 C254.756721,298.531513 254.630061,298.465014 254.666904,298.332014 C254.703748,298.199014 254.807511,298.062105 254.978195,297.921281 L262.644734,291.595991 L261.052957,291.595991 C260.903727,291.595991 260.820279,291.545139 260.802612,291.443433 C260.784945,291.341728 260.927829,291.165701 261.231268,290.915348 C261.525224,290.672819 261.802529,290.498748 262.063192,290.39313 C262.323854,290.287513 262.537087,290.234705 262.702898,290.234705 L267.503103,290.234705 C267.668914,290.234705 267.754136,290.287513 267.758772,290.39313 C267.763407,290.498748 267.618749,290.672819 267.324792,290.915348 C267.021353,291.165701 266.737532,291.341728 266.473321,291.443433 C266.209109,291.545139 266.002392,291.595991 265.853162,291.595991 L264.261384,291.595991 Z" id="DCOT-Copy" fill="#61646D" opacity="0.800000012"></path>
                <path d="M297.434633,290.727584 C297.605317,290.586761 297.827218,290.449851 298.100343,290.316851 C298.373467,290.183851 298.6634,290.117352 298.97015,290.117352 C299.26032,290.117352 299.393794,290.17994 299.370578,290.305116 C299.347362,290.430292 299.240931,290.571114 299.051282,290.727584 L290.332194,297.921281 C290.142544,298.077752 289.914127,298.216617 289.646936,298.337882 C289.379745,298.459147 289.096327,298.52369 288.796676,298.531513 C288.497024,298.539337 288.36592,298.474794 288.403359,298.337882 C288.440799,298.20097 288.54486,298.062105 288.715544,297.921281 L292.413689,294.870121 L288.633217,294.870121 L284.935072,297.921281 C284.745422,298.077752 284.517005,298.216617 284.249814,298.337882 C283.982623,298.459147 283.699205,298.52369 283.399554,298.531513 C283.099902,298.539337 282.968798,298.474794 283.006238,298.337882 C283.043677,298.20097 283.147738,298.062105 283.318422,297.921281 L292.037511,290.727584 C292.208195,290.586761 292.438387,290.449851 292.728092,290.316851 C293.017798,290.183851 293.307731,290.117352 293.5979,290.117352 C293.888069,290.117352 294.017399,290.17994 293.985892,290.305116 C293.954386,290.430292 293.843809,290.571114 293.65416,290.727584 L290.226264,293.555775 L294.006736,293.555775 L297.434633,290.727584 Z M305.721996,290 C306.39353,290 306.84081,290.111484 307.063847,290.334454 C307.286885,290.557425 307.325377,290.862538 307.179326,291.249802 C307.033276,291.637067 306.721352,292.09278 306.243547,292.616957 C305.765742,293.141133 305.157032,293.70833 304.4174,294.318565 C303.677767,294.9288 302.909168,295.497953 302.111581,296.026041 C301.313994,296.554129 300.518855,297.011799 299.726142,297.399063 C298.933428,297.786328 298.155313,298.091441 297.391775,298.314411 C296.628237,298.537382 295.910711,298.648866 295.239177,298.648866 C294.592514,298.648866 294.155001,298.541294 293.926627,298.326147 C293.698252,298.111 293.650575,297.811754 293.783594,297.428401 C293.916613,297.045049 294.222617,296.587379 294.701614,296.055379 C295.180611,295.52338 295.799399,294.944447 296.557996,294.318565 C297.288147,293.716154 298.047859,293.150912 298.837155,292.622824 C299.626452,292.094736 300.415373,291.637067 301.203941,291.249802 C301.99251,290.862538 302.768552,290.557425 303.53209,290.334454 C304.295628,290.111484 305.025589,290 305.721996,290 Z M296.860671,297.311049 C297.30007,297.311049 297.759374,297.234771 298.238597,297.082212 C298.71782,296.929653 299.209822,296.720377 299.714618,296.454377 C300.219414,296.188377 300.727209,295.875441 301.238018,295.515559 C301.748826,295.155677 302.255508,294.768418 302.758079,294.353771 C303.26065,293.939124 303.693315,293.547953 304.056085,293.180248 C304.418856,292.812542 304.674985,292.491782 304.824479,292.217959 C304.973973,291.944135 304.996387,291.728992 304.891722,291.572521 C304.787057,291.41605 304.523319,291.337816 304.100501,291.337816 C303.677683,291.337816 303.221928,291.418006 302.733223,291.578389 C302.244518,291.738771 301.745404,291.953915 301.235867,292.223826 C300.726329,292.493738 300.212019,292.80863 299.69292,293.168512 C299.173821,293.528395 298.667734,293.911742 298.174646,294.318565 C297.72897,294.686271 297.325348,295.050059 296.96377,295.409942 C296.602191,295.769824 296.341917,296.090584 296.18294,296.372231 C296.023963,296.653878 295.987326,296.880756 296.073026,297.052874 C296.158726,297.224992 296.421272,297.311049 296.860671,297.311049 Z M313.182802,291.595991 L305.516262,297.921281 C305.326613,298.077752 305.093753,298.218573 304.817675,298.343749 C304.541597,298.468926 304.258478,298.531513 303.968309,298.531513 C303.678139,298.531513 303.551478,298.465014 303.588322,298.332014 C303.625166,298.199014 303.728928,298.062105 303.899613,297.921281 L311.566152,291.595991 L309.974374,291.595991 C309.825144,291.595991 309.741697,291.545139 309.72403,291.443433 C309.706363,291.341728 309.849246,291.165701 310.152685,290.915348 C310.446642,290.672819 310.723947,290.498748 310.984609,290.39313 C311.245272,290.287513 311.458505,290.234705 311.624316,290.234705 L316.424521,290.234705 C316.590332,290.234705 316.675554,290.287513 316.68019,290.39313 C316.684825,290.498748 316.540167,290.672819 316.24621,290.915348 C315.942771,291.165701 315.65895,291.341728 315.394739,291.443433 C315.130527,291.545139 314.923809,291.595991 314.77458,291.595991 L313.182802,291.595991 Z" id="HOT-Copy" fill="#61646D" opacity="0.800000012"></path>
                <polygon id="Rectangle-7-Copy-17" stroke="#69707A" stroke-linecap="round" stroke-linejoin="round" fill-rule="nonzero" points="204.832737 266 381 266 312.167263 308 136 308"></polygon>
                <text id="协议-copy" font-family="PingFangSC-Semibold, PingFang SC" font-size="12" font-weight="500" letter-spacing="4" fill="#3F454E">
                    <tspan x="214" y="321">协议</tspan>
                </text>
            </g>
        </g>
    </g>
</svg>