<?xml version="1.0" encoding="UTF-8"?>
<svg width="537px" height="360px" viewBox="0 0 537 360" version="1.1" xmlns="http://www.w3.org/2000/svg" xmlns:xlink="http://www.w3.org/1999/xlink">
    <!-- Generator: Sketch 51.2 (57519) - http://www.bohemiancoding.com/sketch -->
    <title>Artboard 2 Copy</title>
    <desc>Created with Sketch.</desc>
    <defs></defs>
    <g id="CODE-Network-0.5-中文-" stroke="none" stroke-width="1" fill="none" fill-rule="evenodd">
        <g id="Artboard-2" transform="translate(-140.000000, -551.000000)">
            <g id="Group" transform="translate(140.000000, 551.000000)">
                <rect id="Rectangle-7-Copy-9" stroke="#69707A" stroke-linecap="round" stroke-linejoin="round" fill-rule="nonzero" x="136" y="119" width="176" height="17"></rect>
                <polygon id="Rectangle-7-Copy-12" stroke="#69707A" stroke-linecap="round" stroke-linejoin="round" fill-rule="nonzero" points="312 118.983241 381 77 381 94.0167588 312 136"></polygon>
                <polygon id="Rectangle-7-Copy-15" stroke="#69707A" stroke-linecap="round" stroke-linejoin="round" fill-rule="nonzero" points="204.832737 77 381 77 312.167263 119 136 119"></polygon>
                <path d="M203.555141,88.4238294 C203.336565,88.5833382 203.212063,88.7220395 203.181634,88.8399374 C203.151204,88.9578353 203.170221,89.0618612 203.238685,89.1520184 C203.307149,89.2421756 203.403984,89.3184613 203.529194,89.3808779 C203.654404,89.4432944 203.76329,89.5022424 203.855855,89.5577238 C204.087268,89.6964272 204.262481,89.8351285 204.3815,89.9738318 C204.500518,90.1125352 204.551425,90.2616391 204.534222,90.421148 C204.517019,90.5806569 204.41511,90.7609685 204.228493,90.9620884 C204.041875,91.1632083 203.768075,91.3920655 203.407086,91.6486667 C202.447523,92.3352484 201.399295,92.8883198 200.26237,93.3078975 C199.125445,93.7274753 197.961971,93.9511311 196.771913,93.9788718 C196.331427,93.9927421 195.985602,93.956333 195.734428,93.8696434 C195.483254,93.7829538 195.293135,93.6875967 195.164065,93.5835691 C195.044087,93.4934119 194.989913,93.3911197 195.001541,93.2766894 C195.01317,93.1622592 195.06698,93.0460968 195.162973,92.928199 C195.258966,92.8103011 195.385329,92.6958725 195.542066,92.5849098 C195.698802,92.4739471 195.866901,92.3803237 196.046368,92.3040369 C196.386568,92.1514632 196.659864,92.0665086 196.866264,92.0491707 C197.072663,92.0318328 197.203205,92.0613068 197.257894,92.1375937 C197.303354,92.2069454 197.348711,92.2814973 197.393965,92.3612517 C197.439219,92.4410062 197.503342,92.5138244 197.586335,92.5797085 C197.669329,92.6455926 197.778317,92.6993393 197.913305,92.7409503 C198.048292,92.7825613 198.228178,92.8033665 198.452967,92.8033665 C198.640291,92.8033665 198.858533,92.7790938 199.107697,92.7305476 C199.356862,92.6820014 199.613458,92.6126508 199.877495,92.5224936 C200.141532,92.4323364 200.408352,92.3196416 200.677963,92.1844058 C200.947574,92.04917 201.201167,91.8948648 201.43875,91.7214856 C201.66683,91.5550416 201.814884,91.4094052 201.882916,91.2845722 C201.950947,91.1597391 201.976522,91.0505119 201.959641,90.9568871 C201.942759,90.8632623 201.890447,90.7852428 201.802702,90.7228263 C201.714957,90.6604098 201.624598,90.6118643 201.531621,90.5771885 C201.28079,90.473161 201.067598,90.3604662 200.89204,90.2391007 C200.716481,90.1177353 200.6163,89.9738327 200.591492,89.8073886 C200.566684,89.6409446 200.636154,89.4432952 200.799905,89.2144346 C200.963656,88.9855741 201.259352,88.7151066 201.687002,88.403024 C202.143162,88.0701359 202.635991,87.7771294 203.165504,87.5239957 C203.695017,87.2708621 204.223665,87.0610763 204.751464,86.8946323 C205.279263,86.7281882 205.789841,86.6033571 206.283213,86.5201351 C206.776584,86.436913 207.215203,86.3987702 207.59908,86.4057053 C208.029789,86.4126405 208.36594,86.4646535 208.607542,86.5617459 C208.849143,86.6588382 208.99426,86.7802019 209.042894,86.9258404 C209.091529,87.0714789 209.043921,87.2292517 208.900068,87.3991633 C208.756215,87.5690749 208.518876,87.7303152 208.188041,87.8828889 C208.017941,87.9591758 207.852835,88.0198576 207.692718,88.0649362 C207.532601,88.1100148 207.38681,88.1412226 207.25534,88.1585605 C207.12387,88.1758984 207.016126,88.1776322 206.932104,88.1637618 C206.848083,88.1498915 206.801801,88.1221512 206.793257,88.0805402 C206.766118,88.031994 206.732058,87.9782473 206.691076,87.9192984 C206.650093,87.8603494 206.59496,87.8066027 206.525673,87.7580565 C206.456386,87.7095103 206.368231,87.6678999 206.261205,87.6332241 C206.154179,87.5985482 206.021055,87.5812106 205.86183,87.5812106 C205.683872,87.5812106 205.489011,87.6072171 205.277243,87.6592308 C205.065475,87.7112446 204.855777,87.7771277 204.648143,87.8568822 C204.44051,87.9366366 204.239698,88.0267924 204.045702,88.1273524 C203.851707,88.2279123 203.688188,88.326737 203.555141,88.4238294 Z M212.324804,86.4993297 C212.54338,86.3398208 212.779966,86.2167234 213.034568,86.1300338 C213.28917,86.0433442 213.575692,86 213.894143,86 C214.212595,86 214.377951,86.0450779 214.390218,86.1352351 C214.402485,86.2253923 214.299331,86.3502235 214.080755,86.5097324 L204.515695,93.4899448 C204.344635,93.6147779 204.122476,93.7188038 203.84921,93.8020258 C203.575944,93.8852479 203.303505,93.9268583 203.031885,93.9268583 C202.760265,93.9268583 202.601864,93.8852479 202.556678,93.8020258 C202.511493,93.7188038 202.574429,93.6147779 202.745489,93.4899448 L212.324804,86.4993297 Z M211.496308,91.0973236 C210.640871,91.7284239 210.175294,92.1826707 210.099562,92.4600774 C210.023831,92.7374842 210.257582,92.8761854 210.800822,92.8761854 C211.344063,92.8761854 211.958319,92.7184127 212.643609,92.4028625 C213.328898,92.0873124 214.042231,91.6556046 214.783628,91.1077263 C215.544032,90.5459776 216.021146,90.1003997 216.214983,89.7709792 C216.408821,89.4415586 216.248308,89.2699158 215.73344,89.2560455 C215.209069,89.2491103 214.585653,89.3964804 213.863173,89.6981603 C213.140693,89.9998401 212.351746,90.4662232 211.496308,91.0973236 Z M212.075808,93.0530314 C211.375715,93.406725 210.77617,93.6494522 210.277155,93.7812204 C209.778141,93.9129887 209.299168,93.9788718 208.840223,93.9788718 C208.381279,93.9788718 208.050051,93.9147224 207.846531,93.7864218 C207.643011,93.6581212 207.574126,93.4708744 207.639875,93.2246759 C207.705623,92.9784774 207.908275,92.6768021 208.247837,92.3196409 C208.587399,91.9624797 209.070783,91.5550447 209.698004,91.0973236 C210.467774,90.5355749 211.200627,90.0639905 211.896586,89.6825562 C212.592544,89.3011219 213.244905,88.9925115 213.853688,88.7567158 C214.462471,88.5209201 215.023078,88.3527447 215.535525,88.2521848 C216.047972,88.1516248 216.505562,88.1013456 216.908309,88.1013456 C217.357888,88.1013456 217.630029,88.1932352 217.72474,88.3770172 C217.819452,88.5607992 217.713453,88.8295329 217.406741,89.1832265 L218.005449,88.7463131 C218.157502,88.6353504 218.391643,88.5174543 218.70788,88.3926213 C219.024116,88.2677882 219.332089,88.2053726 219.631808,88.2053726 C219.922024,88.2123078 220.056564,88.2764572 220.035432,88.3978226 C220.0143,88.5191881 219.927708,88.6353504 219.775655,88.7463131 L213.43221,93.3755151 C213.280157,93.4864778 213.06244,93.6026401 212.779054,93.7240056 C212.495668,93.845371 212.166587,93.9095204 211.791801,93.9164556 C211.604477,93.9164556 211.478378,93.8991179 211.4135,93.8644421 C211.348622,93.8297662 211.319073,93.7846883 211.324853,93.7292069 C211.330633,93.6737256 211.36458,93.6147775 211.426695,93.552361 C211.488809,93.4899445 211.557879,93.4309965 211.633905,93.3755151 L212.075808,93.0530314 Z M218.14863,91.0973236 C218.690321,90.7020189 219.285515,90.3240579 219.934231,89.9634291 C220.582947,89.6028004 221.247187,89.2855211 221.926971,89.011582 C222.606754,88.7376428 223.287807,88.5174545 223.970148,88.3510105 C224.65249,88.1845664 225.29337,88.1013456 225.892808,88.1013456 C226.370485,88.1013456 226.72282,88.1637612 226.949825,88.2885942 C227.176829,88.4134273 227.288821,88.5521286 227.285804,88.7047023 C227.284707,88.7601836 227.262262,88.8295343 227.218469,88.9127563 C227.174676,88.9959783 227.102648,89.0861342 227.002383,89.1832265 C226.902118,89.2803189 226.778439,89.3774098 226.631343,89.4745022 C226.484247,89.5715945 226.306851,89.6617504 226.099148,89.7449724 C226.014167,89.7796483 225.905703,89.8177911 225.773753,89.8594021 C225.641803,89.9010131 225.512437,89.9304872 225.38565,89.9478251 C225.258864,89.965163 225.151154,89.965163 225.062517,89.9478251 C224.973881,89.9304872 224.93989,89.8732729 224.960542,89.7761805 C225.001297,89.6097365 224.98276,89.4814378 224.90493,89.3912806 C224.8271,89.3011234 224.638328,89.2560455 224.338609,89.2560455 C224.057623,89.2560455 223.738285,89.3011234 223.380586,89.3912806 C223.022887,89.4814378 222.652801,89.6062689 222.270315,89.7657778 C221.887829,89.9252867 221.492957,90.1194685 221.085684,90.3483291 C220.678412,90.5771896 220.284715,90.8303195 219.904582,91.1077263 C219.505442,91.3990033 219.210054,91.653867 219.018411,91.8723248 C218.826767,92.0907826 218.717765,92.2745618 218.691401,92.4236679 C218.665038,92.5727741 218.711982,92.6854689 218.832234,92.7617557 C218.952487,92.8380426 219.129688,92.8761854 219.363843,92.8761854 C219.541801,92.8761854 219.69882,92.8692504 219.834905,92.85538 C219.970989,92.8415097 220.095501,92.8207045 220.208444,92.7929638 C220.321387,92.7652232 220.427338,92.7357491 220.526301,92.7045409 C220.625263,92.6733326 220.7266,92.6403911 220.830313,92.6057152 C220.981133,92.557169 221.139009,92.5068898 221.303946,92.4548761 C221.468883,92.4028623 221.619494,92.3647194 221.755784,92.3404463 C221.892075,92.3161732 222.011595,92.3109719 222.114349,92.3248423 C222.217103,92.3387126 222.291209,92.380323 222.336669,92.4496747 C222.400176,92.5537022 222.372259,92.6629295 222.252919,92.7773598 C222.133579,92.8917901 221.880123,93.0391602 221.492543,93.2194746 C220.972602,93.4622055 220.390373,93.6581211 219.745839,93.8072272 C219.101305,93.9563333 218.455913,94.0308853 217.809644,94.0308853 C217.219573,94.0308853 216.790104,93.9615346 216.521226,93.8228312 C216.252349,93.6841279 216.136839,93.4864785 216.174694,93.2298773 C216.212549,92.973276 216.398948,92.6646657 216.733896,92.3040369 C217.068843,91.9434081 217.540417,91.5411744 218.14863,91.0973236 Z M224.823893,93.4899448 C224.652833,93.6147779 224.430708,93.7170701 224.157511,93.7968245 C223.884314,93.8765789 223.61184,93.9199231 223.340083,93.9268583 C223.068326,93.9337934 222.909891,93.8939168 222.864774,93.8072272 C222.819657,93.7205376 222.882627,93.6147779 223.053687,93.4899448 L232.547472,86.5617459 C232.804062,86.3744963 233.059723,86.2340612 233.314462,86.1404365 C233.569201,86.0468117 233.865158,86 234.202341,86 C234.539525,86 234.702437,86.0502792 234.691083,86.1508392 C234.679729,86.2513991 234.512497,86.4195744 234.189384,86.6553702 L229.100373,90.3691345 L234.506473,88.3822186 C234.874498,88.2435152 235.158987,88.1845671 235.359949,88.2053726 C235.560911,88.2261781 235.660226,88.2955288 235.657895,88.4134267 C235.655564,88.5313245 235.542564,88.6804284 235.318893,88.8607428 C235.095222,89.0410572 234.74277,89.2213689 234.261528,89.4016833 L229.733475,91.0349073 L229.812138,92.7409503 C229.798796,92.9420702 229.661558,93.1327845 229.400422,93.3130989 C229.139286,93.4934133 228.8578,93.6373159 228.555956,93.744811 C228.254112,93.8523061 227.978954,93.9129879 227.730475,93.9268583 C227.481996,93.9407286 227.358993,93.8852481 227.361461,93.760415 L227.261487,91.7110829 L224.823893,93.4899448 Z" id="Slack-Copy" fill="#61646D" opacity="0.800000012"></path>
                <path d="M176.669458,107.616118 C176.856783,107.616118 176.961226,107.66293 176.98279,107.756554 C177.004355,107.850179 176.867837,108.004484 176.573234,108.219475 C176.269127,108.4414 175.975693,108.597439 175.692924,108.687596 C175.410155,108.777753 175.184478,108.822831 175.015886,108.822831 L171.433326,108.822831 C171.124241,108.822831 170.980507,108.750013 171.002119,108.604375 C171.023731,108.458736 171.177084,108.281892 171.462184,108.073837 L179.787065,101.998659 C180.015145,101.832215 180.282307,101.702183 180.588561,101.608558 C180.894814,101.514933 181.17438,101.468122 181.427268,101.468122 C181.698888,101.468122 181.854844,101.514933 181.895141,101.608558 C181.935438,101.702183 181.841548,101.832215 181.613468,101.998659 L173.915804,107.616118 L176.669458,107.616118 Z M180.047133,108.385918 C179.86657,108.517686 179.618277,108.640783 179.302246,108.755214 C178.986215,108.869644 178.692394,108.926858 178.420774,108.926858 C178.149154,108.926858 178.009759,108.871378 178.002587,108.760415 C177.995415,108.649452 178.086861,108.524621 178.276927,108.385918 L184.549098,103.808729 C184.834198,103.600674 185.136929,103.448103 185.4573,103.35101 C185.777671,103.253918 186.045564,103.205373 186.260987,103.205373 C186.47641,103.205373 186.613634,103.252184 186.672663,103.345809 C186.731692,103.439434 186.613907,103.593739 186.319304,103.808729 L180.047133,108.385918 Z M187.016229,101.957049 C187.291826,101.755929 187.613598,101.587753 187.981554,101.452517 C188.34951,101.317282 188.669294,101.249665 188.940914,101.249665 C189.212534,101.249665 189.347005,101.317282 189.344332,101.452517 C189.341658,101.587753 189.202525,101.755929 188.926928,101.957049 C188.651331,102.158168 188.329559,102.326344 187.961603,102.46158 C187.593647,102.596815 187.273863,102.664432 187.002243,102.664432 C186.730623,102.664432 186.596152,102.596815 186.598825,102.46158 C186.601499,102.326344 186.740632,102.158168 187.016229,101.957049 Z M190.941255,105.597994 C191.245362,105.376068 191.495095,105.180153 191.690462,105.010241 C191.885829,104.84033 192.010364,104.699895 192.064072,104.588932 C192.11778,104.477969 192.093669,104.394748 191.991738,104.339267 C191.889806,104.283786 191.703033,104.256045 191.431413,104.256045 C191.206624,104.256045 190.974471,104.273383 190.734946,104.308059 C190.495422,104.342735 190.243611,104.406884 189.979506,104.500509 C189.715401,104.594134 189.427131,104.7259 189.114686,104.895812 C188.802241,105.065723 188.465461,105.282444 188.104334,105.54598 L184.070188,108.489945 C183.908632,108.607843 183.686506,108.710135 183.403806,108.796824 C183.121105,108.883514 182.853315,108.926858 182.600427,108.926858 C182.347539,108.926858 182.200915,108.88178 182.16055,108.791623 C182.120184,108.701466 182.176027,108.600908 182.328081,108.489945 L188.970879,103.642286 C189.141939,103.517453 189.371123,103.413427 189.658438,103.330205 C189.945753,103.246983 190.211168,103.205373 190.454689,103.205373 C190.698211,103.205373 190.844904,103.246983 190.894773,103.330205 C190.944641,103.413427 190.884047,103.517453 190.712987,103.642286 L190.014495,104.152018 C190.269851,104.027185 190.541594,103.902354 190.829732,103.777521 C191.117869,103.652688 191.412787,103.539993 191.714494,103.439433 C192.016202,103.338873 192.315186,103.257386 192.611456,103.19497 C192.907725,103.132553 193.191666,103.101346 193.463287,103.101346 C193.866034,103.101346 194.17195,103.142956 194.381045,103.226178 C194.590139,103.3094 194.697757,103.432497 194.703901,103.595474 C194.710045,103.75845 194.60528,103.964769 194.389604,104.214435 C194.173928,104.464101 193.838015,104.755373 193.381854,105.088262 L188.720492,108.489945 C188.549432,108.614778 188.329614,108.718804 188.061031,108.802026 C187.792448,108.885248 187.527034,108.926858 187.26478,108.926858 C187.002526,108.926858 186.846467,108.885248 186.796598,108.802026 C186.746729,108.718804 186.807324,108.614778 186.978384,108.489945 L190.941255,105.597994 Z M192.745603,108.489945 C192.574543,108.614778 192.352418,108.71707 192.079221,108.796824 C191.806024,108.876579 191.53355,108.919923 191.261793,108.926858 C190.990036,108.933793 190.831601,108.893917 190.786484,108.807227 C190.741366,108.720538 190.804337,108.614778 190.975397,108.489945 L200.469182,101.561746 C200.725772,101.374496 200.981433,101.234061 201.236172,101.140436 C201.490911,101.046812 201.786868,101 202.124051,101 C202.461235,101 202.624147,101.050279 202.612793,101.150839 C202.601439,101.251399 202.434207,101.419574 202.111094,101.65537 L197.022083,105.369134 L202.428183,103.382219 C202.796207,103.243515 203.080697,103.184567 203.281659,103.205373 C203.482621,103.226178 203.581936,103.295529 203.579604,103.413427 C203.577273,103.531325 203.464274,103.680428 203.240603,103.860743 C203.016932,104.041057 202.66448,104.221369 202.183238,104.401683 L197.655185,106.034907 L197.733848,107.74095 C197.720506,107.94207 197.583268,108.132785 197.322132,108.313099 C197.060996,108.493413 196.77951,108.637316 196.477666,108.744811 C196.175822,108.852306 195.900664,108.912988 195.652185,108.926858 C195.403706,108.940729 195.280703,108.885248 195.283171,108.760415 L195.183197,106.711083 L192.745603,108.489945 Z M207.013809,105.587591 C207.251392,105.414212 207.463112,105.246037 207.648976,105.08306 C207.834839,104.920084 207.961751,104.777915 208.029714,104.656549 C208.097677,104.535184 208.099597,104.438093 208.035473,104.365274 C207.971349,104.292455 207.808162,104.256045 207.545908,104.256045 C207.208725,104.256045 206.877713,104.29939 206.552865,104.386079 C206.228017,104.472769 205.916742,104.58373 205.619032,104.718966 C205.321323,104.854201 205.046827,104.999838 204.795537,105.155879 C204.544247,105.31192 204.328324,105.455823 204.147761,105.587591 L207.013809,105.587591 Z M201.045042,109.030885 C200.473703,109.030885 200.072333,108.961535 199.84092,108.822831 C199.609507,108.684128 199.526744,108.488212 199.592629,108.235079 C199.658515,107.981945 199.868294,107.675068 200.221974,107.31444 C200.575655,106.953811 201.056594,106.551577 201.664808,106.107726 C202.254015,105.677746 202.870694,105.27898 203.514864,104.911416 C204.159034,104.543852 204.806883,104.226572 205.458431,103.959568 C206.109979,103.692564 206.75102,103.482779 207.381573,103.330205 C208.012127,103.177631 208.608381,103.101346 209.170354,103.101346 C209.704228,103.101346 210.063451,103.170696 210.248033,103.3094 C210.432615,103.448103 210.482768,103.63535 210.398493,103.871146 C210.314218,104.106941 210.114456,104.380876 209.7992,104.692959 C209.483945,105.005041 209.088739,105.334457 208.613573,105.681216 C208.214432,105.972493 207.858817,106.194415 207.546715,106.346988 C207.234613,106.499562 206.938074,106.575848 206.657087,106.575848 L202.793542,106.575848 C202.574965,106.735357 202.384559,106.891396 202.222316,107.043969 C202.060074,107.196543 201.956646,107.335244 201.91203,107.460077 C201.867414,107.58491 201.898207,107.685469 202.00441,107.761756 C202.110614,107.838043 202.327621,107.876185 202.655438,107.876185 C203.076918,107.876185 203.471219,107.829374 203.838352,107.735749 C204.205486,107.642124 204.540073,107.536364 204.842123,107.418467 C205.068694,107.328309 205.247747,107.272829 205.379285,107.252023 C205.510824,107.231218 205.609202,107.229484 205.674422,107.246822 C205.739643,107.26416 205.783618,107.290166 205.806348,107.324842 C205.829078,107.359518 205.849603,107.387258 205.867924,107.408064 C205.903332,107.512091 205.776386,107.655994 205.487083,107.839776 C205.19778,108.023558 204.81723,108.20387 204.345423,108.380716 C203.873615,108.557563 203.346099,108.710135 202.762856,108.838435 C202.179614,108.966736 201.607015,109.030885 201.045042,109.030885 Z M211.408172,106.097324 C210.562238,106.721489 210.099036,107.174002 210.018553,107.454876 C209.93807,107.73575 210.164762,107.876185 210.698637,107.876185 C211.232511,107.876185 211.842118,107.716679 212.527476,107.397661 C213.212835,107.078643 213.926133,106.648669 214.667393,106.107726 C215.437163,105.545978 215.911936,105.1004 216.091724,104.770979 C216.271512,104.441559 216.118024,104.269916 215.631255,104.256045 C215.125616,104.24911 214.506849,104.398214 213.774934,104.703362 C213.043018,105.008509 212.254106,105.473158 211.408172,106.097324 Z M211.973622,108.053031 C211.746502,108.170929 211.491356,108.285358 211.208175,108.396321 C210.924995,108.507283 210.635034,108.606108 210.338284,108.692797 C210.041535,108.779487 209.745132,108.848838 209.449068,108.900852 C209.153003,108.952865 208.878532,108.978872 208.625644,108.978872 C208.194798,108.978872 207.886986,108.914722 207.702198,108.786422 C207.51741,108.658121 207.460233,108.470874 207.530664,108.224676 C207.601095,107.978477 207.806089,107.676802 208.145651,107.319641 C208.485214,106.96248 208.968598,106.555045 209.595818,106.097324 C210.365588,105.535575 211.105466,105.06399 211.815474,104.682556 C212.525482,104.301122 213.18955,103.992512 213.807699,103.756716 C214.425849,103.52092 214.988797,103.352745 215.496561,103.252185 C216.004325,103.151625 216.440841,103.101346 216.806124,103.101346 C217.208871,103.101346 217.462143,103.20017 217.565946,103.397823 C217.66975,103.595475 217.582621,103.857274 217.304556,104.183227 L220.896799,101.561746 C221.048852,101.450783 221.282993,101.332887 221.59923,101.208054 C221.915466,101.083221 222.223439,101.020805 222.523158,101.020805 C222.813374,101.027741 222.947914,101.09189 222.926782,101.213255 C222.90565,101.334621 222.819058,101.450783 222.667005,101.561746 L213.315769,108.385918 C213.239743,108.441399 213.147258,108.500347 213.038312,108.562764 C212.929367,108.62518 212.801759,108.684128 212.655486,108.73961 C212.509213,108.795091 212.353781,108.840169 212.189187,108.874845 C212.024592,108.909521 211.853319,108.926858 211.67536,108.926858 C211.488036,108.926858 211.361937,108.909521 211.297059,108.874845 C211.232181,108.840169 211.202633,108.795091 211.208413,108.73961 C211.214193,108.684128 211.248139,108.62518 211.310254,108.562764 C211.372368,108.500347 211.441438,108.441399 211.517465,108.385918 L211.973622,108.053031 Z M217.568137,108.261085 C217.26403,108.483011 216.963367,108.649452 216.666137,108.760415 C216.368907,108.871378 216.056388,108.926858 215.728571,108.926858 C215.400753,108.926858 215.244968,108.871378 215.261211,108.760415 C215.277455,108.649452 215.432876,108.486478 215.727479,108.271488 L224.137889,102.133894 C224.746102,101.690044 225.349919,101.468122 225.949357,101.468122 C226.249076,101.468122 226.412022,101.516667 226.438201,101.613759 C226.46438,101.710852 226.311164,101.880761 225.978547,102.123492 L217.568137,108.261085 Z M228.305249,105.597994 C228.609356,105.376068 228.859089,105.180153 229.054455,105.010241 C229.249822,104.84033 229.374358,104.699895 229.428066,104.588932 C229.481774,104.477969 229.457663,104.394748 229.355731,104.339267 C229.2538,104.283786 229.067027,104.256045 228.795407,104.256045 C228.570617,104.256045 228.338464,104.273383 228.09894,104.308059 C227.859416,104.342735 227.607605,104.406884 227.3435,104.500509 C227.079395,104.594134 226.791124,104.7259 226.47868,104.895812 C226.166235,105.065723 225.829454,105.282444 225.468328,105.54598 L221.434182,108.489945 C221.272625,108.607843 221.0505,108.710135 220.767799,108.796824 C220.485099,108.883514 220.217309,108.926858 219.964421,108.926858 C219.711533,108.926858 219.564909,108.88178 219.524543,108.791623 C219.484178,108.701466 219.540021,108.600908 219.692074,108.489945 L226.334873,103.642286 C226.505933,103.517453 226.735117,103.413427 227.022432,103.330205 C227.309747,103.246983 227.575161,103.205373 227.818683,103.205373 C228.062205,103.205373 228.208898,103.246983 228.258766,103.330205 C228.308635,103.413427 228.24804,103.517453 228.07698,103.642286 L227.378489,104.152018 C227.633845,104.027185 227.905587,103.902354 228.193725,103.777521 C228.481863,103.652688 228.776781,103.539993 229.078488,103.439433 C229.380195,103.338873 229.679179,103.257386 229.975449,103.19497 C230.271719,103.132553 230.55566,103.101346 230.82728,103.101346 C231.230028,103.101346 231.535944,103.142956 231.745038,103.226178 C231.954133,103.3094 232.06175,103.432497 232.067894,103.595474 C232.074038,103.75845 231.969274,103.964769 231.753597,104.214435 C231.537921,104.464101 231.202008,104.755373 230.745848,105.088262 L226.084485,108.489945 C225.913425,108.614778 225.693607,108.718804 225.425025,108.802026 C225.156442,108.885248 224.891028,108.926858 224.628774,108.926858 C224.366519,108.926858 224.21046,108.885248 224.160592,108.802026 C224.110723,108.718804 224.171318,108.614778 224.342378,108.489945 L228.305249,105.597994 Z" id="LinkedIn-Copy" fill="#61646D" opacity="0.800000012"></path>
                <path d="M258.799903,102.778862 L251.116495,108.385918 C250.926428,108.524621 250.685125,108.649452 250.392578,108.760415 C250.100032,108.871378 249.789854,108.926858 249.462036,108.926858 C249.134219,108.926858 248.980844,108.86791 249.001908,108.750012 C249.022971,108.632114 249.119031,108.510751 249.290091,108.385918 L256.9735,102.778862 L255.175195,102.778862 C255.006603,102.778862 254.904468,102.733784 254.868785,102.643627 C254.833103,102.55347 254.967313,102.397431 255.27142,102.175505 C255.566023,101.960515 255.852398,101.80621 256.130553,101.712585 C256.408707,101.61896 256.641443,101.572149 256.828767,101.572149 L262.25178,101.572149 C262.439104,101.572149 262.543547,101.61896 262.565111,101.712585 C262.586676,101.80621 262.450158,101.960515 262.155555,102.175505 C261.851448,102.397431 261.558015,102.55347 261.275246,102.643627 C260.992477,102.733784 260.7668,102.778862 260.598208,102.778862 L258.799903,102.778862 Z M266.007819,103.101346 C266.654088,103.101346 267.102152,103.177631 267.352023,103.330205 C267.601894,103.482779 267.684348,103.694298 267.599388,103.96477 C267.514427,104.235241 267.288017,104.554254 266.920151,104.921818 C266.552284,105.289382 266.078506,105.684681 265.498803,106.107726 C264.909596,106.537707 264.302385,106.931272 263.677154,107.288433 C263.051922,107.645594 262.415986,107.952471 261.769326,108.209072 C261.122667,108.465673 260.472431,108.66679 259.8186,108.812429 C259.164768,108.958067 258.519411,109.030885 257.882508,109.030885 C257.245605,109.030885 256.804532,108.956333 256.559276,108.807227 C256.314019,108.658121 256.224403,108.453537 256.290425,108.193468 C256.356448,107.933399 256.570979,107.623055 256.934025,107.262426 C257.297072,106.901797 257.76844,106.509966 258.348143,106.086921 C258.927847,105.663876 259.532715,105.270311 260.162768,104.906214 C260.79282,104.542118 261.431269,104.226572 262.078134,103.959568 C262.724998,103.692564 263.380089,103.482779 264.043423,103.330205 C264.706758,103.177631 265.36155,103.101346 266.007819,103.101346 Z M259.464806,107.876185 C260.092342,107.876185 260.765067,107.72188 261.483002,107.413265 C262.200936,107.10465 262.944777,106.669475 263.714547,106.107726 C264.484317,105.545978 264.959158,105.096932 265.139083,104.760576 C265.319009,104.424221 265.071791,104.256045 264.397423,104.256045 C264.06024,104.256045 263.712735,104.304591 263.354899,104.401683 C262.997063,104.498776 262.636206,104.630542 262.272315,104.796986 C261.908425,104.96343 261.546333,105.157612 261.186029,105.379537 C260.825725,105.601463 260.474519,105.837255 260.132399,106.086921 C259.362628,106.64867 258.902042,107.087312 258.750627,107.402863 C258.599212,107.718413 258.837269,107.876185 259.464806,107.876185 Z M265.992599,108.489945 C265.821539,108.614778 265.599413,108.71707 265.326216,108.796824 C265.053019,108.876579 264.780546,108.919923 264.508789,108.926858 C264.237031,108.933793 264.078596,108.893917 264.033479,108.807227 C263.988362,108.720538 264.051333,108.614778 264.222393,108.489945 L273.716178,101.561746 C273.972768,101.374496 274.228428,101.234061 274.483167,101.140436 C274.737906,101.046812 275.033863,101 275.371047,101 C275.708231,101 275.871143,101.050279 275.859789,101.150839 C275.848434,101.251399 275.681203,101.419574 275.358089,101.65537 L270.269078,105.369134 L275.675178,103.382219 C276.043203,103.243515 276.327692,103.184567 276.528655,103.205373 C276.729617,103.226178 276.828931,103.295529 276.8266,103.413427 C276.824269,103.531325 276.71127,103.680428 276.487598,103.860743 C276.263927,104.041057 275.911476,104.221369 275.430234,104.401683 L270.902181,106.034907 L270.980844,107.74095 C270.967501,107.94207 270.830264,108.132785 270.569128,108.313099 C270.307992,108.493413 270.026506,108.637316 269.724662,108.744811 C269.422817,108.852306 269.14766,108.912988 268.899181,108.926858 C268.650702,108.940729 268.527698,108.885248 268.530166,108.760415 L268.430192,106.711083 L265.992599,108.489945 Z M280.260804,105.587591 C280.498388,105.414212 280.710108,105.246037 280.895971,105.08306 C281.081835,104.920084 281.208746,104.777915 281.276709,104.656549 C281.344672,104.535184 281.346592,104.438093 281.282468,104.365274 C281.218345,104.292455 281.055158,104.256045 280.792904,104.256045 C280.45572,104.256045 280.124709,104.29939 279.799861,104.386079 C279.475012,104.472769 279.163738,104.58373 278.866028,104.718966 C278.568318,104.854201 278.293823,104.999838 278.042533,105.155879 C277.791243,105.31192 277.57532,105.455823 277.394756,105.587591 L280.260804,105.587591 Z M274.292038,109.030885 C273.720699,109.030885 273.319329,108.961535 273.087915,108.822831 C272.856502,108.684128 272.77374,108.488212 272.839625,108.235079 C272.90551,107.981945 273.11529,107.675068 273.46897,107.31444 C273.82265,106.953811 274.30359,106.551577 274.911803,106.107726 C275.50101,105.677746 276.117689,105.27898 276.761859,104.911416 C277.406029,104.543852 278.053879,104.226572 278.705427,103.959568 C279.356975,103.692564 279.998016,103.482779 280.628569,103.330205 C281.259122,103.177631 281.855376,103.101346 282.417349,103.101346 C282.951224,103.101346 283.310446,103.170696 283.495028,103.3094 C283.67961,103.448103 283.729763,103.63535 283.645488,103.871146 C283.561213,104.106941 283.361451,104.380876 283.046196,104.692959 C282.73094,105.005041 282.335735,105.334457 281.860568,105.681216 C281.461428,105.972493 281.105812,106.194415 280.793711,106.346988 C280.481609,106.499562 280.185069,106.575848 279.904083,106.575848 L276.040538,106.575848 C275.821961,106.735357 275.631554,106.891396 275.469312,107.043969 C275.30707,107.196543 275.203642,107.335244 275.159026,107.460077 C275.11441,107.58491 275.145203,107.685469 275.251406,107.761756 C275.357609,107.838043 275.574616,107.876185 275.902434,107.876185 C276.323914,107.876185 276.718214,107.829374 277.085348,107.735749 C277.452481,107.642124 277.787068,107.536364 278.089118,107.418467 C278.31569,107.328309 278.494742,107.272829 278.626281,107.252023 C278.757819,107.231218 278.856197,107.229484 278.921418,107.246822 C278.986639,107.26416 279.030613,107.290166 279.053343,107.324842 C279.076073,107.359518 279.096598,107.387258 279.114919,107.408064 C279.150328,107.512091 279.023382,107.655994 278.734079,107.839776 C278.444775,108.023558 278.064226,108.20387 277.592418,108.380716 C277.120611,108.557563 276.593094,108.710135 276.009852,108.838435 C275.42661,108.966736 274.854011,109.030885 274.292038,109.030885 Z M288.612881,105.597994 C288.916987,105.376068 289.16672,105.180153 289.362087,105.010241 C289.557454,104.84033 289.68199,104.699895 289.735698,104.588932 C289.789406,104.477969 289.765295,104.394748 289.663363,104.339267 C289.561432,104.283786 289.374659,104.256045 289.103038,104.256045 C288.878249,104.256045 288.646096,104.273383 288.406572,104.308059 C288.167048,104.342735 287.915237,104.406884 287.651132,104.500509 C287.387027,104.594134 287.098756,104.7259 286.786311,104.895812 C286.473867,105.065723 286.137086,105.282444 285.775959,105.54598 L281.741814,108.489945 C281.580257,108.607843 281.358132,108.710135 281.075431,108.796824 C280.792731,108.883514 280.524941,108.926858 280.272053,108.926858 C280.019165,108.926858 279.87254,108.88178 279.832175,108.791623 C279.791809,108.701466 279.847653,108.600908 279.999706,108.489945 L286.642504,103.642286 C286.813564,103.517453 287.042749,103.413427 287.330064,103.330205 C287.617379,103.246983 287.882793,103.205373 288.126315,103.205373 C288.369836,103.205373 288.516529,103.246983 288.566398,103.330205 C288.616267,103.413427 288.555672,103.517453 288.384612,103.642286 L287.68612,104.152018 C287.941476,104.027185 288.213219,103.902354 288.501357,103.777521 C288.789495,103.652688 289.084413,103.539993 289.38612,103.439433 C289.687827,103.338873 289.986811,103.257386 290.283081,103.19497 C290.579351,103.132553 290.863292,103.101346 291.134912,103.101346 C291.537659,103.101346 291.843576,103.142956 292.05267,103.226178 C292.261765,103.3094 292.369382,103.432497 292.375526,103.595474 C292.38167,103.75845 292.276905,103.964769 292.061229,104.214435 C291.845553,104.464101 291.50964,104.755373 291.05348,105.088262 L286.392117,108.489945 C286.221057,108.614778 286.001239,108.718804 285.732656,108.802026 C285.464074,108.885248 285.198659,108.926858 284.936405,108.926858 C284.674151,108.926858 284.518092,108.885248 284.468223,108.802026 C284.418355,108.718804 284.478949,108.614778 284.650009,108.489945 L288.612881,105.597994 Z M296.800543,106.107726 C297.646202,105.497431 298.128342,105.034516 298.246975,104.718966 C298.365609,104.403415 298.167289,104.24911 297.65201,104.256045 C297.136731,104.262981 296.517518,104.434623 295.794352,104.770979 C295.071186,105.107335 294.320046,105.55638 293.54091,106.118129 C292.790283,106.659072 292.322879,107.087312 292.138682,107.402863 C291.954485,107.718413 292.129321,107.876185 292.663195,107.876185 C293.197069,107.876185 293.803924,107.737484 294.483776,107.460077 C295.163628,107.182671 295.935876,106.731891 296.800543,106.107726 Z M288.323399,109.93592 C288.247372,109.991402 288.154888,110.05035 288.045942,110.112766 C287.936996,110.175183 287.809389,110.234131 287.663116,110.289612 C287.516842,110.345093 287.361411,110.390171 287.196816,110.424847 C287.032222,110.459523 286.860948,110.476861 286.68299,110.476861 C286.327211,110.469926 286.173939,110.405776 286.22317,110.284411 C286.2724,110.163045 286.373041,110.046883 286.525094,109.93592 L295.006779,103.746313 C295.158832,103.63535 295.390598,103.519188 295.702083,103.397823 C296.013567,103.276457 296.323916,103.212308 296.633139,103.205373 C296.932857,103.205373 297.069773,103.267788 297.043889,103.392621 C297.018006,103.517454 296.929039,103.63535 296.776985,103.746313 L296.178278,104.183227 C296.840906,103.829533 297.471405,103.560799 298.069794,103.377017 C298.668182,103.193235 299.192157,103.101346 299.641736,103.101346 C300.044483,103.101346 300.364277,103.151625 300.601128,103.252185 C300.837978,103.352745 300.93768,103.52092 300.900236,103.756716 C300.862792,103.992512 300.669369,104.301122 300.31996,104.682556 C299.970552,105.06399 299.410971,105.535575 298.641201,106.097324 C298.013981,106.555045 297.380739,106.96248 296.741458,107.319641 C296.102177,107.676802 295.478051,107.978477 294.869063,108.224676 C294.260074,108.470874 293.678016,108.658121 293.122873,108.786422 C292.567729,108.914722 292.060693,108.978872 291.601748,108.978872 C291.142804,108.978872 290.844392,108.912989 290.706504,108.78122 C290.568616,108.649452 290.634295,108.406725 290.903542,108.053031 L288.323399,109.93592 Z M307.839476,103.101346 C308.485745,103.101346 308.933809,103.177631 309.18368,103.330205 C309.433551,103.482779 309.516005,103.694298 309.431045,103.96477 C309.346084,104.235241 309.119674,104.554254 308.751807,104.921818 C308.383941,105.289382 307.910163,105.684681 307.330459,106.107726 C306.741252,106.537707 306.134042,106.931272 305.50881,107.288433 C304.883578,107.645594 304.247642,107.952471 303.600983,108.209072 C302.954324,108.465673 302.304088,108.66679 301.650257,108.812429 C300.996425,108.958067 300.351068,109.030885 299.714165,109.030885 C299.077262,109.030885 298.636189,108.956333 298.390932,108.807227 C298.145676,108.658121 298.05606,108.453537 298.122082,108.193468 C298.188104,107.933399 298.402636,107.623055 298.765682,107.262426 C299.128728,106.901797 299.600096,106.509966 300.1798,106.086921 C300.759503,105.663876 301.364372,105.270311 301.994424,104.906214 C302.624476,104.542118 303.262925,104.226572 303.90979,103.959568 C304.556655,103.692564 305.211745,103.482779 305.87508,103.330205 C306.538415,103.177631 307.193207,103.101346 307.839476,103.101346 Z M301.296462,107.876185 C301.923999,107.876185 302.596724,107.72188 303.314658,107.413265 C304.032593,107.10465 304.776434,106.669475 305.546204,106.107726 C306.315974,105.545978 306.790815,105.096932 306.97074,104.760576 C307.150665,104.424221 306.903448,104.256045 306.22908,104.256045 C305.891896,104.256045 305.544392,104.304591 305.186556,104.401683 C304.82872,104.498776 304.467862,104.630542 304.103972,104.796986 C303.740082,104.96343 303.37799,105.157612 303.017686,105.379537 C302.657382,105.601463 302.306175,105.837255 301.964055,106.086921 C301.194285,106.64867 300.733699,107.087312 300.582284,107.402863 C300.430869,107.718413 300.668926,107.876185 301.296462,107.876185 Z M309.50928,107.824172 C309.818365,107.824172 310.149548,107.772159 310.502838,107.668131 C310.856128,107.564104 311.161063,107.418468 311.417653,107.231218 C311.531693,107.147996 311.612779,107.073444 311.660913,107.00756 C311.709046,106.941676 311.714963,106.87926 311.678664,106.820311 C311.642365,106.761362 311.563919,106.702414 311.443323,106.643465 C311.322728,106.584516 311.150724,106.520367 310.927306,106.451015 C310.647965,106.367793 310.429576,106.281105 310.272133,106.190948 C310.11469,106.100791 310.030179,105.993297 310.018598,105.868464 C310.007016,105.743631 310.075527,105.594527 310.224131,105.421148 C310.372736,105.247769 310.613343,105.039717 310.945959,104.796986 C311.297583,104.540385 311.683809,104.309794 312.104651,104.105206 C312.525493,103.900619 312.957419,103.727242 313.400442,103.585071 C313.843465,103.4429 314.278771,103.335407 314.706374,103.262587 C315.133976,103.189768 315.530413,103.153359 315.895696,103.153359 C316.27971,103.153359 316.590515,103.184567 316.82812,103.246983 C317.065724,103.3094 317.232737,103.389153 317.329162,103.486246 C317.425588,103.583338 317.463337,103.687364 317.442411,103.798327 C317.421485,103.909289 317.349251,104.009848 317.225707,104.100005 C316.940607,104.30806 316.630063,104.500508 316.294066,104.677355 C315.958069,104.854202 315.687046,104.942624 315.480989,104.942624 C315.415426,104.942624 315.375997,104.923552 315.362702,104.885409 C315.349407,104.847265 315.334147,104.790051 315.316923,104.713764 C315.27256,104.588931 315.194937,104.488373 315.08405,104.412086 C314.973164,104.335799 314.730469,104.294189 314.355957,104.287254 C314.121939,104.280318 313.851979,104.314994 313.546068,104.391281 C313.240158,104.467567 312.963663,104.595866 312.716577,104.776181 C312.602537,104.859403 312.53092,104.928753 312.501724,104.984235 C312.472529,105.039716 312.487925,105.089995 312.547914,105.135074 C312.607904,105.180152 312.700639,105.226964 312.826123,105.27551 C312.951607,105.324056 313.121441,105.379537 313.33563,105.441953 C313.559048,105.511305 313.749476,105.591058 313.906919,105.681216 C314.064362,105.771373 314.155829,105.882334 314.181322,106.014102 C314.206816,106.14587 314.147431,106.30711 314.003167,106.497828 C313.858903,106.688545 313.60146,106.919136 313.23083,107.189607 C312.850696,107.467014 312.424287,107.716676 311.951588,107.938602 C311.478889,108.160527 310.999859,108.347774 310.514482,108.500348 C310.029105,108.652921 309.556129,108.770817 309.095539,108.854039 C308.634949,108.937261 308.226702,108.978872 307.870786,108.978872 C307.449306,108.978872 307.119974,108.937261 306.882781,108.854039 C306.645588,108.770817 306.483636,108.671993 306.396919,108.557562 C306.310203,108.443132 306.282094,108.325236 306.312592,108.203871 C306.34309,108.082505 306.415358,107.980213 306.529398,107.896991 C306.643438,107.813769 306.77397,107.725347 306.920998,107.631722 C307.068025,107.538097 307.219596,107.451409 307.375716,107.371654 C307.531835,107.2919 307.683029,107.224283 307.829303,107.168802 C307.975576,107.11332 308.104908,107.08558 308.217303,107.08558 C308.310965,107.08558 308.357041,107.123723 308.355533,107.20001 C308.354024,107.276297 308.371077,107.361251 308.406691,107.454876 C308.442304,107.548501 308.536627,107.633455 308.689661,107.709742 C308.842695,107.786029 309.115899,107.824172 309.50928,107.824172 Z" id="Tokenpos-Copy" fill="#61646D" opacity="0.800000012"></path>
                <path d="M278.57225,90.9724911 L277.068979,90.9724911 C276.731796,90.9724911 276.547673,90.929147 276.516605,90.8424574 C276.485537,90.7557678 276.622054,90.6014626 276.926161,90.3795372 C277.230268,90.1576118 277.528453,89.9981053 277.820725,89.9010129 C278.112998,89.8039206 278.423038,89.7553751 278.750856,89.7553751 L281.097081,89.7553751 C281.481096,89.7553751 281.63888,89.8281933 281.570437,89.9738318 C281.501994,90.1194704 281.22069,90.3726002 280.726516,90.733229 C280.127806,91.1701446 279.485027,91.5862485 278.798161,91.9815531 C278.111294,92.3768578 277.394924,92.7253448 276.649028,93.0270246 C275.903132,93.3287045 275.146774,93.5679642 274.379931,93.744811 C273.613088,93.9216578 272.850346,94.0100799 272.091682,94.0100799 C271.351751,94.0100799 270.810301,93.919924 270.467316,93.7396096 C270.124331,93.5592953 269.970147,93.3044316 270.004759,92.9750111 C270.039371,92.6455906 270.264982,92.2485581 270.681599,91.7839018 C271.098217,91.3192455 271.700905,90.7991157 272.489682,90.2234967 C273.240445,89.6756183 274.044298,89.1658911 274.901265,88.6942996 C275.758232,88.2227081 276.625659,87.8135393 277.503573,87.4667809 C278.381487,87.1200224 279.250924,86.8460874 280.111909,86.6449675 C280.972895,86.4438476 281.778024,86.3432891 282.527321,86.3432891 C282.958167,86.3432891 283.325271,86.3692956 283.628645,86.4213094 C283.932019,86.4733232 284.170899,86.5894855 284.345292,86.7697999 C284.436623,86.8876978 284.497341,87.0142627 284.527449,87.1494985 C284.557557,87.2847343 284.545517,87.419968 284.491329,87.5552038 C284.437141,87.6904396 284.329168,87.8222058 284.167405,87.9505065 C284.005643,88.0788071 283.778698,88.1880344 283.486562,88.2781915 C283.32624,88.3336729 283.159032,88.3822184 282.984934,88.4238294 C282.810837,88.4654404 282.653475,88.4897131 282.512844,88.4966483 C282.372214,88.5035834 282.255344,88.4931808 282.16223,88.4654402 C282.069116,88.4376995 282.023383,88.382219 282.025028,88.2989969 C282.059023,88.0007847 281.983422,87.797934 281.798223,87.6904389 C281.613024,87.5829438 281.29564,87.5291971 280.846062,87.5291971 C280.452681,87.5291971 279.997192,87.5916126 279.479582,87.7164457 C278.961972,87.8412787 278.419926,88.0181229 277.853428,88.2469834 C277.28693,88.475844 276.705432,88.7532466 276.108916,89.0791995 C275.512399,89.4051525 274.938553,89.7692434 274.38736,90.1714832 C273.826663,90.5806581 273.395581,90.9482165 273.0941,91.2741695 C272.79262,91.6001224 272.616204,91.877525 272.564848,92.1063856 C272.513492,92.3352461 272.584924,92.5120903 272.779147,92.6369233 C272.973369,92.7617564 273.290582,92.8241719 273.730794,92.8241719 C274.049245,92.8241719 274.410765,92.7773603 274.815363,92.6837355 C275.219962,92.5901107 275.639289,92.461812 276.073357,92.2988355 C276.507425,92.1358591 276.939762,91.9416773 277.370382,91.7162843 C277.801001,91.4908913 278.20162,91.2429627 278.57225,90.9724911 Z M281.060834,93.3651124 C280.880271,93.4968806 280.631978,93.619978 280.315947,93.7344083 C279.999916,93.8488386 279.706095,93.9060529 279.434475,93.9060529 C279.162855,93.9060529 279.02346,93.8505723 279.016288,93.7396096 C279.009116,93.6286469 279.100562,93.5038158 279.290628,93.3651124 L285.562798,88.7879239 C285.847899,88.5798688 286.15063,88.4272974 286.471001,88.3302051 C286.791372,88.2331127 287.059265,88.1845672 287.274688,88.1845672 C287.490111,88.1845672 287.627335,88.2313789 287.686364,88.3250037 C287.745393,88.4186285 287.627608,88.5729337 287.333005,88.7879239 L281.060834,93.3651124 Z M288.02993,86.9362431 C288.305527,86.7351232 288.627299,86.5669479 288.995255,86.4317121 C289.363211,86.2964763 289.682995,86.2288594 289.954615,86.2288594 C290.226235,86.2288594 290.360706,86.2964763 290.358033,86.4317121 C290.355359,86.5669479 290.216226,86.7351232 289.940629,86.9362431 C289.665032,87.137363 289.34326,87.3055383 288.975304,87.4407741 C288.607348,87.5760099 288.287564,87.6436268 288.015944,87.6436268 C287.744324,87.6436268 287.609853,87.5760099 287.612526,87.4407741 C287.6152,87.3055383 287.754333,87.137363 288.02993,86.9362431 Z M291.28855,89.4640995 L288.095445,91.7943045 C287.829352,91.9884893 287.620145,92.1479957 287.467817,92.2728288 C287.315489,92.3976618 287.217533,92.4964865 287.173945,92.5693058 C287.130358,92.642125 287.143413,92.6924043 287.213111,92.7201449 C287.282809,92.7478856 287.406635,92.7617557 287.584593,92.7617557 C287.753185,92.7617557 287.969291,92.7270804 288.232916,92.6577287 C288.496541,92.588377 288.736542,92.529429 288.952924,92.4808828 C289.197543,92.4254015 289.345024,92.4271352 289.395373,92.4860842 C289.445722,92.5450331 289.337851,92.671598 289.071758,92.8657827 C288.805664,93.0599675 288.533202,93.2212077 288.254361,93.3495083 C287.975521,93.477809 287.692482,93.5818349 287.405236,93.6615894 C287.117989,93.7413438 286.828817,93.8002919 286.53771,93.8384353 C286.246603,93.8765787 285.955809,93.8991177 285.665319,93.9060529 C285.346731,93.912988 285.077765,93.8973841 284.858413,93.8592407 C284.639061,93.8210973 284.504727,93.7465453 284.455407,93.6355826 C284.406086,93.5246199 284.453557,93.3737823 284.597821,93.1830651 C284.742085,92.992348 285.023287,92.7444194 285.441433,92.439272 L289.518344,89.4640995 L288.956374,89.4640995 C288.69412,89.4640995 288.592156,89.4103527 288.650478,89.3028576 C288.708801,89.1953625 288.875758,89.0410573 289.151355,88.8399374 C289.436455,88.6318823 289.682921,88.4827785 289.89076,88.3926213 C290.098599,88.3024641 290.324277,88.2573861 290.567798,88.2573861 L291.171916,88.2573861 L291.913173,87.7164457 C292.217279,87.4945203 292.499211,87.3280787 292.758976,87.217116 C293.018741,87.1061533 293.340626,87.0506728 293.724641,87.0506728 C294.118022,87.0506728 294.297393,87.0974845 294.26276,87.1911093 C294.228127,87.2847341 294.08727,87.4217016 293.840183,87.602016 L292.942122,88.2573861 L294.403245,88.2573861 C294.731062,88.2573861 294.879994,88.3041978 294.850044,88.3978226 C294.820095,88.4914474 294.672007,88.6388175 294.405776,88.8399374 C294.139546,89.0410573 293.876586,89.1953625 293.61689,89.3028576 C293.357194,89.4103527 293.049392,89.4640995 292.693476,89.4640995 L291.28855,89.4640995 Z M298.246175,91.0765182 C299.110841,90.452353 299.597698,89.9877036 299.706759,89.6825562 C299.815821,89.3774088 299.598666,89.2283049 299.055288,89.2352401 C298.511911,89.2421752 297.883366,89.4120843 297.169635,89.7449724 C296.455904,90.0778605 295.709481,90.5251722 294.930345,91.0869209 C294.170215,91.6347992 293.7004,92.066507 293.520886,92.3820571 C293.341372,92.6976073 293.523233,92.85538 294.066473,92.85538 C294.609714,92.85538 295.223593,92.7166787 295.908128,92.439272 C296.592664,92.1618652 297.372005,91.7076185 298.246175,91.0765182 Z M291.850662,93.3651124 C291.774636,93.4205937 291.682151,93.4795418 291.573205,93.5419583 C291.46426,93.6043748 291.336652,93.6633229 291.190379,93.7188042 C291.044106,93.7742856 290.888674,93.8193635 290.72408,93.8540394 C290.559485,93.8887152 290.388212,93.9060529 290.210253,93.9060529 C289.854474,93.8991177 289.701202,93.8349683 289.750433,93.7136029 C289.799664,93.5922374 289.900304,93.4760751 290.052358,93.3651124 L299.403593,86.5409405 C299.555647,86.4299778 299.787412,86.3138154 300.098897,86.19245 C300.410382,86.0710845 300.72073,86.0069352 301.029953,86 C301.329672,86 301.466587,86.0624156 301.440704,86.1872486 C301.41482,86.3120817 301.325853,86.4299778 301.173799,86.5409405 L297.581556,89.1624211 C298.300382,88.8087275 298.973028,88.5399938 299.599515,88.3562118 C300.226002,88.1724298 300.764027,88.0805402 301.213605,88.0805402 C301.578888,88.0805402 301.868242,88.1308194 302.081677,88.2313794 C302.295112,88.3319393 302.378423,88.5001147 302.331613,88.7359104 C302.284803,88.9717061 302.084355,89.2803165 301.730263,89.6617508 C301.376172,90.0431851 300.814249,90.5147695 300.044479,91.0765182 C299.417259,91.5342393 298.784018,91.9416743 298.144737,92.2988355 C297.505455,92.6559967 296.886013,92.957672 296.28639,93.2038705 C295.686768,93.450069 295.121101,93.6373158 294.589373,93.7656164 C294.057645,93.893917 293.581048,93.9580664 293.159569,93.9580664 C292.747455,93.9580664 292.434994,93.8921832 292.222176,93.760415 C292.009359,93.6286468 292.037573,93.3859196 292.30682,93.032226 L291.850662,93.3651124 Z M303.304555,91.3990019 C303.000448,91.6209273 302.748339,91.8185766 302.548221,91.9919559 C302.348102,92.1653351 302.216439,92.3109714 302.153228,92.4288693 C302.090016,92.5467672 302.104625,92.636923 302.197053,92.6993395 C302.289481,92.761756 302.471502,92.7929638 302.743122,92.7929638 C302.967912,92.7929638 303.204816,92.7721586 303.453844,92.7305476 C303.702871,92.6889366 303.964185,92.6178522 304.237794,92.5172923 C304.511402,92.4167323 304.8068,92.2797648 305.123997,92.1063856 C305.441193,91.9330063 305.780349,91.7145518 306.141476,91.4510154 L310.018818,88.6214807 C310.180374,88.5035828 310.4025,88.4012906 310.6852,88.314601 C310.967901,88.2279114 311.235691,88.1845672 311.488579,88.1845672 C311.741466,88.1845672 311.888091,88.2296452 311.928456,88.3198024 C311.968822,88.4099595 311.912979,88.510518 311.760925,88.6214807 L305.118127,93.4691394 C304.947067,93.5939724 304.717883,93.6979984 304.430568,93.7812204 C304.143253,93.8644425 303.877838,93.9060529 303.634317,93.9060529 C303.390795,93.9060529 303.244102,93.8644425 303.194233,93.7812204 C303.144364,93.6979984 303.204959,93.5939724 303.376019,93.4691394 L304.088766,92.9490044 C303.83341,93.0738374 303.566419,93.195201 303.287784,93.3130989 C303.00915,93.4309968 302.721359,93.5384903 302.424404,93.6355826 C302.127448,93.732675 301.830874,93.8106945 301.534673,93.8696434 C301.238471,93.9285923 300.959248,93.9580664 300.696994,93.9580664 C300.331711,93.9580664 300.05162,93.9129884 299.856712,93.8228312 C299.661804,93.7326741 299.561349,93.6026416 299.555342,93.43273 C299.549335,93.2628183 299.651895,93.0495651 299.863025,92.7929638 C300.074155,92.5363626 300.407796,92.2416223 300.863956,91.9087342 L305.368514,88.6214807 C305.539574,88.4966476 305.759392,88.3926217 306.027975,88.3093997 C306.296558,88.2261776 306.561972,88.1845672 306.824226,88.1845672 C307.08648,88.1845672 307.242539,88.2261776 307.292408,88.3093997 C307.342277,88.3926217 307.281682,88.4966476 307.110622,88.6214807 L303.304555,91.3990019 Z M315.568906,91.0765182 C316.433572,90.452353 316.920429,89.9877036 317.029491,89.6825562 C317.138552,89.3774088 316.921398,89.2283049 316.37802,89.2352401 C315.834642,89.2421752 315.206097,89.4120843 314.492366,89.7449724 C313.778635,90.0778605 313.032212,90.5251722 312.253076,91.0869209 C311.492946,91.6347992 311.023132,92.066507 310.843618,92.3820571 C310.664104,92.6976073 310.845964,92.85538 311.389205,92.85538 C311.932445,92.85538 312.546324,92.7166787 313.23086,92.439272 C313.915395,92.1618652 314.694736,91.7076185 315.568906,91.0765182 Z M309.173394,93.3651124 C309.097367,93.4205937 309.004882,93.4795418 308.895937,93.5419583 C308.786991,93.6043748 308.659384,93.6633229 308.51311,93.7188042 C308.366837,93.7742856 308.211405,93.8193635 308.046811,93.8540394 C307.882217,93.8887152 307.710943,93.9060529 307.532985,93.9060529 C307.177206,93.8991177 307.023934,93.8349683 307.073164,93.7136029 C307.122395,93.5922374 307.223036,93.4760751 307.375089,93.3651124 L316.726325,86.5409405 C316.878378,86.4299778 317.110144,86.3138154 317.421628,86.19245 C317.733113,86.0710845 318.043462,86.0069352 318.352684,86 C318.652403,86 318.789319,86.0624156 318.763435,86.1872486 C318.737551,86.3120817 318.648584,86.4299778 318.496531,86.5409405 L314.904288,89.1624211 C315.623113,88.8087275 316.29576,88.5399938 316.922247,88.3562118 C317.548734,88.1724298 318.086758,88.0805402 318.536337,88.0805402 C318.901619,88.0805402 319.190973,88.1308194 319.404408,88.2313794 C319.617843,88.3319393 319.701154,88.5001147 319.654344,88.7359104 C319.607534,88.9717061 319.407086,89.2803165 319.052995,89.6617508 C318.698903,90.0431851 318.136981,90.5147695 317.367211,91.0765182 C316.73999,91.5342393 316.106749,91.9416743 315.467468,92.2988355 C314.828187,92.6559967 314.208744,92.957672 313.609122,93.2038705 C313.009499,93.450069 312.443832,93.6373158 311.912104,93.7656164 C311.380376,93.893917 310.90378,93.9580664 310.4823,93.9580664 C310.070186,93.9580664 309.757726,93.8921832 309.544908,93.760415 C309.33209,93.6286468 309.360304,93.3859196 309.629551,93.032226 L309.173394,93.3651124 Z" id="Gitbub-Copy" fill="#61646D" opacity="0.800000012"></path>
                <text id="服务-copy" font-family="PingFangSC-Semibold, PingFang SC" font-size="12" font-weight="500" letter-spacing="4" fill="#3F454E">
                    <tspan x="216" y="132">服务</tspan>
                </text>
            </g>
        </g>
    </g>
</svg>