<?xml version="1.0" encoding="UTF-8"?>
<svg width="537px" height="360px" viewBox="0 0 537 360" version="1.1" xmlns="http://www.w3.org/2000/svg" xmlns:xlink="http://www.w3.org/1999/xlink">
    <!-- Generator: Sketch 51.2 (57519) - http://www.bohemiancoding.com/sketch -->
    <title>Group 2</title>
    <desc>Created with Sketch.</desc>
    <defs></defs>
    <g id="CODE-Network-0.5-中文-" stroke="none" stroke-width="1" fill="none" fill-rule="evenodd">
        <g id="Artboard-2" transform="translate(-140.000000, -164.000000)">
            <g id="Group-2" transform="translate(140.000000, 164.000000)">
                <circle id="Oval-2" fill="#5FD448" fill-rule="nonzero" cx="30" cy="319" r="30"></circle>
                <path d="M111,319 L73,319" id="Stroke-105" stroke="#1A2033" stroke-linecap="round" stroke-linejoin="round" stroke-dasharray="4,4"></path>
                <path d="M69,322 C67.344,322 66,320.656 66,319 C66,317.344 67.344,316 69,316 C70.656,316 72,317.344 72,319 C72,320.656 70.656,322 69,322" id="Fill-109" fill="#1A2033"></path>
                <text id="DCO" font-family="MicrosoftYaHei, Microsoft YaHei" font-size="15" font-weight="normal" letter-spacing="-0.1071429" fill="#FFFFFF">
                    <tspan x="15" y="325">DCO</tspan>
                </text>
                <circle id="Oval-2" fill="#5FD448" fill-rule="nonzero" cx="30" cy="200" r="30"></circle>
                <path d="M111,200 L73,200" id="Stroke-105" stroke="#1A2033" stroke-linecap="round" stroke-linejoin="round" stroke-dasharray="4,4"></path>
                <path d="M69,203 C67.344,203 66,201.656 66,200 C66,198.344 67.344,197 69,197 C70.656,197 72,198.344 72,200 C72,201.656 70.656,203 69,203" id="Fill-109" fill="#1A2033"></path>
                <text id="DCO" font-family="MicrosoftYaHei, Microsoft YaHei" font-size="15" font-weight="normal" letter-spacing="-0.1071429" fill="#FFFFFF">
                    <tspan x="15" y="206">DCO</tspan>
                </text>
                <circle id="Oval-2" fill="#5FD448" fill-rule="nonzero" cx="30" cy="81" r="30"></circle>
                <path d="M111,81 L73,81" id="Stroke-105" stroke="#1A2033" stroke-linecap="round" stroke-linejoin="round" stroke-dasharray="4,4"></path>
                <path d="M69,84 C67.344,84 66,82.656 66,81 C66,79.344 67.344,78 69,78 C70.656,78 72,79.344 72,81 C72,82.656 70.656,84 69,84" id="Fill-109" fill="#1A2033"></path>
                <text id="DCO" font-family="MicrosoftYaHei, Microsoft YaHei" font-size="15" font-weight="normal" letter-spacing="-0.1071429" fill="#FFFFFF">
                    <tspan x="15" y="87">DCO</tspan>
                </text>
                <rect id="Rectangle-6" stroke="#9EA3B3" fill-rule="nonzero" x="118.5" y="0.5" width="279" height="359" rx="15"></rect>
                <rect id="Rectangle-6-Copy" fill="#5C64D6" fill-rule="nonzero" x="457" y="67" width="80" height="80" rx="40"></rect>
                <text id="交易所" font-family="MicrosoftYaHei, Microsoft YaHei" font-size="13" font-weight="normal" letter-spacing="1" fill="#FFFFFF">
                    <tspan x="477" y="113">交易所</tspan>
                </text>
                <path d="M432,91 L432,123" id="Stroke-105-Copy" stroke="#1A2033" stroke-linecap="round" stroke-linejoin="round" stroke-dasharray="4,4" transform="translate(432.000000, 107.000000) rotate(-90.000000) translate(-432.000000, -107.000000) "></path>
                <g id="Group-20-Copy" transform="translate(479.000000, 177.000000)" fill-rule="nonzero">
                    <path d="M20.2740384,23.1345737 L37.2781616,32.9790661 C37.7561234,33.2557808 37.9192664,33.8675669 37.6425517,34.3455287 C37.5550082,34.4967402 37.4293732,34.6223752 37.2781616,34.7099187 L20.2740384,44.5544111 C19.964104,44.7338468 19.5818763,44.7338424 19.271946,44.5543996 L2.26872405,34.7099072 C1.79076867,34.4331815 1.62763976,33.8213916 1.90436544,33.3434362 C1.99190462,33.1922402 2.11752803,33.0666168 2.26872405,32.9790776 L19.271946,23.1345852 C19.5818763,22.9551424 19.964104,22.955138 20.2740384,23.1345737 Z M19.0003715,46.8001253 L19.0000301,66.487095 C19.0000205,67.0393797 18.5522975,67.4870872 18.0000127,67.4870776 C17.8241066,67.4870746 17.6513136,67.4406707 17.4990719,67.3525491 L0.499041817,57.5124744 C0.190180826,57.3336973 5.15143483e-14,57.0038731 4.79616347e-14,56.6470029 L-2.39808173e-13,36.9559374 C-2.46913601e-13,36.4036526 0.44771525,35.9559374 1,35.9559374 C1.17597024,35.9559374 1.34882473,36.002372 1.50110681,36.0905519 L18.5014783,45.9347225 C18.8102608,46.113525 19.0003777,46.4433103 19.0003715,46.8001253 Z M20.5479325,46.8001253 C20.5479263,46.4433103 20.7380431,46.113525 21.0468256,45.9347225 L38.0471971,36.0905519 C38.1994792,36.002372 38.3723337,35.9559374 38.5483039,35.9559374 C39.1005887,35.9559374 39.5483039,36.4036526 39.5483039,36.9559374 L39.5483039,56.6470029 C39.5483039,57.0038731 39.3581231,57.3336973 39.0492621,57.5124744 L22.049232,67.3525491 C21.8969903,67.4406707 21.7241973,67.4870746 21.5482912,67.4870776 C20.9960064,67.4870872 20.5482834,67.0393797 20.5482739,66.487095 L20.5479325,46.8001253 Z" id="Combined-Shape-Copy" fill="#D3D6E0"></path>
                    <path d="M20.2740384,93.1345737 L37.2781616,102.979066 C37.7561234,103.255781 37.9192664,103.867567 37.6425517,104.345529 C37.5550082,104.49674 37.4293732,104.622375 37.2781616,104.709919 L20.2740384,114.554411 C19.964104,114.733847 19.5818763,114.733842 19.271946,114.5544 L2.26872405,104.709907 C1.79076867,104.433181 1.62763976,103.821392 1.90436544,103.343436 C1.99190462,103.19224 2.11752803,103.066617 2.26872405,102.979078 L19.271946,93.1345852 C19.5818763,92.9551424 19.964104,92.955138 20.2740384,93.1345737 Z M19.0003715,116.800125 L19.0000301,136.487095 C19.0000205,137.03938 18.5522975,137.487087 18.0000127,137.487078 C17.8241066,137.487075 17.6513136,137.440671 17.4990719,137.352549 L0.499041817,127.512474 C0.190180826,127.333697 5.15143483e-14,127.003873 4.79616347e-14,126.647003 L-2.39808173e-13,106.955937 C-2.46913601e-13,106.403653 0.44771525,105.955937 1,105.955937 C1.17597024,105.955937 1.34882473,106.002372 1.50110681,106.090552 L18.5014783,115.934723 C18.8102608,116.113525 19.0003777,116.44331 19.0003715,116.800125 Z M20.5479325,116.800125 C20.5479263,116.44331 20.7380431,116.113525 21.0468256,115.934723 L38.0471971,106.090552 C38.1994792,106.002372 38.3723337,105.955937 38.5483039,105.955937 C39.1005887,105.955937 39.5483039,106.403653 39.5483039,106.955937 L39.5483039,126.647003 C39.5483039,127.003873 39.3581231,127.333697 39.0492621,127.512474 L22.049232,137.352549 C21.8969903,137.440671 21.7241973,137.487075 21.5482912,137.487078 C20.9960064,137.487087 20.5482834,137.03938 20.5482739,136.487095 L20.5479325,116.800125 Z" id="Combined-Shape-Copy-2" fill="#D3D6E0"></path>
                    <path d="M20.25,0 L20.25,20" id="Path-2" stroke="#D3D6E0" stroke-width="2" stroke-linecap="round" stroke-linejoin="round"></path>
                    <path d="M20.25,71 L20.25,91" id="Path-2-Copy" stroke="#D3D6E0" stroke-width="2" stroke-linecap="round" stroke-linejoin="round"></path>
                    <path d="M20.25,141 L20.25,161" id="Path-2-Copy-3" stroke="#D3D6E0" stroke-width="2" stroke-linecap="round" stroke-linejoin="round"></path>
                </g>
                <path d="M432,242 L432,274" id="Stroke-105-Copy-2" stroke="#1A2033" stroke-linecap="round" stroke-linejoin="round" stroke-dasharray="4,4" transform="translate(432.000000, 258.000000) rotate(-90.000000) translate(-432.000000, -258.000000) "></path>
                <path d="M410,110 C408.344,110 407,108.656 407,107 C407,105.344 408.344,104 410,104 C411.656,104 413,105.344 413,107 C413,108.656 411.656,110 410,110" id="Fill-109-Copy-2" fill="#1A2033" transform="translate(410.000000, 107.000000) rotate(-90.000000) translate(-410.000000, -107.000000) "></path>
                <path d="M410,261 C408.344,261 407,259.656 407,258 C407,256.344 408.344,255 410,255 C411.656,255 413,256.344 413,258 C413,259.656 411.656,261 410,261" id="Fill-109-Copy-4" fill="#1A2033" transform="translate(410.000000, 258.000000) rotate(-90.000000) translate(-410.000000, -258.000000) "></path>
                <path d="M450,110 C448.344,110 447,108.656 447,107 C447,105.344 448.344,104 450,104 C451.656,104 453,105.344 453,107 C453,108.656 451.656,110 450,110" id="Fill-109-Copy-3" fill="#1A2033" transform="translate(450.000000, 107.000000) rotate(-90.000000) translate(-450.000000, -107.000000) "></path>
                <path d="M450,261 C448.344,261 447,259.656 447,258 C447,256.344 448.344,255 450,255 C451.656,255 453,256.344 453,258 C453,259.656 451.656,261 450,261" id="Fill-109-Copy-5" fill="#1A2033" transform="translate(450.000000, 258.000000) rotate(-90.000000) translate(-450.000000, -258.000000) "></path>
                <path d="M398,49 L118,49 L398,49 Z" id="Rectangle-6" stroke="#9EA3B3" fill-rule="nonzero"></path>
                <text id="DCO-Network" font-family="MicrosoftYaHei, Microsoft YaHei" font-size="16" font-weight="normal" letter-spacing="2.20000005" fill="#1A2033">
                    <tspan x="193.36875" y="31">DCO Network</tspan>
                </text>
            </g>
        </g>
    </g>
</svg>