<?xml version="1.0" encoding="UTF-8"?>
<svg width="386px" height="280px" viewBox="0 0 386 280" version="1.1" xmlns="http://www.w3.org/2000/svg" xmlns:xlink="http://www.w3.org/1999/xlink">
    <!-- Generator: Sketch 51.2 (57519) - http://www.bohemiancoding.com/sketch -->
    <title>Group 12</title>
    <desc>Created with Sketch.</desc>
    <defs></defs>
    <g id="CODE-Network-0.4.2-中文" stroke="none" stroke-width="1" fill="none" fill-rule="evenodd">
        <g id="Desktop-HD-Copy-2" transform="translate(-473.000000, -1800.000000)">
            <g id="Group-12" transform="translate(473.000000, 1800.000000)">
                <g id="Group-22">
                    <path d="M280,140 C280,217.319262 217.319262,280 140,280 C62.680738,280 0,217.319262 0,140 C0,62.680738 62.680738,0 140,0 C217.319262,0 280,62.680738 280,140" id="Fill-1" fill="#D3D6E0" opacity="0.100000001"></path>
                    <g id="Group-2" transform="translate(27.290667, 65.445333)" fill="#FF9900">
                        <path d="M43.3886507,24.8793899 C43.3886507,36.6512571 33.8572858,46.1930431 22.0982753,46.1930431 C10.3392648,46.1930431 0.807899886,36.6512571 0.807899886,24.8793899 C0.807899886,13.1075228 10.3392648,3.56573678 22.0982753,3.56573678 C33.8572858,3.56573678 43.3886507,13.1075228 43.3886507,24.8793899" id="Fill-5"></path>
                        <path d="M224.917115,21.5140763 C224.917115,33.2859434 215.38575,42.8277294 203.626739,42.8277294 C191.867729,42.8277294 182.336364,33.2859434 182.336364,21.5140763 C182.336364,9.7422091 191.867729,0.200423124 203.626739,0.200423124 C215.38575,0.200423124 224.917115,9.7422091 224.917115,21.5140763" id="Fill-18"></path>
                        <path d="M135.273429,178.562047 C135.273429,190.332792 125.742064,199.8757 113.983053,199.8757 C102.224043,199.8757 92.692678,190.332792 92.692678,178.562047 C92.692678,166.79018 102.224043,157.248394 113.983053,157.248394 C125.742064,157.248394 135.273429,166.79018 135.273429,178.562047" id="Fill-20"></path>
                    </g>
                    <g id="Group-17" transform="translate(20.254744, 30.870849)"></g>
                    <g id="Group-3" transform="translate(20.254744, 30.870849)" fill="#D3D6E0">
                        <path d="M56.5875768,59.4538745 C56.5875768,74.6325609 44.2963069,86.9372694 29.134198,86.9372694 C25.584308,86.9372694 22.1957767,86.2552325 19.0817791,85.0280148 C18.7209633,84.8855498 18.3646296,84.7363542 18.0105371,84.5793063 C8.3928901,80.3053579 1.68081911,70.6670996 1.68081911,59.4538745 C1.68081911,44.2751882 13.972089,31.9704797 29.134198,31.9704797 C34.241647,31.9704797 39.020776,33.371572 43.1174924,35.803572 C43.4491741,36.0010037 43.775253,36.2062878 44.0979702,36.4171808 C51.6145933,41.319321 56.5875768,49.8032768 56.5875768,59.4538745 M94.6861433,1.68265683 C92.8293985,1.68265683 91.3245051,3.18919557 91.3245051,5.04797048 C91.3245051,5.20838376 91.3502777,5.36206642 91.3715681,5.51574908 C72.7794676,11.0404723 56.5886973,21.4280738 43.9903978,35.0329151 C40.0505578,32.6233506 35.4876942,31.1347601 30.6021133,30.8857269 C30.1157963,30.861048 29.6261177,30.8487085 29.134198,30.8487085 C28.6422782,30.8487085 28.1525996,30.861048 27.6662826,30.8857269 C13.0756522,31.6283395 1.33905256,43.3777712 0.597251058,57.9843542 C0.572599044,58.471203 0.560273038,58.961417 0.560273038,59.4538745 C0.560273038,59.9463321 0.572599044,60.4365461 0.597251058,60.9245166 C1.16424737,72.0693137 8.13516451,81.5449151 17.8883975,85.742583 C16.4585808,92.680738 15.6876451,99.8320295 15.6876451,107.129151 C15.6876451,117.319321 17.1353906,127.362539 19.9737338,137.038937 C18.2088737,137.151114 16.8081911,138.606052 16.8081911,140.400886 C16.8081911,142.268635 18.3220489,143.784148 20.1877581,143.784148 C22.0545878,143.784148 23.5673251,142.268635 23.5673251,140.400886 C23.5673251,138.884251 22.5644363,137.615528 21.1906468,137.185889 C18.2917941,127.469107 16.8081911,117.376531 16.8081911,107.129151 C16.8081911,99.9801033 17.5555954,92.9735203 18.9417109,86.1722214 C21.6758433,87.2210775 24.6060713,87.8660959 27.6662826,88.0220221 C28.1525996,88.0467011 28.6422782,88.0590406 29.134198,88.0590406 C29.6261177,88.0590406 30.1157963,88.0467011 30.6021133,88.0220221 C45.1927438,87.2794096 56.9293433,75.5299779 57.6711448,60.9245166 C57.6957969,60.4365461 57.7081229,59.9463321 57.7081229,59.4538745 C57.7081229,58.961417 57.6957969,58.471203 57.6711448,57.9843542 C57.1971539,48.6714096 52.2510635,40.5262288 44.9495853,35.6487675 C57.3999727,22.2536974 73.3755981,12.0287528 91.7122141,6.58591882 C92.2713666,7.6661845 93.3863099,8.41328413 94.6861433,8.41328413 C96.5428882,8.41328413 98.0477816,6.90674539 98.0477816,5.04797048 C98.0477816,3.18919557 96.5428882,1.68265683 94.6861433,1.68265683" id="Fill-7"></path>
                        <path d="M93.8774452,208.987997 C75.6416784,204.102683 58.8525366,194.371318 45.5101945,180.650934 C45.8810952,180.107997 46.0984811,179.451761 46.0984811,178.745045 C46.0984811,176.877296 44.5857439,175.361783 42.7189142,175.361783 C40.8520844,175.361783 39.3393472,176.877296 39.3393472,178.745045 C39.3393472,180.613916 40.8520844,182.128307 42.7189142,182.128307 C43.4741622,182.128307 44.1644186,181.872543 44.7269328,181.453001 C58.2440801,195.345015 75.2573311,205.18968 93.7351359,210.113134 C93.7754755,209.736218 93.8214179,209.360425 93.8774452,208.987997" id="Fill-9"></path>
                        <path d="M198.183477,175.361671 C196.316647,175.361671 194.80391,176.877184 194.80391,178.744933 C194.80391,179.745553 195.245405,180.635117 195.934541,181.254335 C182.523845,194.859176 166.132497,204.324682 148.171264,209.069774 C148.226171,209.442202 148.273234,209.816874 148.313574,210.193789 C166.598644,205.391486 183.275732,195.748741 196.89709,181.871309 C197.293763,182.035088 197.727414,182.128195 198.183477,182.128195 C200.050306,182.128195 201.563044,180.613804 201.563044,178.744933 C201.563044,176.877184 200.050306,175.361671 198.183477,175.361671" id="Fill-11"></path>
                        <path d="M224.091174,80.0576708 C223.77406,80.2360325 223.452463,80.4076635 223.127505,80.5736856 C219.384881,82.4863055 215.151458,83.5721801 210.66255,83.5721801 C195.500441,83.5721801 183.209171,71.2674716 183.209171,56.0887852 C183.209171,46.2710435 188.354719,37.6625712 196.088728,32.8008148 C196.372226,32.6224531 196.660206,32.4508221 196.950428,32.2836782 C200.985514,29.9481506 205.666035,28.6053904 210.66255,28.6053904 C225.824659,28.6053904 238.115929,40.9100989 238.115929,56.0887852 C238.115929,66.3832797 232.459412,75.3484753 224.091174,80.0576708 M239.199497,54.6192649 C238.457695,40.0126819 226.721096,28.2632502 212.130465,27.5206376 C211.644148,27.4959587 211.15559,27.4836192 210.66255,27.4836192 C210.17063,27.4836192 209.680952,27.4959587 209.194635,27.5206376 C204.390854,27.7651838 199.899705,29.2089033 196.005807,31.5500399 C182.850596,18.4993535 166.443561,8.97888118 148.5899,4.18667454 C148.595503,4.10366347 148.615673,4.02401771 148.615673,3.9387631 C148.615673,2.06989225 147.101815,0.554379336 145.234985,0.554379336 C143.368156,0.554379336 141.855418,2.06989225 141.855418,3.9387631 C141.855418,5.80763395 143.368156,7.32202509 145.234985,7.32202509 C146.625583,7.32202509 147.816723,6.48069668 148.336657,5.2792797 C166.520879,10.1376708 182.485298,19.5336266 195.167639,32.0716635 C187.690235,36.923324 182.606317,45.170586 182.125603,54.6192649 C182.100951,55.1061137 182.088625,55.5952059 182.088625,56.0887852 C182.088625,56.5812428 182.100951,57.0714568 182.125603,57.5583055 C182.867405,72.1637668 194.605125,83.9143203 209.194635,84.6569328 C209.680952,84.6816118 210.17063,84.6939513 210.66255,84.6939513 C211.15559,84.6939513 211.644148,84.6816118 212.130465,84.6569328 C216.116248,84.4538923 219.885765,83.4241063 223.279899,81.7448148 C225.275591,89.8989697 226.350195,98.399752 226.350195,107.130497 C226.350195,117.266822 224.910293,127.255073 222.087638,136.878748 C222.013682,136.873139 221.943087,136.856313 221.868011,136.856313 C220.011266,136.856313 218.506373,138.362852 218.506373,140.221627 C218.506373,142.080401 220.011266,143.58694 221.868011,143.58694 C223.724756,143.58694 225.229649,142.080401 225.229649,140.221627 C225.229649,138.83063 224.385878,137.637066 223.183532,137.124416 C226.021875,127.419973 227.470741,117.349833 227.470741,107.130497 C227.470741,98.3649771 226.353557,89.6712502 224.240207,81.2456266 C232.756357,76.6205638 238.679564,67.7933461 239.199497,57.5583055 C239.224149,57.0714568 239.236475,56.5812428 239.236475,56.0887852 C239.236475,55.5952059 239.224149,55.1061137 239.199497,54.6192649" id="Fill-13"></path>
                        <path d="M121.018976,240.619926 C105.856867,240.619926 93.5655973,228.315218 93.5655973,213.136531 C93.5655973,197.957845 105.856867,185.653137 121.018976,185.653137 C136.181085,185.653137 148.472355,197.957845 148.472355,213.136531 C148.472355,228.315218 136.181085,240.619926 121.018976,240.619926 M149.555923,211.665889 C148.814122,197.060428 137.077522,185.310996 122.486891,184.568384 C122.000574,184.543705 121.510896,184.531365 121.018976,184.531365 C120.527056,184.531365 120.037378,184.543705 119.551061,184.568384 C104.96043,185.310996 93.2238307,197.060428 92.4820292,211.665889 C92.4573772,212.15386 92.4450512,212.644074 92.4450512,213.136531 C92.4450512,213.628989 92.4573772,214.119203 92.4820292,214.607173 C93.2238307,229.211513 104.96043,240.962066 119.551061,241.704679 C120.037378,241.728236 120.527056,241.741697 121.018976,241.741697 C121.510896,241.741697 122.000574,241.728236 122.486891,241.704679 C137.077522,240.962066 148.814122,229.211513 149.555923,214.607173 C149.580575,214.119203 149.592901,213.628989 149.592901,213.136531 C149.592901,212.644074 149.580575,212.15386 149.555923,211.665889" id="Fill-15"></path>
                    </g>
                </g>
                <path d="M140.827475,13 C131.529734,13 124,20.5243949 124,29.8155429 C124,39.1066908 131.529734,46.6310857 140.827475,46.6310857 C150.125215,46.6310857 157.654949,39.1066908 157.654949,29.8155429 C157.654949,20.5243949 150.125215,13 140.827475,13" id="Fill-23" fill="#5C64D6"></path>
                <path d="M141.048242,18 C143.832629,18 146.096485,20.262251 146.096485,23.0446629 C146.096485,25.836043 143.832629,28.0893257 141.048242,28.0893257 C138.263856,28.0893257 136,25.836043 136,23.0446629 C136,20.262251 138.263856,18 141.048242,18" id="Fill-25" fill="#FFFFFF"></path>
                <path d="M141.096485,41.593792 C136.881763,41.593792 133.178597,39.4414025 131,36.1791872 C131.04263,32.8418625 137.738843,31 141.096485,31 C144.454127,31 151.142487,32.8418625 151.19297,36.1791872 C149.014373,39.4414025 145.311206,41.593792 141.096485,41.593792" id="Fill-27" fill="#FFFFFF"></path>
                <path d="M46.8274747,175 C37.529734,175 30,182.524395 30,191.815543 C30,201.106691 37.529734,208.631086 46.8274747,208.631086 C56.1252155,208.631086 63.6549495,201.106691 63.6549495,191.815543 C63.6549495,182.524395 56.1252155,175 46.8274747,175" id="Fill-29" fill="#5C64D6"></path>
                <path d="M46.0482424,180 C48.8326286,180 51.0964848,182.262251 51.0964848,185.044663 C51.0964848,187.836043 48.8326286,190.089326 46.0482424,190.089326 C43.2638563,190.089326 41,187.836043 41,185.044663 C41,182.262251 43.2638563,180 46.0482424,180" id="Fill-31" fill="#FFFFFF"></path>
                <path d="M46.0964848,203.593792 C41.8817633,203.593792 38.1785971,201.441403 36,198.179187 C36.0426296,194.841862 42.7388427,193 46.0964848,193 C49.454127,193 56.1424873,194.841862 56.1929697,198.179187 C54.0143726,201.441403 50.3112064,203.593792 46.0964848,203.593792" id="Fill-33" fill="#FFFFFF"></path>
                <path d="M234.827475,175 C225.529734,175 218,182.524395 218,191.815543 C218,201.106691 225.529734,208.631086 234.827475,208.631086 C244.125215,208.631086 251.654949,201.106691 251.654949,191.815543 C251.654949,182.524395 244.125215,175 234.827475,175" id="Fill-35" fill="#5C64D6"></path>
                <path d="M235.048242,180 C237.832629,180 240.096485,182.262251 240.096485,185.044663 C240.096485,187.836043 237.832629,190.089326 235.048242,190.089326 C232.263856,190.089326 230,187.836043 230,185.044663 C230,182.262251 232.263856,180 235.048242,180" id="Fill-37" fill="#FFFFFF"></path>
                <path d="M235.096485,203.593792 C230.881763,203.593792 227.178597,201.441403 225,198.179187 C225.04263,194.841862 231.738843,193 235.096485,193 C238.454127,193 245.142487,194.841862 245.19297,198.179187 C243.014373,201.441403 239.311206,203.593792 235.096485,203.593792" id="Fill-39" fill="#FFFFFF"></path>
                <text id="智能合约" opacity="0.800000012" font-family="MicrosoftYaHei, Microsoft YaHei" font-size="12" font-weight="normal" fill="#1A1A1A">
                    <tspan x="118.066667" y="155">智能合约</tspan>
                </text>
                <text id="CODE" font-family="PingFangSC-Semibold, PingFang SC" font-size="10" font-weight="500" fill="#FFFFFF">
                    <tspan x="34.4896667" y="93">CODE</tspan>
                </text>
                <text id="CODE" font-family="PingFangSC-Semibold, PingFang SC" font-size="10" font-weight="500" fill="#FFFFFF">
                    <tspan x="217.489667" y="90">CODE</tspan>
                </text>
                <text id="CODE" font-family="PingFangSC-Semibold, PingFang SC" font-size="10" font-weight="500" fill="#FFFFFF">
                    <tspan x="127.489667" y="248">CODE</tspan>
                </text>
                <path d="M287,100 C288.6565,100 290,101.343 290,103 C290,104.6565 288.6565,106 287,106 C285.3435,106 284,104.6565 284,103 C284,101.343 285.3435,100 287,100" id="Fill-1" fill="#1A2033"></path>
                <path d="M294,103 L340,103" id="Stroke-3" stroke="#1A2033" stroke-linecap="round" stroke-dasharray="4,4"></path>
                <g id="Group-4" transform="translate(313.000000, 172.000000) scale(-1, 1) translate(-313.000000, -172.000000) translate(285.000000, 169.000000)">
                    <path d="M3,0 C4.6565,0 6,1.343 6,3 C6,4.6565 4.6565,6 3,6 C1.3435,6 0,4.6565 0,3 C0,1.343 1.3435,0 3,0" id="Fill-1-Copy" fill="#1A2033"></path>
                    <path d="M10,3 L56,3" id="Stroke-3-Copy" stroke="#1A2033" stroke-linecap="round" stroke-dasharray="4,4"></path>
                </g>
                <g id="Group-20" transform="translate(346.000000, 24.000000)" fill-rule="nonzero">
                    <path d="M20.2740384,23.1345737 L37.2781616,32.9790661 C37.7561234,33.2557808 37.9192664,33.8675669 37.6425517,34.3455287 C37.5550082,34.4967402 37.4293732,34.6223752 37.2781616,34.7099187 L20.2740384,44.5544111 C19.964104,44.7338468 19.5818763,44.7338424 19.271946,44.5543996 L2.26872405,34.7099072 C1.79076867,34.4331815 1.62763976,33.8213916 1.90436544,33.3434362 C1.99190462,33.1922402 2.11752803,33.0666168 2.26872405,32.9790776 L19.271946,23.1345852 C19.5818763,22.9551424 19.964104,22.955138 20.2740384,23.1345737 Z M19.0003715,46.8001253 L19.0000301,66.487095 C19.0000205,67.0393797 18.5522975,67.4870872 18.0000127,67.4870776 C17.8241066,67.4870746 17.6513136,67.4406707 17.4990719,67.3525491 L0.499041817,57.5124744 C0.190180826,57.3336973 5.15143483e-14,57.0038731 4.79616347e-14,56.6470029 L-2.39808173e-13,36.9559374 C-2.46913601e-13,36.4036526 0.44771525,35.9559374 1,35.9559374 C1.17597024,35.9559374 1.34882473,36.002372 1.50110681,36.0905519 L18.5014783,45.9347225 C18.8102608,46.113525 19.0003777,46.4433103 19.0003715,46.8001253 Z M20.5479325,46.8001253 C20.5479263,46.4433103 20.7380431,46.113525 21.0468256,45.9347225 L38.0471971,36.0905519 C38.1994792,36.002372 38.3723337,35.9559374 38.5483039,35.9559374 C39.1005887,35.9559374 39.5483039,36.4036526 39.5483039,36.9559374 L39.5483039,56.6470029 C39.5483039,57.0038731 39.3581231,57.3336973 39.0492621,57.5124744 L22.049232,67.3525491 C21.8969903,67.4406707 21.7241973,67.4870746 21.5482912,67.4870776 C20.9960064,67.4870872 20.5482834,67.0393797 20.5482739,66.487095 L20.5479325,46.8001253 Z" id="Combined-Shape" fill="#D3D6E0"></path>
                    <path d="M20.2740384,94.1345737 L37.2781616,103.979066 C37.7561234,104.255781 37.9192664,104.867567 37.6425517,105.345529 C37.5550082,105.49674 37.4293732,105.622375 37.2781616,105.709919 L20.2740384,115.554411 C19.964104,115.733847 19.5818763,115.733842 19.271946,115.5544 L2.26872405,105.709907 C1.79076867,105.433181 1.62763976,104.821392 1.90436544,104.343436 C1.99190462,104.19224 2.11752803,104.066617 2.26872405,103.979078 L19.271946,94.1345852 C19.5818763,93.9551424 19.964104,93.955138 20.2740384,94.1345737 Z M19.0003715,117.800125 L19.0000301,137.487095 C19.0000205,138.03938 18.5522975,138.487087 18.0000127,138.487078 C17.8241066,138.487075 17.6513136,138.440671 17.4990719,138.352549 L0.499041817,128.512474 C0.190180826,128.333697 5.15143483e-14,128.003873 4.79616347e-14,127.647003 L-2.39808173e-13,107.955937 C-2.46913601e-13,107.403653 0.44771525,106.955937 1,106.955937 C1.17597024,106.955937 1.34882473,107.002372 1.50110681,107.090552 L18.5014783,116.934723 C18.8102608,117.113525 19.0003777,117.44331 19.0003715,117.800125 Z M20.5479325,117.800125 C20.5479263,117.44331 20.7380431,117.113525 21.0468256,116.934723 L38.0471971,107.090552 C38.1994792,107.002372 38.3723337,106.955937 38.5483039,106.955937 C39.1005887,106.955937 39.5483039,107.403653 39.5483039,107.955937 L39.5483039,127.647003 C39.5483039,128.003873 39.3581231,128.333697 39.0492621,128.512474 L22.049232,138.352549 C21.8969903,138.440671 21.7241973,138.487075 21.5482912,138.487078 C20.9960064,138.487087 20.5482834,138.03938 20.5482739,137.487095 L20.5479325,117.800125 Z" id="Combined-Shape-Copy" fill="#D3D6E0"></path>
                    <path d="M20.2740384,164.134574 L37.2781616,173.979066 C37.7561234,174.255781 37.9192664,174.867567 37.6425517,175.345529 C37.5550082,175.49674 37.4293732,175.622375 37.2781616,175.709919 L20.2740384,185.554411 C19.964104,185.733847 19.5818763,185.733842 19.271946,185.5544 L2.26872405,175.709907 C1.79076867,175.433181 1.62763976,174.821392 1.90436544,174.343436 C1.99190462,174.19224 2.11752803,174.066617 2.26872405,173.979078 L19.271946,164.134585 C19.5818763,163.955142 19.964104,163.955138 20.2740384,164.134574 Z M19.0003715,187.800125 L19.0000301,207.487095 C19.0000205,208.03938 18.5522975,208.487087 18.0000127,208.487078 C17.8241066,208.487075 17.6513136,208.440671 17.4990719,208.352549 L0.499041817,198.512474 C0.190180826,198.333697 5.15143483e-14,198.003873 4.79616347e-14,197.647003 L-2.39808173e-13,177.955937 C-2.46913601e-13,177.403653 0.44771525,176.955937 1,176.955937 C1.17597024,176.955937 1.34882473,177.002372 1.50110681,177.090552 L18.5014783,186.934723 C18.8102608,187.113525 19.0003777,187.44331 19.0003715,187.800125 Z M20.5479325,187.800125 C20.5479263,187.44331 20.7380431,187.113525 21.0468256,186.934723 L38.0471971,177.090552 C38.1994792,177.002372 38.3723337,176.955937 38.5483039,176.955937 C39.1005887,176.955937 39.5483039,177.403653 39.5483039,177.955937 L39.5483039,197.647003 C39.5483039,198.003873 39.3581231,198.333697 39.0492621,198.512474 L22.049232,208.352549 C21.8969903,208.440671 21.7241973,208.487075 21.5482912,208.487078 C20.9960064,208.487087 20.5482834,208.03938 20.5482739,207.487095 L20.5479325,187.800125 Z" id="Combined-Shape-Copy-2" fill="#D3D6E0"></path>
                    <path d="M20.25,71 L20.25,91" id="Path-2" stroke="#D3D6E0" stroke-width="2" stroke-linecap="round" stroke-linejoin="round"></path>
                    <path d="M20.25,0 L20.25,20" id="Path-2-Copy-2" stroke="#D3D6E0" stroke-width="2" stroke-linecap="round" stroke-linejoin="round"></path>
                    <path d="M20.25,142 L20.25,162" id="Path-2-Copy" stroke="#D3D6E0" stroke-width="2" stroke-linecap="round" stroke-linejoin="round"></path>
                    <path d="M20.25,212 L20.25,232" id="Path-2-Copy-3" stroke="#D3D6E0" stroke-width="2" stroke-linecap="round" stroke-linejoin="round"></path>
                </g>
                <g id="Group-25" opacity="0.5" transform="translate(129.000000, 104.000000)" fill-rule="nonzero">
                    <path d="M19.0808105,2 L23,2 C24.6568542,2 26,3.34314575 26,5 L26,31 C26,32.6568542 24.6568542,34 23,34 L3,34 C1.34314575,34 0,32.6568542 0,31 L0,5 C0,3.34314575 1.34314575,2 3,2 L6.95092773,2" id="Rectangle-10" stroke="#000000" fill="#FFFFFF"></path>
                    <rect id="Rectangle-11" fill="#000000" x="8" y="0" width="10" height="4"></rect>
                    <path d="M4,9 L22,9" id="Path-3" stroke="#000000" stroke-linecap="round" stroke-linejoin="round"></path>
                    <path d="M4,15 L16,15" id="Path-3-Copy" stroke="#000000" stroke-linecap="round" stroke-linejoin="round"></path>
                    <path d="M4,21 L16,21" id="Path-3-Copy-2" stroke="#000000" stroke-linecap="round" stroke-linejoin="round"></path>
                    <path d="M4,28 L16,28" id="Path-3-Copy-3" stroke="#000000" stroke-linecap="round" stroke-linejoin="round"></path>
                    <path d="M25,31.651962 L30.8873686,28.1878002 L25,36.4301163 L19.1126314,28.1878002 L25,31.651962 Z M25,31.292258 L19.653277,28.0547927 L25,19.5294673 L30.346723,28.0547927 L25,31.292258 Z" id="Shape" stroke="#FFFFFF" stroke-width="0.5" fill="#000000"></path>
                </g>
            </g>
        </g>
    </g>
</svg>