<?xml version="1.0" encoding="UTF-8"?>
<svg width="418px" height="280px" viewBox="0 0 418 280" version="1.1" xmlns="http://www.w3.org/2000/svg" xmlns:xlink="http://www.w3.org/1999/xlink">
    <!-- Generator: Sketch 51.2 (57519) - http://www.bohemiancoding.com/sketch -->
    <title>Group 12</title>
    <desc>Created with Sketch.</desc>
    <defs></defs>
    <g id="CODE-Network-P-中文" stroke="none" stroke-width="1" fill="none" fill-rule="evenodd">
        <g id="Desktop-HD-Copy-2" transform="translate(-471.000000, -1075.000000)">
            <g id="Group-12" transform="translate(471.000000, 1075.000000)">
                <g id="Page-1">
                    <g id="Group-22">
                        <path d="M280,140 C280,217.319262 217.319262,280 140,280 C62.680738,280 0,217.319262 0,140 C0,62.680738 62.680738,0 140,0 C217.319262,0 280,62.680738 280,140" id="Fill-1" fill="#D3D6E0" opacity="0.100000001"></path>
                        <g id="Group-2" transform="translate(27.290667, 65.445333)" fill="#FF9900">
                            <path d="M43.3886507,24.8793899 C43.3886507,36.6512571 33.8572858,46.1930431 22.0982753,46.1930431 C10.3392648,46.1930431 0.807899886,36.6512571 0.807899886,24.8793899 C0.807899886,13.1075228 10.3392648,3.56573678 22.0982753,3.56573678 C33.8572858,3.56573678 43.3886507,13.1075228 43.3886507,24.8793899" id="Fill-5"></path>
                            <path d="M224.917115,21.5140763 C224.917115,33.2859434 215.38575,42.8277294 203.626739,42.8277294 C191.867729,42.8277294 182.336364,33.2859434 182.336364,21.5140763 C182.336364,9.7422091 191.867729,0.200423124 203.626739,0.200423124 C215.38575,0.200423124 224.917115,9.7422091 224.917115,21.5140763" id="Fill-18"></path>
                            <path d="M135.273429,178.562047 C135.273429,190.332792 125.742064,199.8757 113.983053,199.8757 C102.224043,199.8757 92.692678,190.332792 92.692678,178.562047 C92.692678,166.79018 102.224043,157.248394 113.983053,157.248394 C125.742064,157.248394 135.273429,166.79018 135.273429,178.562047" id="Fill-20"></path>
                        </g>
                        <g id="Group-17" transform="translate(20.254744, 30.870849)"></g>
                        <g id="Group-3" transform="translate(20.254744, 30.870849)" fill="#D3D6E0">
                            <path d="M56.5875768,59.4538745 C56.5875768,74.6325609 44.2963069,86.9372694 29.134198,86.9372694 C25.584308,86.9372694 22.1957767,86.2552325 19.0817791,85.0280148 C18.7209633,84.8855498 18.3646296,84.7363542 18.0105371,84.5793063 C8.3928901,80.3053579 1.68081911,70.6670996 1.68081911,59.4538745 C1.68081911,44.2751882 13.972089,31.9704797 29.134198,31.9704797 C34.241647,31.9704797 39.020776,33.371572 43.1174924,35.803572 C43.4491741,36.0010037 43.775253,36.2062878 44.0979702,36.4171808 C51.6145933,41.319321 56.5875768,49.8032768 56.5875768,59.4538745 M94.6861433,1.68265683 C92.8293985,1.68265683 91.3245051,3.18919557 91.3245051,5.04797048 C91.3245051,5.20838376 91.3502777,5.36206642 91.3715681,5.51574908 C72.7794676,11.0404723 56.5886973,21.4280738 43.9903978,35.0329151 C40.0505578,32.6233506 35.4876942,31.1347601 30.6021133,30.8857269 C30.1157963,30.861048 29.6261177,30.8487085 29.134198,30.8487085 C28.6422782,30.8487085 28.1525996,30.861048 27.6662826,30.8857269 C13.0756522,31.6283395 1.33905256,43.3777712 0.597251058,57.9843542 C0.572599044,58.471203 0.560273038,58.961417 0.560273038,59.4538745 C0.560273038,59.9463321 0.572599044,60.4365461 0.597251058,60.9245166 C1.16424737,72.0693137 8.13516451,81.5449151 17.8883975,85.742583 C16.4585808,92.680738 15.6876451,99.8320295 15.6876451,107.129151 C15.6876451,117.319321 17.1353906,127.362539 19.9737338,137.038937 C18.2088737,137.151114 16.8081911,138.606052 16.8081911,140.400886 C16.8081911,142.268635 18.3220489,143.784148 20.1877581,143.784148 C22.0545878,143.784148 23.5673251,142.268635 23.5673251,140.400886 C23.5673251,138.884251 22.5644363,137.615528 21.1906468,137.185889 C18.2917941,127.469107 16.8081911,117.376531 16.8081911,107.129151 C16.8081911,99.9801033 17.5555954,92.9735203 18.9417109,86.1722214 C21.6758433,87.2210775 24.6060713,87.8660959 27.6662826,88.0220221 C28.1525996,88.0467011 28.6422782,88.0590406 29.134198,88.0590406 C29.6261177,88.0590406 30.1157963,88.0467011 30.6021133,88.0220221 C45.1927438,87.2794096 56.9293433,75.5299779 57.6711448,60.9245166 C57.6957969,60.4365461 57.7081229,59.9463321 57.7081229,59.4538745 C57.7081229,58.961417 57.6957969,58.471203 57.6711448,57.9843542 C57.1971539,48.6714096 52.2510635,40.5262288 44.9495853,35.6487675 C57.3999727,22.2536974 73.3755981,12.0287528 91.7122141,6.58591882 C92.2713666,7.6661845 93.3863099,8.41328413 94.6861433,8.41328413 C96.5428882,8.41328413 98.0477816,6.90674539 98.0477816,5.04797048 C98.0477816,3.18919557 96.5428882,1.68265683 94.6861433,1.68265683" id="Fill-7"></path>
                            <path d="M93.8774452,208.987997 C75.6416784,204.102683 58.8525366,194.371318 45.5101945,180.650934 C45.8810952,180.107997 46.0984811,179.451761 46.0984811,178.745045 C46.0984811,176.877296 44.5857439,175.361783 42.7189142,175.361783 C40.8520844,175.361783 39.3393472,176.877296 39.3393472,178.745045 C39.3393472,180.613916 40.8520844,182.128307 42.7189142,182.128307 C43.4741622,182.128307 44.1644186,181.872543 44.7269328,181.453001 C58.2440801,195.345015 75.2573311,205.18968 93.7351359,210.113134 C93.7754755,209.736218 93.8214179,209.360425 93.8774452,208.987997" id="Fill-9"></path>
                            <path d="M198.183477,175.361671 C196.316647,175.361671 194.80391,176.877184 194.80391,178.744933 C194.80391,179.745553 195.245405,180.635117 195.934541,181.254335 C182.523845,194.859176 166.132497,204.324682 148.171264,209.069774 C148.226171,209.442202 148.273234,209.816874 148.313574,210.193789 C166.598644,205.391486 183.275732,195.748741 196.89709,181.871309 C197.293763,182.035088 197.727414,182.128195 198.183477,182.128195 C200.050306,182.128195 201.563044,180.613804 201.563044,178.744933 C201.563044,176.877184 200.050306,175.361671 198.183477,175.361671" id="Fill-11"></path>
                            <path d="M224.091174,80.0576708 C223.77406,80.2360325 223.452463,80.4076635 223.127505,80.5736856 C219.384881,82.4863055 215.151458,83.5721801 210.66255,83.5721801 C195.500441,83.5721801 183.209171,71.2674716 183.209171,56.0887852 C183.209171,46.2710435 188.354719,37.6625712 196.088728,32.8008148 C196.372226,32.6224531 196.660206,32.4508221 196.950428,32.2836782 C200.985514,29.9481506 205.666035,28.6053904 210.66255,28.6053904 C225.824659,28.6053904 238.115929,40.9100989 238.115929,56.0887852 C238.115929,66.3832797 232.459412,75.3484753 224.091174,80.0576708 M239.199497,54.6192649 C238.457695,40.0126819 226.721096,28.2632502 212.130465,27.5206376 C211.644148,27.4959587 211.15559,27.4836192 210.66255,27.4836192 C210.17063,27.4836192 209.680952,27.4959587 209.194635,27.5206376 C204.390854,27.7651838 199.899705,29.2089033 196.005807,31.5500399 C182.850596,18.4993535 166.443561,8.97888118 148.5899,4.18667454 C148.595503,4.10366347 148.615673,4.02401771 148.615673,3.9387631 C148.615673,2.06989225 147.101815,0.554379336 145.234985,0.554379336 C143.368156,0.554379336 141.855418,2.06989225 141.855418,3.9387631 C141.855418,5.80763395 143.368156,7.32202509 145.234985,7.32202509 C146.625583,7.32202509 147.816723,6.48069668 148.336657,5.2792797 C166.520879,10.1376708 182.485298,19.5336266 195.167639,32.0716635 C187.690235,36.923324 182.606317,45.170586 182.125603,54.6192649 C182.100951,55.1061137 182.088625,55.5952059 182.088625,56.0887852 C182.088625,56.5812428 182.100951,57.0714568 182.125603,57.5583055 C182.867405,72.1637668 194.605125,83.9143203 209.194635,84.6569328 C209.680952,84.6816118 210.17063,84.6939513 210.66255,84.6939513 C211.15559,84.6939513 211.644148,84.6816118 212.130465,84.6569328 C216.116248,84.4538923 219.885765,83.4241063 223.279899,81.7448148 C225.275591,89.8989697 226.350195,98.399752 226.350195,107.130497 C226.350195,117.266822 224.910293,127.255073 222.087638,136.878748 C222.013682,136.873139 221.943087,136.856313 221.868011,136.856313 C220.011266,136.856313 218.506373,138.362852 218.506373,140.221627 C218.506373,142.080401 220.011266,143.58694 221.868011,143.58694 C223.724756,143.58694 225.229649,142.080401 225.229649,140.221627 C225.229649,138.83063 224.385878,137.637066 223.183532,137.124416 C226.021875,127.419973 227.470741,117.349833 227.470741,107.130497 C227.470741,98.3649771 226.353557,89.6712502 224.240207,81.2456266 C232.756357,76.6205638 238.679564,67.7933461 239.199497,57.5583055 C239.224149,57.0714568 239.236475,56.5812428 239.236475,56.0887852 C239.236475,55.5952059 239.224149,55.1061137 239.199497,54.6192649" id="Fill-13"></path>
                            <path d="M121.018976,240.619926 C105.856867,240.619926 93.5655973,228.315218 93.5655973,213.136531 C93.5655973,197.957845 105.856867,185.653137 121.018976,185.653137 C136.181085,185.653137 148.472355,197.957845 148.472355,213.136531 C148.472355,228.315218 136.181085,240.619926 121.018976,240.619926 M149.555923,211.665889 C148.814122,197.060428 137.077522,185.310996 122.486891,184.568384 C122.000574,184.543705 121.510896,184.531365 121.018976,184.531365 C120.527056,184.531365 120.037378,184.543705 119.551061,184.568384 C104.96043,185.310996 93.2238307,197.060428 92.4820292,211.665889 C92.4573772,212.15386 92.4450512,212.644074 92.4450512,213.136531 C92.4450512,213.628989 92.4573772,214.119203 92.4820292,214.607173 C93.2238307,229.211513 104.96043,240.962066 119.551061,241.704679 C120.037378,241.728236 120.527056,241.741697 121.018976,241.741697 C121.510896,241.741697 122.000574,241.728236 122.486891,241.704679 C137.077522,240.962066 148.814122,229.211513 149.555923,214.607173 C149.580575,214.119203 149.592901,213.628989 149.592901,213.136531 C149.592901,212.644074 149.580575,212.15386 149.555923,211.665889" id="Fill-15"></path>
                        </g>
                    </g>
                    <text id="&lt;/&gt;" font-family="PingFangSC-Semibold, PingFang SC" font-size="18" font-weight="500" fill="#1A1A1A">
                        <tspan x="126.826" y="128.085333">&lt;/&gt;</tspan>
                    </text>
                    <g id="Group-41" transform="translate(29.533333, 12.373333)">
                        <path d="M111.061333,0 C101.763593,0 94.2338586,7.52439491 94.2338586,16.8155429 C94.2338586,26.1066908 101.763593,33.6310857 111.061333,33.6310857 C120.359074,33.6310857 127.888808,26.1066908 127.888808,16.8155429 C127.888808,7.52439491 120.359074,0 111.061333,0" id="Fill-23" fill="#5C64D6"></path>
                        <path d="M111.061333,5.04466286 C113.845719,5.04466286 116.109576,7.30691389 116.109576,10.0893257 C116.109576,12.8807058 113.845719,15.1339886 111.061333,15.1339886 C108.276947,15.1339886 106.013091,12.8807058 106.013091,10.0893257 C106.013091,7.30691389 108.276947,5.04466286 111.061333,5.04466286" id="Fill-25" fill="#FFFFFF"></path>
                        <path d="M111.061333,28.9225095 C106.846612,28.9225095 103.143446,26.77012 100.964848,23.5079047 C101.007478,20.17058 107.703691,18.3287175 111.061333,18.3287175 C114.418975,18.3287175 121.107336,20.17058 121.157818,23.5079047 C118.979221,26.77012 115.276055,28.9225095 111.061333,28.9225095" id="Fill-27" fill="#FFFFFF"></path>
                        <path d="M16.8274747,162.550248 C7.52973403,162.550248 0,170.074643 0,179.36579 C0,188.656938 7.52973403,196.181333 16.8274747,196.181333 C26.1252155,196.181333 33.6549495,188.656938 33.6549495,179.36579 C33.6549495,170.074643 26.1252155,162.550248 16.8274747,162.550248" id="Fill-29" fill="#5C64D6"></path>
                        <path d="M16.8274747,167.59491 C19.6118609,167.59491 21.8757172,169.857162 21.8757172,172.639573 C21.8757172,175.430953 19.6118609,177.684236 16.8274747,177.684236 C14.0430886,177.684236 11.7792323,175.430953 11.7792323,172.639573 C11.7792323,169.857162 14.0430886,167.59491 16.8274747,167.59491" id="Fill-31" fill="#FFFFFF"></path>
                        <path d="M16.8274747,191.472757 C12.6127532,191.472757 8.90958696,189.320368 6.7309899,186.058152 C6.7736195,182.720828 13.4698326,180.878965 16.8274747,180.878965 C20.1851169,180.878965 26.8734772,182.720828 26.9239596,186.058152 C24.7453625,189.320368 21.0421963,191.472757 16.8274747,191.472757" id="Fill-33" fill="#FFFFFF"></path>
                        <path d="M205.295192,162.550248 C195.997451,162.550248 188.467717,170.074643 188.467717,179.36579 C188.467717,188.656938 195.997451,196.181333 205.295192,196.181333 C214.592933,196.181333 222.122667,188.656938 222.122667,179.36579 C222.122667,170.074643 214.592933,162.550248 205.295192,162.550248" id="Fill-35" fill="#5C64D6"></path>
                        <path d="M205.295192,167.59491 C208.079578,167.59491 210.343434,169.857162 210.343434,172.639573 C210.343434,175.430953 208.079578,177.684236 205.295192,177.684236 C202.510806,177.684236 200.246949,175.430953 200.246949,172.639573 C200.246949,169.857162 202.510806,167.59491 205.295192,167.59491" id="Fill-37" fill="#FFFFFF"></path>
                        <path d="M205.295192,191.472757 C201.08047,191.472757 197.377304,189.320368 195.198707,186.058152 C195.241337,182.720828 201.93755,180.878965 205.295192,180.878965 C208.652834,180.878965 215.341194,182.720828 215.391677,186.058152 C213.21308,189.320368 209.509913,191.472757 205.295192,191.472757" id="Fill-39" fill="#FFFFFF"></path>
                    </g>
                    <text id="智能合约" font-family="PingFangSC-Semibold, PingFang SC" font-size="18" font-weight="500" letter-spacing="3" fill="#1A1A1A">
                        <tspan x="101.716" y="148.488">智能合</tspan>
                        <tspan x="164.716" y="148.488">约</tspan>
                    </text>
                    <text id="TOKEN" font-family="PingFangSC-Semibold, PingFang SC" font-size="10" font-weight="500" fill="#FFFFFF">
                        <tspan x="31.1546667" y="92.4693333">TOKEN</tspan>
                    </text>
                    <text id="TOKEN" font-family="PingFangSC-Semibold, PingFang SC" font-size="10" font-weight="500" fill="#FFFFFF">
                        <tspan x="213.554667" y="90.0373333">TOKEN</tspan>
                    </text>
                    <text id="TOKEN" font-family="PingFangSC-Semibold, PingFang SC" font-size="10" font-weight="500" fill="#FFFFFF">
                        <tspan x="123.570667" y="247.306667">TOKEN</tspan>
                    </text>
                </g>
                <g id="Page-1" transform="translate(284.000000, 11.000000)">
                    <g id="Group-104">
                        <path d="M3,89 C4.6565,89 6,90.343 6,92 C6,93.6565 4.6565,95 3,95 C1.3435,95 0,93.6565 0,92 C0,90.343 1.3435,89 3,89" id="Fill-1" fill="#1A2033"></path>
                        <path d="M10,92 L56,92" id="Stroke-3" stroke="#1A2033" stroke-linecap="round" stroke-dasharray="4,4"></path>
                        <g id="Group-4" transform="translate(29.000000, 161.000000) scale(-1, 1) translate(-29.000000, -161.000000) translate(1.000000, 158.000000)">
                            <path d="M3,0 C4.6565,0 6,1.343 6,3 C6,4.6565 4.6565,6 3,6 C1.3435,6 0,4.6565 0,3 C0,1.343 1.3435,0 3,0" id="Fill-1-Copy" fill="#1A2033"></path>
                            <path d="M10,3 L56,3" id="Stroke-3-Copy" stroke="#1A2033" stroke-linecap="round" stroke-dasharray="4,4"></path>
                        </g>
                        <g id="Group-103" opacity="0.200000003" transform="translate(62.500000, 0.000000)">
                            <path d="M35.122807,179.895408 L5.64473684,196.659957" id="Stroke-13" stroke="#223163"></path>
                            <path d="M35.122807,146.36631 L35.122807,179.895408" id="Stroke-15" stroke="#223163"></path>
                            <path d="M35.122807,179.895408 L64.6008772,196.659957" id="Stroke-17" stroke="#223163"></path>
                            <path d="M35.122807,179.895408 L35.0487982,213.551171" id="Stroke-19" stroke="#223163"></path>
                            <path d="M5.79175088,163.130859 L35.1230579,179.895408" id="Stroke-21" stroke="#223163"></path>
                            <path d="M35.122807,179.895408 L64.5268684,163.004193" id="Stroke-23" stroke="#223163"></path>
                            <path d="M5.79175088,196.659957 L35.1230579,213.424506" id="Stroke-25" stroke="#223163"></path>
                            <path d="M35.122807,213.424506 L64.5268684,196.533291" id="Stroke-27" stroke="#223163"></path>
                            <path d="M35.122807,214.666324 L35.0487982,248.322088" id="Stroke-33" stroke="#223163"></path>
                            <path d="M35.122807,145.124491 L5.64473684,161.88904" id="Stroke-41" stroke="#223163"></path>
                            <path d="M35.122807,111.595393 L35.122807,145.124491" id="Stroke-43" stroke="#223163"></path>
                            <path d="M35.122807,145.124491 L64.6008772,161.88904" id="Stroke-45" stroke="#223163"></path>
                            <path d="M5.79175088,93.589026 L35.1230579,110.353575" id="Stroke-54" stroke="#223163"></path>
                            <path d="M35.122807,110.353575 L64.5268684,93.4623605" id="Stroke-58" stroke="#223163"></path>
                            <path d="M35.122807,75.5826586 L5.64473684,92.3472076" id="Stroke-62" stroke="#223163"></path>
                            <path d="M35.122807,42.0535607 L35.122807,75.5826586" id="Stroke-68" stroke="#223163"></path>
                            <path d="M35.122807,75.5826586 L64.6008772,92.3472076" id="Stroke-70" stroke="#223163"></path>
                            <path d="M35.122807,42.0535607 L5.64473684,58.8181096" id="Stroke-72" stroke="#223163"></path>
                            <path d="M35.122807,42.0535607 L64.6008772,58.8181096" id="Stroke-74" stroke="#223163"></path>
                            <path d="M35.122807,75.5826586 L35.0487982,109.238422" id="Stroke-76" stroke="#223163"></path>
                            <path d="M6.27192982,59.4390189 L6.19792105,93.0947823" id="Stroke-78" stroke="#223163"></path>
                            <path d="M65.2280702,59.4390189 L65.1540614,93.0947823" id="Stroke-80" stroke="#223163"></path>
                            <path d="M6.27192982,162.50995 L6.19792105,196.165713" id="Stroke-82" stroke="#223163"></path>
                            <path d="M65.2280702,162.50995 L65.1540614,196.165713" id="Stroke-84" stroke="#223163"></path>
                            <path d="M5.79175088,58.8181096 L35.1230579,75.5826586" id="Stroke-86" stroke="#223163"></path>
                            <path d="M35.122807,75.5826586 L64.5268684,58.6914441" id="Stroke-88" stroke="#223163"></path>
                            <path d="M35.122807,8.5244627 L35.122807,42.0535607" id="Stroke-92" stroke="#223163"></path>
                            <g id="Group" fill="#223163">
                                <g id="Fill-11" transform="translate(29.250000, 34.000000)">
                                    <path d="M1.07508419,11.5111441 L5.03067717,13.7646223 C5.64437922,14.1142448 6.39698499,14.1142448 7.01068704,13.7646223 L10.96628,11.5111441 C11.5907083,11.1554109 11.9762751,10.4920102 11.9762751,9.77336092 L11.9762751,5.31241731 C11.9762751,4.59376805 11.5907083,3.93036733 10.96628,3.57463418 L7.01068704,1.32115589 C6.39698499,0.971533411 5.64437922,0.971533411 5.03067717,1.32115589 L1.07508419,3.57463418 C0.450655906,3.93036733 0.0650891228,4.59376805 0.0650891228,5.31241731 L0.0650891228,9.77336092 C0.0650891228,10.4920102 0.450655906,11.1554109 1.07508419,11.5111441 Z"></path>
                                </g>
                                <g id="Fill-11" transform="translate(29.250000, 0.096432)">
                                    <path d="M1.07508419,11.5111441 L5.03067717,13.7646223 C5.64437922,14.1142448 6.39698499,14.1142448 7.01068704,13.7646223 L10.96628,11.5111441 C11.5907083,11.1554109 11.9762751,10.4920102 11.9762751,9.77336092 L11.9762751,5.31241731 C11.9762751,4.59376805 11.5907083,3.93036733 10.96628,3.57463418 L7.01068704,1.32115589 C6.39698499,0.971533411 5.64437922,0.971533411 5.03067717,1.32115589 L1.07508419,3.57463418 C0.450655906,3.93036733 0.0650891228,4.59376805 0.0650891228,5.31241731 L0.0650891228,9.77336092 C0.0650891228,10.4920102 0.450655906,11.1554109 1.07508419,11.5111441 Z"></path>
                                </g>
                                <g id="Fill-11" transform="translate(29.250000, 102.809524)">
                                    <path d="M1.07508419,11.5111441 L5.03067717,13.7646223 C5.64437922,14.1142448 6.39698499,14.1142448 7.01068704,13.7646223 L10.96628,11.5111441 C11.5907083,11.1554109 11.9762751,10.4920102 11.9762751,9.77336092 L11.9762751,5.31241731 C11.9762751,4.59376805 11.5907083,3.93036733 10.96628,3.57463418 L7.01068704,1.32115589 C6.39698499,0.971533411 5.64437922,0.971533411 5.03067717,1.32115589 L1.07508419,3.57463418 C0.450655906,3.93036733 0.0650891228,4.59376805 0.0650891228,5.31241731 L0.0650891228,9.77336092 C0.0650891228,10.4920102 0.450655906,11.1554109 1.07508419,11.5111441 Z"></path>
                                </g>
                                <g id="Fill-11" transform="translate(29.250000, 68.000000)">
                                    <path d="M1.07508419,11.5111441 L5.03067717,13.7646223 C5.64437922,14.1142448 6.39698499,14.1142448 7.01068704,13.7646223 L10.96628,11.5111441 C11.5907083,11.1554109 11.9762751,10.4920102 11.9762751,9.77336092 L11.9762751,5.31241731 C11.9762751,4.59376805 11.5907083,3.93036733 10.96628,3.57463418 L7.01068704,1.32115589 C6.39698499,0.971533411 5.64437922,0.971533411 5.03067717,1.32115589 L1.07508419,3.57463418 C0.450655906,3.93036733 0.0650891228,4.59376805 0.0650891228,5.31241731 L0.0650891228,9.77336092 C0.0650891228,10.4920102 0.450655906,11.1554109 1.07508419,11.5111441 Z"></path>
                                </g>
                                <g id="Fill-11" transform="translate(29.250000, 136.809524)">
                                    <path d="M1.07508419,11.5111441 L5.03067717,13.7646223 C5.64437922,14.1142448 6.39698499,14.1142448 7.01068704,13.7646223 L10.96628,11.5111441 C11.5907083,11.1554109 11.9762751,10.4920102 11.9762751,9.77336092 L11.9762751,5.31241731 C11.9762751,4.59376805 11.5907083,3.93036733 10.96628,3.57463418 L7.01068704,1.32115589 C6.39698499,0.971533411 5.64437922,0.971533411 5.03067717,1.32115589 L1.07508419,3.57463418 C0.450655906,3.93036733 0.0650891228,4.59376805 0.0650891228,5.31241731 L0.0650891228,9.77336092 C0.0650891228,10.4920102 0.450655906,11.1554109 1.07508419,11.5111441 Z"></path>
                                </g>
                                <g id="Fill-11" transform="translate(0.000000, 51.809524)">
                                    <path d="M1.07508419,11.5111441 L5.03067717,13.7646223 C5.64437922,14.1142448 6.39698499,14.1142448 7.01068704,13.7646223 L10.96628,11.5111441 C11.5907083,11.1554109 11.9762751,10.4920102 11.9762751,9.77336092 L11.9762751,5.31241731 C11.9762751,4.59376805 11.5907083,3.93036733 10.96628,3.57463418 L7.01068704,1.32115589 C6.39698499,0.971533411 5.64437922,0.971533411 5.03067717,1.32115589 L1.07508419,3.57463418 C0.450655906,3.93036733 0.0650891228,4.59376805 0.0650891228,5.31241731 L0.0650891228,9.77336092 C0.0650891228,10.4920102 0.450655906,11.1554109 1.07508419,11.5111441 Z"></path>
                                </g>
                                <g id="Fill-11" transform="translate(0.000000, 85.000000)">
                                    <path d="M1.07508419,11.5111441 L5.03067717,13.7646223 C5.64437922,14.1142448 6.39698499,14.1142448 7.01068704,13.7646223 L10.96628,11.5111441 C11.5907083,11.1554109 11.9762751,10.4920102 11.9762751,9.77336092 L11.9762751,5.31241731 C11.9762751,4.59376805 11.5907083,3.93036733 10.96628,3.57463418 L7.01068704,1.32115589 C6.39698499,0.971533411 5.64437922,0.971533411 5.03067717,1.32115589 L1.07508419,3.57463418 C0.450655906,3.93036733 0.0650891228,4.59376805 0.0650891228,5.31241731 L0.0650891228,9.77336092 C0.0650891228,10.4920102 0.450655906,11.1554109 1.07508419,11.5111441 Z"></path>
                                </g>
                                <g id="Fill-11" transform="translate(0.000000, 153.809524)">
                                    <path d="M1.07508419,11.5111441 L5.03067717,13.7646223 C5.64437922,14.1142448 6.39698499,14.1142448 7.01068704,13.7646223 L10.96628,11.5111441 C11.5907083,11.1554109 11.9762751,10.4920102 11.9762751,9.77336092 L11.9762751,5.31241731 C11.9762751,4.59376805 11.5907083,3.93036733 10.96628,3.57463418 L7.01068704,1.32115589 C6.39698499,0.971533411 5.64437922,0.971533411 5.03067717,1.32115589 L1.07508419,3.57463418 C0.450655906,3.93036733 0.0650891228,4.59376805 0.0650891228,5.31241731 L0.0650891228,9.77336092 C0.0650891228,10.4920102 0.450655906,11.1554109 1.07508419,11.5111441 Z"></path>
                                </g>
                                <g id="Fill-11" transform="translate(59.312500, 51.809524)">
                                    <path d="M1.07508419,11.5111441 L5.03067717,13.7646223 C5.64437922,14.1142448 6.39698499,14.1142448 7.01068704,13.7646223 L10.96628,11.5111441 C11.5907083,11.1554109 11.9762751,10.4920102 11.9762751,9.77336092 L11.9762751,5.31241731 C11.9762751,4.59376805 11.5907083,3.93036733 10.96628,3.57463418 L7.01068704,1.32115589 C6.39698499,0.971533411 5.64437922,0.971533411 5.03067717,1.32115589 L1.07508419,3.57463418 C0.450655906,3.93036733 0.0650891228,4.59376805 0.0650891228,5.31241731 L0.0650891228,9.77336092 C0.0650891228,10.4920102 0.450655906,11.1554109 1.07508419,11.5111441 Z"></path>
                                </g>
                                <g id="Fill-11" transform="translate(59.312500, 85.000000)">
                                    <path d="M1.07508419,11.5111441 L5.03067717,13.7646223 C5.64437922,14.1142448 6.39698499,14.1142448 7.01068704,13.7646223 L10.96628,11.5111441 C11.5907083,11.1554109 11.9762751,10.4920102 11.9762751,9.77336092 L11.9762751,5.31241731 C11.9762751,4.59376805 11.5907083,3.93036733 10.96628,3.57463418 L7.01068704,1.32115589 C6.39698499,0.971533411 5.64437922,0.971533411 5.03067717,1.32115589 L1.07508419,3.57463418 C0.450655906,3.93036733 0.0650891228,4.59376805 0.0650891228,5.31241731 L0.0650891228,9.77336092 C0.0650891228,10.4920102 0.450655906,11.1554109 1.07508419,11.5111441 Z"></path>
                                </g>
                                <g id="Fill-11" transform="translate(59.312500, 153.809524)">
                                    <path d="M1.07508419,11.5111441 L5.03067717,13.7646223 C5.64437922,14.1142448 6.39698499,14.1142448 7.01068704,13.7646223 L10.96628,11.5111441 C11.5907083,11.1554109 11.9762751,10.4920102 11.9762751,9.77336092 L11.9762751,5.31241731 C11.9762751,4.59376805 11.5907083,3.93036733 10.96628,3.57463418 L7.01068704,1.32115589 C6.39698499,0.971533411 5.64437922,0.971533411 5.03067717,1.32115589 L1.07508419,3.57463418 C0.450655906,3.93036733 0.0650891228,4.59376805 0.0650891228,5.31241731 L0.0650891228,9.77336092 C0.0650891228,10.4920102 0.450655906,11.1554109 1.07508419,11.5111441 Z"></path>
                                </g>
                                <g id="Fill-11" transform="translate(29.250000, 171.619048)">
                                    <path d="M1.07508419,11.5111441 L5.03067717,13.7646223 C5.64437922,14.1142448 6.39698499,14.1142448 7.01068704,13.7646223 L10.96628,11.5111441 C11.5907083,11.1554109 11.9762751,10.4920102 11.9762751,9.77336092 L11.9762751,5.31241731 C11.9762751,4.59376805 11.5907083,3.93036733 10.96628,3.57463418 L7.01068704,1.32115589 C6.39698499,0.971533411 5.64437922,0.971533411 5.03067717,1.32115589 L1.07508419,3.57463418 C0.450655906,3.93036733 0.0650891228,4.59376805 0.0650891228,5.31241731 L0.0650891228,9.77336092 C0.0650891228,10.4920102 0.450655906,11.1554109 1.07508419,11.5111441 Z"></path>
                                </g>
                                <g id="Fill-11" transform="translate(29.250000, 205.619048)">
                                    <path d="M1.07508419,11.5111441 L5.03067717,13.7646223 C5.64437922,14.1142448 6.39698499,14.1142448 7.01068704,13.7646223 L10.96628,11.5111441 C11.5907083,11.1554109 11.9762751,10.4920102 11.9762751,9.77336092 L11.9762751,5.31241731 C11.9762751,4.59376805 11.5907083,3.93036733 10.96628,3.57463418 L7.01068704,1.32115589 C6.39698499,0.971533411 5.64437922,0.971533411 5.03067717,1.32115589 L1.07508419,3.57463418 C0.450655906,3.93036733 0.0650891228,4.59376805 0.0650891228,5.31241731 L0.0650891228,9.77336092 C0.0650891228,10.4920102 0.450655906,11.1554109 1.07508419,11.5111441 Z"></path>
                                </g>
                                <g id="Fill-11" transform="translate(29.250000, 239.619048)">
                                    <path d="M1.07508419,11.5111441 L5.03067717,13.7646223 C5.64437922,14.1142448 6.39698499,14.1142448 7.01068704,13.7646223 L10.96628,11.5111441 C11.5907083,11.1554109 11.9762751,10.4920102 11.9762751,9.77336092 L11.9762751,5.31241731 C11.9762751,4.59376805 11.5907083,3.93036733 10.96628,3.57463418 L7.01068704,1.32115589 C6.39698499,0.971533411 5.64437922,0.971533411 5.03067717,1.32115589 L1.07508419,3.57463418 C0.450655906,3.93036733 0.0650891228,4.59376805 0.0650891228,5.31241731 L0.0650891228,9.77336092 C0.0650891228,10.4920102 0.450655906,11.1554109 1.07508419,11.5111441 Z"></path>
                                </g>
                                <g id="Fill-11" transform="translate(0.000000, 189.428571)">
                                    <path d="M1.07508419,11.5111441 L5.03067717,13.7646223 C5.64437922,14.1142448 6.39698499,14.1142448 7.01068704,13.7646223 L10.96628,11.5111441 C11.5907083,11.1554109 11.9762751,10.4920102 11.9762751,9.77336092 L11.9762751,5.31241731 C11.9762751,4.59376805 11.5907083,3.93036733 10.96628,3.57463418 L7.01068704,1.32115589 C6.39698499,0.971533411 5.64437922,0.971533411 5.03067717,1.32115589 L1.07508419,3.57463418 C0.450655906,3.93036733 0.0650891228,4.59376805 0.0650891228,5.31241731 L0.0650891228,9.77336092 C0.0650891228,10.4920102 0.450655906,11.1554109 1.07508419,11.5111441 Z"></path>
                                </g>
                                <g id="Fill-11" transform="translate(59.312500, 189.428571)">
                                    <path d="M1.07508419,11.5111441 L5.03067717,13.7646223 C5.64437922,14.1142448 6.39698499,14.1142448 7.01068704,13.7646223 L10.96628,11.5111441 C11.5907083,11.1554109 11.9762751,10.4920102 11.9762751,9.77336092 L11.9762751,5.31241731 C11.9762751,4.59376805 11.5907083,3.93036733 10.96628,3.57463418 L7.01068704,1.32115589 C6.39698499,0.971533411 5.64437922,0.971533411 5.03067717,1.32115589 L1.07508419,3.57463418 C0.450655906,3.93036733 0.0650891228,4.59376805 0.0650891228,5.31241731 L0.0650891228,9.77336092 C0.0650891228,10.4920102 0.450655906,11.1554109 1.07508419,11.5111441 Z"></path>
                                </g>
                            </g>
                        </g>
                    </g>
                </g>
            </g>
        </g>
    </g>
</svg>