<?xml version="1.0" encoding="utf-8"?>
<!-- Generator: Adobe Illustrator 21.0.0, SVG Export Plug-In . SVG Version: 6.00 Build 0)  -->
<svg version="1.1" id="图层_1" xmlns="http://www.w3.org/2000/svg" xmlns:xlink="http://www.w3.org/1999/xlink" x="0px" y="0px"
	 viewBox="0 0 150 150" style="enable-background:new 0 0 150 150;" xml:space="preserve">
<path d="M91.7,97.7c0.9,0.9,0.9,1.8,0,2.6c-3.5,3.5-9,5.2-16.7,5.2c-7.6,0-13.2-1.7-16.7-5.2c-0.9-0.8-0.9-1.7,0-2.6
	c0.3-0.3,0.8-0.5,1.3-0.5s0.9,0.2,1.3,0.5c2.7,2.7,7.4,4.1,14.1,4.1c6.7,0,11.4-1.4,14.1-4.1c0.3-0.3,0.8-0.5,1.3-0.5
	S91.3,97.3,91.7,97.7L91.7,97.7z M66,82.5c0,2.1-0.7,3.8-2.2,5.3c-1.5,1.5-3.2,2.2-5.3,2.2c-2.1,0-3.8-0.7-5.3-2.2
	c-1.5-1.4-2.2-3.2-2.2-5.3c0-2.1,0.7-3.9,2.2-5.4c1.5-1.4,3.2-2.2,5.3-2.2c2.1,0,3.8,0.7,5.3,2.2C65.2,78.7,66,80.5,66,82.5z
	 M99,82.5c0,2.1-0.7,3.8-2.2,5.3c-1.5,1.5-3.3,2.2-5.3,2.2c-2.1,0-3.8-0.7-5.3-2.2c-1.4-1.4-2.2-3.2-2.2-5.3c0-2.1,0.7-3.8,2.2-5.3
	c1.5-1.5,3.2-2.2,5.3-2.2c2.1,0,3.8,0.7,5.3,2.2C98.3,78.6,99,80.4,99,82.5z M120,72.5c0-2.7-1-5.1-2.9-7c-1.9-2-4.3-2.9-7.1-2.9
	c-2.8,0-5.2,1-7.2,3c-7.3-5-15.9-7.7-26-8L82,33.8l16.7,3.8c0,2.1,0.7,3.8,2.2,5.3c1.5,1.5,3.2,2.2,5.3,2.2c2.1,0,3.8-0.7,5.3-2.2
	c1.5-1.5,2.2-3.2,2.2-5.3c0-2.1-0.7-3.8-2.2-5.3c-1.5-1.5-3.2-2.2-5.3-2.2c-3,0-5.2,1.4-6.7,4.2L81,30.1c-1.1-0.3-1.8,0.2-2.1,1.3
	l-5.8,26.1c-10,0.4-18.7,3.1-25.9,8.1c-2-2.1-4.4-3.1-7.3-3.1c-2.8,0-5.2,1-7.1,2.9c-1.9,1.9-2.9,4.3-2.9,7c0,2,0.5,3.7,1.6,5.4
	c1,1.6,2.4,2.8,4.1,3.7c-0.3,1.5-0.5,3.1-0.5,4.7c0,7.9,3.9,14.7,11.7,20.3c7.8,5.6,17.2,8.5,28.2,8.5c11.1,0,20.5-2.8,28.3-8.5
	c7.8-5.6,11.7-12.4,11.7-20.3c0-1.8-0.2-3.4-0.6-4.8c1.7-0.8,3-2.1,4-3.6C119.6,76.2,120.1,74.5,120,72.5L120,72.5z M150,75
	c0,10.2-2,19.9-5.9,29.1c-4,9.3-9.3,17.2-16,23.9s-14.7,12-23.9,16c-9.3,4-19,5.9-29.1,5.9s-19.9-2-29.1-5.9
	c-9.3-4-17.2-9.3-23.9-16s-12-14.7-16-23.9C2,94.9,0,85.2,0,75s2-19.9,5.9-29.1s9.3-17.2,16-23.9s14.7-12,23.9-16S64.8,0,75,0
	s19.9,2,29.1,5.9c9.3,4,17.2,9.3,23.9,16s12,14.7,16,23.9C148,55.1,150,64.8,150,75z"/>
</svg>
