<?xml version="1.0" encoding="utf-8"?>
<!-- Generator: Adobe Illustrator 21.0.0, SVG Export Plug-In . SVG Version: 6.00 Build 0)  -->
<svg version="1.1" id="图层_1" xmlns="http://www.w3.org/2000/svg" xmlns:xlink="http://www.w3.org/1999/xlink" x="0px" y="0px"
	 viewBox="0 0 150 150" style="enable-background:new 0 0 150 150;" xml:space="preserve">
<path d="M75,150c-41.4,0-75-33.6-75-75S33.6,0,75,0s75,33.6,75,75S116.4,150,75,150z M111.8,73.7c-0.8,0-1.7,0.2-2.6,0.5l-9.2,3.2
	l-5.9-17.8l8.8-3c1.6-0.6,3.1-1.6,4.2-2.9c1.1-1.4,1.7-2.9,1.7-4.6c0-2.2-0.8-4.1-2.4-5.5c-1.6-1.5-3.6-2.3-5.8-2.2
	c-0.8,0-1.6,0.1-2.4,0.3l-9.1,3.1l-3-9.1c-0.5-1.6-1.6-3-3-4c-1.4-1-3.1-1.6-4.8-1.5c-2.2,0-4.1,0.8-5.7,2.4
	c-1.6,1.6-2.4,3.5-2.4,5.7c0,0.9,0.1,1.7,0.4,2.7l3,9l-17.5,5.9l-3-9c-0.5-1.6-1.6-3.1-3-4.1c-1.4-1-3.1-1.5-4.8-1.5
	c-2.2,0-4.2,0.8-5.7,2.4c-1.6,1.6-2.4,3.5-2.4,5.8c0,0.9,0.2,1.7,0.5,2.6l3,9l-8.8,3c-1.6,0.6-3,1.6-4,3c-1,1.4-1.5,3-1.5,4.8
	c0,2.2,0.8,4.1,2.3,5.7c1.5,1.5,3.4,2.3,5.7,2.3c0.8,0,1.7-0.2,2.7-0.5l8.8-3l5.9,17.6l-8.8,3c-1.7,0.6-3,1.6-4,3
	c-1,1.4-1.5,3-1.5,4.8c0,2.3,0.8,4.2,2.3,5.7c1.5,1.5,3.4,2.3,5.7,2.3c0.8,0,1.7-0.2,2.8-0.5l8.6-3l3.1,9.2c0.6,1.7,1.6,3,3,4.1
	c1.4,1,3,1.5,4.8,1.5c2.2,0,4.2-0.8,5.7-2.4c1.6-1.6,2.4-3.5,2.4-5.7c0-0.9-0.2-1.7-0.5-2.7l-3.1-9.2l17.5-6l3.1,9.3
	c0.6,1.7,1.6,3,3,4.1c1.4,1,3.1,1.5,4.8,1.5c2.2,0,4.1-0.8,5.7-2.4c1.6-1.6,2.4-3.5,2.4-5.7c0-1-0.1-1.9-0.4-2.6l-3.2-9.4l9.7-3.3
	c3.5-1.2,5.2-3.7,5.2-7.3c0-2.3-0.8-4.2-2.3-5.7C116.1,74.5,114.2,73.7,111.8,73.7L111.8,73.7z M65.7,86.2L60,69.5l16.8-5.7
	l5.7,16.9L65.7,86.2z"/>
</svg>
