<?xml version="1.0" encoding="utf-8"?>
<!-- Generator: Adobe Illustrator 21.0.0, SVG Export Plug-In . SVG Version: 6.00 Build 0)  -->
<svg version="1.1" id="图层_1" xmlns="http://www.w3.org/2000/svg" xmlns:xlink="http://www.w3.org/1999/xlink" x="0px" y="0px"
	 viewBox="0 0 150 150" style="enable-background:new 0 0 150 150;" xml:space="preserve">
<path d="M99.5,109.4l12.3-58c1.1-5.1-1.8-7.1-5.2-5.9L34.3,73.4c-4.9,1.9-4.9,4.7-0.8,5.9L52,85.1l42.9-27c2-1.3,3.9-0.6,2.3,0.8
	L62.5,90.2l-1.3,19.1c1.9,0,2.8-0.8,3.8-1.8l9-8.7l18.8,13.8C96.2,114.5,98.6,113.5,99.5,109.4L99.5,109.4z M150,75
	c0,41.4-33.6,75-75,75S0,116.4,0,75S33.6,0,75,0S150,33.6,150,75z"/>
</svg>
