<?xml version="1.0" encoding="utf-8"?>
<!-- Generator: Adobe Illustrator 21.0.0, SVG Export Plug-In . SVG Version: 6.00 Build 0)  -->
<svg version="1.1" id="图层_1" xmlns="http://www.w3.org/2000/svg" xmlns:xlink="http://www.w3.org/1999/xlink" x="0px" y="0px"
	 viewBox="0 0 150 150" style="enable-background:new 0 0 150 150;" xml:space="preserve">
<path d="M41.9,46.4"/>
<path d="M75,0C33.6,0,0,33.6,0,75s33.6,75,75,75s75-33.6,75-75S116.4,0,75,0z M113.1,60.6c-0.4,32-20.9,53.9-51.5,55.3
	c-12.6,0.6-21.7-3.5-29.7-8.5c9.3,1.5,20.9-2.2,27-7.5c-9.1-0.9-14.5-5.5-17.1-13c2.6,0.5,5.4,0.3,7.9-0.2
	c-8.2-2.8-14.1-7.8-14.4-18.5c2.3,1.1,4.7,2,7.9,2.2c-6.2-3.5-10.7-16.3-5.5-24.8c9.2,10,20.2,18.2,38.2,19.3
	C71.6,45.5,97.3,35,108.1,48c4.5-0.9,8.3-2.6,11.8-4.5c-1.5,4.5-4.3,7.7-7.7,10.2c3.8-0.5,7.1-1.4,10-2.8
	C120.4,54.5,116.5,57.8,113.1,60.6z"/>
</svg>
