<?xml version="1.0" encoding="utf-8"?>
<!-- Generator: Adobe Illustrator 21.0.0, SVG Export Plug-In . SVG Version: 6.00 Build 0)  -->
<svg version="1.1" id="图层_1" xmlns="http://www.w3.org/2000/svg" xmlns:xlink="http://www.w3.org/1999/xlink" x="0px" y="0px"
	 viewBox="0 0 150 150" style="enable-background:new 0 0 150 150;" xml:space="preserve">
<path d="M62.1,61.6L88,75L62.1,88.5V61.6L62.1,61.6z"/>
<path d="M75,0C33.6,0,0,33.6,0,75s33.6,75,75,75s75-33.6,75-75S116.4,0,75,0z M123.1,78.6c0,5.4-0.4,10.8-1,16.2
	c-0.5,3-1.8,6.2-3.8,9c-2.6,2.6-6,4-9.6,4c-13.4,0.9-33.6,1-33.6,1s-24.9,0-32.6-1c-3.9-0.1-7.6-1.5-10.4-4.1c-2-2.8-3.4-6-3.8-9.5
	c-0.6-5.2-0.9-10.4-1-15.6v-7.3c0-5.5,0.4-10.9,1-16.2c0.4-3,1.8-6.2,3.8-9c2.6-2.6,6-4,9.6-4c13.4-0.9,33.5-0.9,33.5-0.9
	s20.1,0,33.5,0.9c3.6,0,7.1,1.5,9.7,4.1c1.9,2.7,3.3,5.9,3.8,9.5c0.6,4.7,0.9,10.1,1,15.6L123.1,78.6z"/>
<path d="M88,75L62.1,88.5v-27L88,75L88,75z"/>
<path d="M62.1,61.6v27L88,75L62.1,61.6z"/>
</svg>
